<svg width="42" height="42" viewBox="0 0 42 42" fill="none" xmlns="http://www.w3.org/2000/svg">
<path fill-rule="evenodd" clip-rule="evenodd" d="M25.0336 13.3759L22.875 13.3726C20.4497 13.3726 18.8825 14.9181 18.8825 17.3102V19.1257H16.712C16.5244 19.1257 16.3726 19.2718 16.3726 19.4521V22.0826C16.3726 22.2628 16.5246 22.4088 16.712 22.4088H18.8825V29.0463C18.8825 29.2266 19.0343 29.3726 19.2219 29.3726H22.0537C22.2413 29.3726 22.3932 29.2264 22.3932 29.0463V22.4088H24.9309C25.1185 22.4088 25.2704 22.2628 25.2704 22.0826L25.2714 19.4521C25.2714 19.3655 25.2356 19.2827 25.172 19.2214C25.1085 19.1601 25.0219 19.1257 24.9318 19.1257H22.3932V17.5867C22.3932 16.8469 22.5766 16.4714 23.5791 16.4714L25.0333 16.4709C25.2207 16.4709 25.3726 16.3248 25.3726 16.1447V13.7021C25.3726 13.5222 25.2209 13.3762 25.0336 13.3759Z" fill="#F2F2F2"/>
<rect x="1" y="1" width="40" height="40" rx="20" stroke="#F2F2F2"/>
</svg>
