<svg width="40" height="34" viewBox="0 0 40 34" fill="none" xmlns="http://www.w3.org/2000/svg">
<path d="M20 0C8.95522 0 0 7.59662 0 17C0 20.6957 1.44989 24.3092 4.05117 27.2657C3.4968 28.3744 2.72921 29.2778 1.70576 29.9348C1.15139 30.3043 0.852879 30.9203 1.02345 31.5362C1.15139 32.1522 1.66311 32.6039 2.34542 32.686C2.98507 32.7681 3.62473 32.8092 4.26439 32.8092C6.26866 32.8092 8.10234 32.3985 9.72281 31.5773C12.8358 33.1787 16.3753 34 20 34C31.0448 34 40 26.3623 40 17C40 7.63768 31.0448 0 20 0ZM20 31.9469C16.5032 31.9469 13.1343 31.1256 10.2345 29.5242C10.064 29.442 9.89339 29.401 9.72281 29.401C9.55224 29.401 9.33902 29.442 9.16844 29.5652C7.67591 30.4275 5.92751 30.8382 4.00853 30.7971C4.98934 29.8937 5.75693 28.785 6.26866 27.4299C6.39659 27.0604 6.3113 26.6498 6.05544 26.3623C3.4968 23.6932 2.1322 20.4493 2.1322 17C2.1322 8.74638 10.1493 2.05314 20 2.05314C29.8507 2.05314 37.8678 8.74638 37.8678 17C37.8678 25.2536 29.8507 31.9469 20 31.9469ZM25.8849 13.099C26.3113 13.5097 26.3113 14.1667 25.8849 14.5362L19.2751 20.901C19.0618 21.1063 18.806 21.1884 18.5075 21.1884C18.2516 21.1884 17.9531 21.1063 17.7399 20.901L14.1151 17.3696C13.6887 16.9589 13.6887 16.3019 14.1151 15.9324C14.5416 15.5217 15.2239 15.5217 15.6077 15.9324L18.5075 18.7246L24.3923 13.099C24.8188 12.6884 25.4584 12.6884 25.8849 13.099Z" fill="black"/>
</svg>
