<svg width="48" height="48" viewBox="0 0 48 48" fill="none" xmlns="http://www.w3.org/2000/svg">
<path d="M16.8394 30.7899L16.8395 30.7894C17.0426 29.8275 17.2549 28.8563 17.4671 27.8855L17.4671 27.8855C17.6794 26.9148 17.8915 25.9444 18.0944 24.9834C18.0944 24.9833 18.0945 24.9831 18.0945 24.9829L18.1923 25.0036C18.2662 24.6337 18.4876 24.2269 18.7829 23.931L22.2897 20.4175L16.8394 30.7899ZM16.8394 30.7899L16.6179 31.8624L16.6178 31.8631C16.5013 32.4463 16.6555 33.0363 17.0511 33.4327C17.368 33.7502 17.8009 33.9058 18.2662 33.9058H18.2735C18.378 33.9059 18.5354 33.9059 18.6607 33.8657L16.8394 30.7899ZM36.0028 9.3852C35.9888 9.39373 35.9585 9.41558 35.9075 9.46671C32.8805 12.5365 29.8536 15.5694 26.79 18.6389L23.6524 21.7826C23.2565 22.1793 22.8609 22.5714 22.467 22.962C21.6841 23.7382 20.9076 24.5081 20.1468 25.295L20.1457 25.2961C20.1144 25.3274 20.0923 25.3574 20.0787 25.3813C20.0719 25.3933 20.0678 25.4027 20.0655 25.4091C20.0648 25.4112 20.0644 25.4127 20.0642 25.4136V25.4208L20.062 25.431C19.8591 26.3922 19.6561 27.3626 19.4532 28.3331L19.453 28.3341C19.25 29.3049 19.0469 30.2758 18.8439 31.2375L36.0028 9.3852ZM36.0028 9.3852H36.0895C36.2544 9.40357 36.415 9.4216 36.5616 9.4483C36.7104 9.47541 36.8379 9.51033 36.9361 9.55953L36.936 9.55979L36.9431 9.56268C38.7251 10.2915 39.9981 11.5651 40.8004 13.3528C40.8727 13.5707 40.9453 13.8254 41.0181 14.1174L41.0178 14.1174L41.0203 14.1247C41.0366 14.1737 41.0448 14.2144 41.054 14.2607L41.0543 14.262C41.0617 14.2992 41.0698 14.34 41.0836 14.3869C41.0714 14.418 41.0599 14.4385 41.0476 14.4558C41.0302 14.4802 41.0089 14.5019 40.9706 14.5403L40.9703 14.5406C38.368 17.1664 35.7473 19.8014 33.1219 22.4412L33.1074 22.4557C30.4869 25.0906 27.8617 27.7301 25.2457 30.3697C25.1827 30.4327 25.1329 30.4512 25.095 30.4512H25.0847L25.0747 30.4533L25.0738 30.4535C23.1183 30.8601 21.1621 31.2669 19.1688 31.7107L18.727 31.7937M36.0028 9.3852L18.727 31.7937M18.727 31.7937L18.8439 31.2376L18.727 31.7937ZM24.4306 15.0808C25.0028 15.0808 25.4534 14.629 25.4534 14.0562C25.4534 13.4834 25.0028 13.0316 24.4306 13.0316H12.7662C11.2342 13.0316 9.97153 14.297 9.97153 15.8314V37.8001C9.97153 39.3346 11.2342 40.6 12.7662 40.6H34.6554C36.1873 40.6 37.4501 39.3346 37.4501 37.8001V26.5569C37.4501 25.9841 36.9994 25.5323 36.4272 25.5323C35.855 25.5323 35.4044 25.9841 35.4044 26.5569V37.7632C35.4044 38.1889 35.0799 38.5138 34.6554 38.5138H12.7662C12.3417 38.5138 12.0172 38.1889 12.0172 37.7632V15.8314C12.0172 15.4057 12.3417 15.0808 12.7662 15.0808H24.4306Z" fill="#0B1940" stroke="#0B1940" stroke-width="0.2"/>
</svg>
