<svg width="41" height="42" viewBox="0 0 41 42" fill="none" xmlns="http://www.w3.org/2000/svg">
<path d="M39.625 21.6802C39.2802 21.1975 39.2802 20.5831 39.625 20.1003L40.3576 19.047C40.9178 18.2132 41.1333 17.1599 40.9178 16.1944C40.7023 15.185 40.0559 14.3511 39.194 13.8683L38.0305 13.2978C37.5134 13.0345 37.2548 12.4639 37.341 11.8934L37.5564 10.6646C37.7288 9.65517 37.4703 8.64577 36.8238 7.8558C36.1774 7.06583 35.2724 6.58307 34.2813 6.53919L33.0315 6.4953C32.4713 6.45141 31.9542 6.10031 31.8249 5.52978L31.4801 4.30094C31.0061 2.721 29.6702 1.7116 28.1188 1.7116C27.6447 1.7116 27.1707 1.79937 26.7398 2.01881L25.5762 2.50157C25.1022 2.721 24.4558 2.54545 24.0679 2.15047L23.2491 1.18495C22.6027 0.438872 21.6546 0 20.6635 0C19.6723 0 18.6811 0.438871 18.0347 1.22884L17.2159 2.19436C16.8712 2.63323 16.2247 2.76489 15.7076 2.54545L14.5441 2.0627C14.1131 1.88715 13.6822 1.79937 13.2081 1.79937C11.6567 1.79937 10.2777 2.85266 9.84677 4.38871L9.50202 5.61755C9.37274 6.18809 8.8556 6.58307 8.29538 6.62696L7.04564 6.71473C6.05447 6.75862 5.10639 7.28527 4.50307 8.07524C3.89975 8.8652 3.64119 9.91849 3.81356 10.884L4.02904 12.1129C4.11523 12.6834 3.85666 13.2539 3.38262 13.5172L2.30526 14.1317C1.44338 14.6144 0.79696 15.4922 0.581488 16.4577C0.366016 17.4671 0.581488 18.4765 1.18481 19.3103L1.91741 20.3197C2.26217 20.8025 2.26217 21.4169 1.91741 21.8997L1.18481 22.953C0.624583 23.7868 0.409111 24.8401 0.624583 25.8056C0.840054 26.815 1.48647 27.6489 2.34836 28.1317L3.42571 28.7461C3.94285 29.0094 4.20141 29.5799 4.11522 30.1505L3.89975 31.3793C3.72738 32.3887 3.98594 33.3981 4.63236 34.1881C5.27877 34.9781 6.18375 35.4608 7.17492 35.5047L8.42466 35.5486C8.98489 35.5925 9.50202 35.9436 9.6313 36.5141L9.97606 37.7429C10.407 39.2351 11.786 40.2884 13.3374 40.2884C13.8115 40.2884 14.2855 40.2006 14.7164 39.9812L15.88 39.4984C16.3971 39.279 17.0004 39.4107 17.3883 39.8495L18.2071 40.815C18.8535 41.5611 19.8016 42 20.7927 42C21.7839 42 22.7751 41.5611 23.4215 40.7712L24.2403 39.8056C24.585 39.3668 25.2315 39.2351 25.7486 39.4545L26.9121 39.9373C27.3431 40.1129 27.774 40.2006 28.2481 40.2006C29.7995 40.2006 31.1785 39.1473 31.6094 37.6113L31.9542 36.3824C32.0835 35.8119 32.6006 35.4169 33.1608 35.373L34.4106 35.2853C35.4017 35.2414 36.3498 34.7147 36.9531 33.9248C37.5564 33.1348 37.815 32.0815 37.6426 31.116L37.4272 29.8871C37.341 29.3166 37.5995 28.7461 38.0736 28.4828L39.1509 27.8683C40.0128 27.3856 40.6592 26.5078 40.8747 25.5423C41.0902 24.5329 40.8747 23.5235 40.2714 22.6897L39.625 21.6802ZM38.8493 25.0596C38.7631 25.4545 38.5476 25.7618 38.2029 25.9373L37.1255 26.5517C35.8327 27.2978 35.1001 28.79 35.4017 30.2821L35.6172 31.511C35.7034 31.906 35.5741 32.3009 35.3586 32.6082C35.1432 32.9154 34.7984 33.0909 34.4106 33.1348L33.1608 33.2226C31.6525 33.3103 30.4028 34.3636 30.0149 35.8119L29.6702 37.0408C29.4978 37.6113 28.9807 38.0502 28.3773 38.0502C28.205 38.0502 28.0326 38.0063 27.8602 37.9624L26.6967 37.4796C26.2657 37.3041 25.8348 37.2163 25.3607 37.2163C24.3696 37.2163 23.3784 37.6552 22.732 38.4451L21.9132 39.4107C21.6546 39.7179 21.3099 39.8934 20.922 39.8934C20.5342 39.8934 20.1894 39.7179 19.9309 39.4545L19.1121 38.489C18.4656 37.7429 17.5176 37.3041 16.5264 37.3041C16.0524 37.3041 15.5783 37.3918 15.1474 37.6113L13.9838 38.094C13.8115 38.1379 13.6391 38.1379 13.4667 38.1379C12.8634 38.1379 12.3462 37.743 12.1739 37.1724L11.8291 35.9436C11.3982 34.4953 10.1484 33.442 8.64013 33.3981L7.43349 33.3542C7.04564 33.3542 6.70089 33.1787 6.44232 32.8715C6.18375 32.5643 6.09756 32.1693 6.18375 31.8182L6.39923 30.5893C6.65779 29.0972 5.92519 27.605 4.58926 26.8589L3.5119 26.2445C3.16715 26.069 2.95168 25.7618 2.86549 25.3668C2.7793 24.9718 2.86549 24.5768 3.08096 24.2696L3.81356 23.2163C4.67545 21.9875 4.67545 20.3197 3.77047 19.0909L3.03787 18.0815C2.82239 17.7743 2.73621 17.3793 2.82239 16.9843C2.90858 16.5893 3.12405 16.2821 3.46881 16.1066L4.54617 15.4922C5.839 14.7461 6.5716 13.2539 6.26994 11.7618L6.01138 10.489C5.92519 10.094 6.05447 9.69906 6.26994 9.39185C6.52851 9.08464 6.83017 8.90909 7.21802 8.8652L8.46775 8.77743C9.97606 8.68966 11.2258 7.63636 11.6136 6.18809L11.9584 4.95925C12.1308 4.38871 12.6479 3.94984 13.2512 3.94984C13.4236 3.94984 13.596 3.99373 13.7684 4.03762L14.9319 4.52038C15.3629 4.69592 15.7938 4.7837 16.2678 4.7837C17.259 4.7837 18.2502 4.34483 18.8966 3.55486L19.7154 2.58934C19.9739 2.28213 20.3187 2.10658 20.7065 2.10658C21.0944 2.10658 21.4392 2.28213 21.6977 2.54545L22.5165 3.51097C23.1629 4.25705 24.111 4.69592 25.1022 4.69592C25.5762 4.69592 26.0502 4.60815 26.4812 4.38871L27.6447 3.90596C27.774 3.90596 27.9464 3.90596 28.1188 3.90596C28.7221 3.90596 29.2392 4.30094 29.4116 4.87147L29.7564 6.10031C30.1873 7.54859 31.437 8.60188 32.9453 8.64577L34.1951 8.68966C34.5829 8.68966 34.9277 8.8652 35.1863 9.17241C35.4448 9.47962 35.531 9.87461 35.4448 10.2257L35.2293 11.4545C34.9708 12.9467 35.7034 14.4389 37.0393 15.185L38.1167 15.7994C38.4614 15.9749 38.6769 16.2821 38.7631 16.6771C38.8493 17.0721 38.7631 17.4671 38.5476 17.7743L37.8581 18.8276C36.9962 20.0564 36.9962 21.7241 37.9012 22.953L38.6338 23.9624C38.8493 24.3135 38.8924 24.6646 38.8493 25.0596ZM26.6809 16.1944C27.1118 16.6332 27.1118 17.3354 26.6809 17.7304L20.017 24.4451C19.8016 24.6646 19.543 24.7523 19.2413 24.7523C18.9397 24.7523 18.6811 24.6207 18.4656 24.4451L14.6857 20.627C14.2548 20.1881 14.2548 19.4859 14.6857 19.0909C15.1167 18.652 15.8062 18.652 16.194 19.0909L19.1982 22.163L25.0864 16.2382C25.6035 15.7555 26.2499 15.7555 26.6809 16.1944Z" fill="black"/>
</svg>
