<svg width="1417" height="355" viewBox="0 0 1417 355" fill="none" xmlns="http://www.w3.org/2000/svg">
<path d="M1347 55.0244C1344.8 55.0244 1343 53.2407 1343 51.0542C1343 48.8677 1344.8 47.084 1347 47.084C1349.2 47.084 1351 48.8677 1351 51.0542C1351 53.2407 1349.2 55.0244 1347 55.0244Z" fill="white"/>
<path d="M1403 28.2261C1395.29 28.2261 1389 21.9831 1389 14.3304C1389 6.6776 1395.29 0.43457 1403 0.43457C1410.71 0.43457 1417 6.6776 1417 14.3304C1417 21.9831 1410.71 28.2261 1403 28.2261ZM1403 5.40213C1398.06 5.40213 1394.07 9.36276 1394.07 14.2632C1394.07 19.1637 1398.06 23.1243 1403 23.1243C1407.94 23.1243 1411.93 19.1637 1411.93 14.2632C1411.93 9.36276 1407.94 5.40213 1403 5.40213Z" fill="white"/>
<path d="M27.4997 407.965C-10.7756 407.965 -42 376.973 -42 338.983C-42 300.992 -10.7756 270 27.4997 270C65.7751 270 97 300.992 97 338.983C97 376.973 65.7751 407.965 27.4997 407.965ZM27.4997 294.66C2.99008 294.66 -16.8188 314.322 -16.8188 338.649C-16.8188 362.976 2.99008 382.638 27.4997 382.638C52.0094 382.638 71.8188 362.976 71.8188 338.649C71.8188 314.322 52.0094 294.66 27.4997 294.66Z" fill="white"/>
<path d="M1208 270.409C1204.14 270.409 1201 267.288 1201 263.462C1201 259.635 1204.14 256.514 1208 256.514C1211.86 256.514 1215 259.635 1215 263.462C1215 267.288 1211.86 270.409 1208 270.409ZM1208 258.997C1205.53 258.997 1203.54 260.978 1203.54 263.428C1203.54 265.878 1205.53 267.859 1208 267.859C1210.47 267.859 1212.46 265.878 1212.46 263.428C1212.46 260.978 1210.47 258.997 1208 258.997Z" fill="#0759E4"/>
<path d="M295.5 23.2634C289.167 23.2634 284 18.1351 284 11.849C284 5.56277 289.167 0.43457 295.5 0.43457C301.833 0.43457 307 5.56277 307 11.849C307 18.1351 301.833 23.2634 295.5 23.2634ZM295.5 4.51507C291.444 4.51507 288.167 7.76844 288.167 11.7938C288.167 15.8192 291.444 19.0725 295.5 19.0725C299.556 19.0725 302.833 15.8192 302.833 11.7938C302.833 7.76844 299.556 4.51507 295.5 4.51507Z" fill="#FFCE57" fill-opacity="0.8"/>
</svg>
