<svg width="1311" height="641" viewBox="0 0 1311 641" fill="none" xmlns="http://www.w3.org/2000/svg">
<path d="M157.5 27C150.065 27 144 20.9348 144 13.5C144 6.06522 150.065 0 157.5 0C164.935 0 171 6.06522 171 13.5C171 20.9348 164.935 27 157.5 27ZM157.5 4.82607C152.739 4.82607 148.891 8.6739 148.891 13.4348C148.891 18.1956 152.739 22.0435 157.5 22.0435C162.261 22.0435 166.109 18.1956 166.109 13.4348C166.109 8.6739 162.261 4.82607 157.5 4.82607Z" fill="#5AA5FE"/>
<path d="M1298.5 641C1291.62 641 1286 635.384 1286 628.5C1286 621.616 1291.62 616 1298.5 616C1305.38 616 1311 621.616 1311 628.5C1311 635.384 1305.38 641 1298.5 641ZM1298.5 620.469C1294.09 620.469 1290.53 624.031 1290.53 628.44C1290.53 632.848 1294.09 636.411 1298.5 636.411C1302.91 636.411 1306.47 632.848 1306.47 628.44C1306.47 624.031 1302.91 620.469 1298.5 620.469Z" fill="#5AA5FE"/>
<path d="M3.99999 18C1.79709 18 0 16.2029 0 14C0 11.7971 1.79709 10 3.99999 10C6.20288 10 8 11.7971 8 14C8 16.2029 6.20288 18 3.99999 18Z" fill="#121936"/>
<path d="M1179 127C1176.8 127 1175 125.203 1175 123C1175 120.797 1176.8 119 1179 119C1181.2 119 1183 120.797 1183 123C1183 125.203 1181.2 127 1179 127Z" fill="#121936"/>
<path d="M16 247C9.39126 247 4 241.609 4 235C4 228.391 9.39126 223 16 223C22.6087 223 28 228.391 28 235C28 241.609 22.6087 247 16 247ZM16 227.29C11.7681 227.29 8.34783 230.71 8.34783 234.942C8.34783 239.174 11.7681 242.594 16 242.594C20.2318 242.594 23.6522 239.174 23.6522 234.942C23.6522 230.71 20.2318 227.29 16 227.29Z" fill="#FFCE57"/>
</svg>
