<svg width="33" height="30" viewBox="0 0 33 30" fill="none" xmlns="http://www.w3.org/2000/svg">
<path d="M17.9255 7C17.4141 7 17 7.41415 17 7.92511V17.4211C17 17.932 17.4141 18.3458 17.9255 18.3458H22.9063C23.4173 18.3458 23.8314 17.932 23.8314 17.4211C23.8314 16.9101 23.4173 16.496 22.9063 16.496H18.8502V7.92511C18.8502 7.41415 18.4361 7 17.9255 7Z" fill="#0759E4"/>
<path d="M3.49678 15.9662C3.66281 16.1658 3.90578 16.2861 4.16531 16.2979C4.1793 16.2987 4.19329 16.299 4.20728 16.299C4.45209 16.299 4.68732 16.2018 4.86108 16.0281L8.47392 12.4156C8.83506 12.0545 8.83506 11.4688 8.47392 11.1076C8.11315 10.7465 7.52709 10.7465 7.16595 11.1076L5.26676 13.0065C6.16795 6.70773 11.5957 1.84949 18.14 1.84949C25.3123 1.84949 31.1479 7.68438 31.1479 14.8563C31.1479 22.0279 25.3123 27.8628 18.14 27.8628C13.5394 27.8628 9.23559 25.3937 6.90716 21.419C6.64909 20.9783 6.08328 20.8307 5.64152 21.0892C5.20086 21.3472 5.05251 21.9138 5.31094 22.3548C7.96995 26.8939 12.8856 29.713 18.14 29.713C26.3327 29.713 32.9977 23.0483 32.9977 14.8567C32.9977 6.66502 26.3327 0 18.14 0C10.5877 0 4.33833 5.66591 3.40696 12.9689L1.63551 10.8422C1.30861 10.4498 0.72549 10.3968 0.333061 10.7233C-0.0593669 11.0502 -0.112746 11.6333 0.214155 12.0261L3.49678 15.9662Z" fill="#0759E4"/>
</svg>
