<svg width="610" height="321" viewBox="0 0 610 321" fill="none" xmlns="http://www.w3.org/2000/svg">
<path d="M52.3717 319.844C52.3717 319.844 -20.4948 243.642 40.044 161.146C93.7544 87.9579 156.378 92.9576 202.321 122.644C221.89 135.299 278.304 124.206 326.332 49.7231C391.82 -51.8567 618.806 9.74741 577.423 166.034C557.396 241.656 638.374 244.401 597.106 320L52.3717 319.844Z" fill="#DBEEFF"/>
<path d="M608.606 320.157H0.691243C0.312174 320.157 0 319.845 0 319.466V319.221C0 318.841 0.312174 318.529 0.691243 318.529H608.606C608.985 318.529 609.297 318.841 609.297 319.221V319.466C609.297 319.867 608.985 320.157 608.606 320.157Z" fill="#0B1940"/>
<path d="M414.277 318.775H287.735C283.766 318.775 280.511 315.519 280.511 311.55V58.5105C280.511 54.5414 283.766 51.2859 287.735 51.2859H414.277C418.246 51.2859 421.502 54.5414 421.502 58.5105V311.572C421.502 315.541 418.246 318.775 414.277 318.775Z" fill="#1670FD"/>
<path d="M428.95 58.5105V311.572C428.95 315.541 425.694 318.775 421.725 318.775H295.183C291.214 318.775 287.981 315.519 287.981 311.572V58.5105C287.981 54.5414 291.214 51.2859 295.183 51.2859H421.725C425.694 51.2859 428.95 54.5414 428.95 58.5105Z" fill="#5BA6FF"/>
<path opacity="0.4" d="M379.113 61.4093H342.455C341.675 61.4093 341.028 60.7627 341.028 59.9823C341.028 59.2018 341.675 58.5552 342.455 58.5552H379.113C379.894 58.5552 380.541 59.2018 380.541 59.9823C380.541 60.7627 379.916 61.4093 379.113 61.4093Z" fill="#1A71F5"/>
<path opacity="0.4" d="M335.966 61.4093C335.186 61.4093 334.539 60.7627 334.539 59.9823C334.539 59.2018 335.186 58.5552 335.966 58.5552C336.747 58.5552 337.393 59.2018 337.393 59.9823C337.393 60.7627 336.747 61.4093 335.966 61.4093Z" fill="#1A71F5"/>
<path d="M369.414 304.013C369.414 306.533 368.388 308.83 366.738 310.48C365.066 312.152 362.769 313.2 360.205 313.2C355.121 313.2 351.018 309.075 351.018 304.013C351.018 300.758 352.712 297.881 355.277 296.254C356.704 295.339 358.398 294.827 360.205 294.827C365.289 294.804 369.414 298.929 369.414 304.013Z" fill="#95C0F4"/>
<path d="M421.413 67.7642H296.41V290.277H421.413V67.7642Z" fill="#EEF6FF"/>
<path d="M366.738 310.48C365.066 312.152 362.769 313.2 360.205 313.2C355.121 313.2 351.018 309.075 351.018 304.013C351.018 300.758 352.712 297.881 355.277 296.253C356.191 300.156 358.844 306.711 366.738 310.48Z" fill="#8CBAF1"/>
<path opacity="0.9" d="M376.215 184.74H375.992H330.861H285.506C284.726 184.74 284.101 185.788 284.101 187.059V261.446C284.101 262.717 284.726 263.765 285.506 263.765H330.861H375.992H376.215C376.996 263.765 377.62 262.717 377.62 261.446V187.059C377.62 185.788 376.996 184.74 376.215 184.74Z" fill="#B9D9FF"/>
<path d="M389.483 181.351V255.738C389.483 257.009 388.435 258.057 387.164 258.057H236.54C235.246 258.057 234.198 257.009 234.198 255.738V181.351C234.198 180.08 235.246 179.032 236.54 179.032H387.164C388.435 179.032 389.483 180.08 389.483 181.351Z" fill="#FFF1C3"/>
<path d="M389.324 181.319V255.706C389.324 256.977 388.276 258.025 387.005 258.025H319.999V179H387.005C388.276 179 389.324 180.048 389.324 181.319Z" fill="#FFD753"/>
<path d="M355.003 236.405C345.072 236.405 337 228.332 337 218.402C337 208.471 345.072 200.399 355.003 200.399C364.934 200.399 373.006 208.471 373.006 218.402C372.989 228.332 364.916 236.405 355.003 236.405ZM355.003 202.516C346.242 202.516 339.117 209.641 339.117 218.402C339.117 227.162 346.242 234.288 355.003 234.288C363.763 234.288 370.889 227.162 370.889 218.402C370.889 209.641 363.763 202.516 355.003 202.516Z" fill="#F4F9FE"/>
<path d="M354.986 229.692C353.953 229.692 353.007 229.141 352.49 228.264L344.849 215.2C344.04 213.823 344.504 212.033 345.881 211.224C347.258 210.416 349.048 210.88 349.857 212.257L354.762 220.639L363.988 201.638C364.693 200.192 366.432 199.59 367.86 200.295C369.306 201.001 369.908 202.739 369.203 204.168L357.602 228.04C357.138 229.004 356.174 229.623 355.107 229.675C355.072 229.675 355.038 229.692 354.986 229.692Z" fill="#F4F9FE"/>
<g clip-path="url(#clip0_1_1291)">
<path d="M278.836 195.693C278.836 195.693 269.578 195.584 266.42 203.644C263.261 211.649 266.91 215.516 268.326 217.912C269.742 220.254 273.554 225.427 273.608 230.219L285.97 230.11C285.97 230.11 286.623 224.175 290.327 218.021C294.03 211.867 293.594 207.347 292.559 204.679C291.525 202.01 288.257 195.312 278.836 195.693Z" fill="#FFD753"/>
<path d="M281.67 229.784L281.564 229.89L281.82 230.146L281.82 229.784L281.67 229.784ZM281.67 229.784C281.82 229.784 281.82 229.784 281.82 229.784V229.783L281.82 229.783L281.82 229.783L281.82 229.781L281.82 229.779L281.82 229.772C281.819 229.768 281.819 229.762 281.818 229.756C281.817 229.744 281.815 229.727 281.81 229.707C281.803 229.669 281.79 229.616 281.766 229.542M281.67 229.784C281.564 229.89 281.564 229.89 281.564 229.89L281.564 229.889L281.563 229.889L281.563 229.888L281.561 229.887L281.559 229.884L281.552 229.876C281.547 229.871 281.542 229.864 281.537 229.856C281.526 229.84 281.514 229.818 281.504 229.792C281.484 229.743 281.469 229.677 281.466 229.591L281.466 229.59V229.566C281.466 229.529 281.455 229.462 281.435 229.366C281.415 229.274 281.389 229.167 281.361 229.058L281.359 229.048L281.358 229.038C281.304 228.552 281.195 227.793 281.032 226.869L281.031 226.864L281.032 226.864C280.759 224.957 280.377 222.175 280.159 218.738L280.159 218.738L280.159 218.737C280.104 217.866 280.05 216.991 280.05 216.006C280.05 215.709 280.044 215.403 280.038 215.09C280.032 214.772 280.026 214.445 280.026 214.113C279.832 214.124 279.638 214.133 279.444 214.141L279.437 214.141V214.141H279.431C278.625 214.141 277.813 214.141 277.012 214.089C277.085 215.588 277.13 217.017 277.172 218.328C277.178 218.535 277.185 218.739 277.191 218.941C277.354 222.37 277.463 225.148 277.518 227.055C277.572 228.038 277.572 228.749 277.572 229.293V229.294V229.295V229.297V229.298V229.3V229.302V229.303V229.305V229.306V229.308V229.309V229.311V229.313V229.314V229.316V229.317V229.319V229.32V229.322V229.323V229.325V229.327V229.328V229.33V229.331V229.333V229.334V229.336V229.337V229.339V229.34V229.342V229.343V229.345V229.346V229.348V229.349V229.351V229.352V229.354V229.355V229.357V229.358V229.36V229.361V229.363V229.364V229.366V229.367V229.369V229.37V229.372V229.373V229.375V229.376V229.378V229.379V229.381V229.382V229.384V229.385V229.386V229.388V229.389V229.391V229.392V229.394V229.395V229.397V229.398V229.399V229.401V229.402V229.404V229.405V229.407V229.408V229.409V229.411V229.412V229.414V229.415V229.416V229.418V229.419V229.421V229.422V229.423V229.425V229.426V229.428V229.429V229.43V229.432V229.433V229.435V229.436V229.437V229.439V229.44V229.441V229.443V229.444V229.446V229.447V229.448V229.45V229.451V229.452V229.454V229.455V229.456V229.458V229.459V229.46V229.462V229.463V229.464V229.466V229.467V229.468V229.47V229.471V229.472V229.474V229.475V229.476V229.478V229.479V229.48V229.482V229.483V229.484V229.486V229.487V229.488V229.49V229.491V229.492V229.493V229.495V229.496V229.497V229.499V229.5V229.501V229.502V229.504V229.505V229.506V229.508V229.509V229.51V229.511V229.513V229.514V229.515V229.516V229.518V229.519V229.52V229.522V229.523V229.524V229.525V229.527V229.528V229.529V229.53V229.532V229.533V229.534V229.535V229.536V229.538V229.539V229.54V229.541V229.543V229.544V229.545V229.546V229.548V229.549V229.55V229.551V229.552V229.554V229.555V229.556V229.557V229.559V229.56V229.561V229.562V229.563V229.565V229.566V229.567V229.568V229.569V229.571V229.572V229.573V229.574V229.575V229.576V229.578V229.579V229.58V229.581V229.582V229.584V229.585V229.586V229.587V229.588V229.589V229.591V229.592V229.593V229.594V229.595V229.596V229.598V229.599V229.6V229.601V229.602V229.603V229.604V229.606V229.607V229.608V229.609V229.61V229.611V229.612V229.614V229.615V229.616V229.617V229.618V229.619V229.62V229.622V229.623V229.624V229.625V229.626V229.627V229.628V229.629V229.631V229.632V229.633V229.634V229.635V229.636V229.637V229.638V229.64V229.641V229.642V229.643V229.644V229.645V229.646V229.647V229.648V229.649V229.651V229.652V229.653V229.654V229.655V229.656V229.657V229.658V229.659V229.66V229.661V229.663V229.664V229.665V229.666V229.667V229.668V229.669V229.67V229.671V229.672V229.673V229.674V229.676V229.677V229.678V229.679V229.68V229.681V229.682V229.683V229.684V229.685V229.686V229.687V229.688V229.689V229.69V229.692V229.693V229.694V229.695V229.696V229.697V229.698V229.699V229.7V229.701V229.702V229.703V229.704V229.705V229.706V229.707V229.708V229.709V229.71V229.711V229.712V229.714V229.715V229.716V229.717V229.718V229.719V229.72V229.721V229.722V229.723V229.724V229.725V229.726V229.727V229.728V229.729V229.73V229.731V229.732V229.733V229.734V229.735V229.736V229.737V229.738V229.739V229.74V229.741V229.742V229.743V229.744V229.745V229.746V229.747V229.748V229.749V229.75V229.751V229.752V229.753V229.754V229.755V229.756V229.757V229.758V229.759V229.76V229.761V229.762V229.763V229.764V229.765V229.766V229.767V229.768V229.769V229.77V229.771V229.772V229.773V229.774V229.775V229.776V229.777V229.778V229.779V229.78V229.781V229.782V229.783V229.784V229.785V229.786V229.787V229.788V229.789V229.79V229.791V229.792V229.793V229.794V229.795V229.796V229.797V229.798V229.799V229.8V229.801V229.802V229.803V229.804V229.805V229.806V229.807V229.808V229.809V229.81V229.811V229.812V229.813V229.814V229.815V229.816V229.817V229.818V229.819V229.82V229.82V229.821V229.822V229.823V229.824V229.825V229.826V229.827V229.828V229.829V229.83V229.831V229.832V229.833V229.834V229.835V229.836V229.837V229.838V229.839V229.84V229.841V229.842V229.843V229.844V229.845V229.846V229.847V229.848V229.849V229.849V229.85V229.851V229.852V229.853V229.854V229.855V229.856V229.857V229.858V229.859V229.86V229.861V229.862V229.863V229.864V229.865V229.866V229.867V229.868V229.869V229.87V229.871V229.872V229.873V229.873V229.874V229.875V229.876V229.877V229.878V229.879V229.88V229.881V229.882V229.883V229.884V229.885V229.886V229.887V229.888V229.889V229.89V229.891V229.892V229.893V229.893V229.894V229.894V229.895V229.895V229.895V229.896V229.896V229.896V229.897V229.897V229.898V229.898V229.898V229.899V229.899V229.9V229.9V229.9V229.901V229.901V229.902V229.902V229.902V229.903V229.903V229.903V229.904V229.904V229.905V229.905V229.905V229.906V229.906V229.907V229.907V229.907V229.908V229.908V229.909V229.909V229.909V229.909V229.91V229.91V229.91V229.911V229.911V229.912V229.912V229.912V229.913V229.913V229.914V229.914V229.914V229.915V229.915V229.916V229.916V229.916V229.917V229.917V229.917V229.918V229.918V229.918V229.919V229.919V229.919V229.92V229.92V229.921V229.921V229.921V229.922V229.922V229.923V229.923V229.923V229.924V229.924V229.924V229.925V229.925V229.925V229.926V229.926V229.926V229.927V229.927V229.928V229.928V229.928V229.929V229.929V229.929V229.93V229.93V229.931V229.931V229.931V229.932V229.932V229.932V229.933V229.933V229.933V229.934V229.934V229.935V229.935V229.935V229.936V229.936V229.936V229.937V229.937V229.937V229.938V229.938V229.939V229.939V229.94V229.94V229.94V229.941V229.941V229.941V229.942V229.942V229.942V229.943V229.943V229.943V229.944V229.944V229.945V229.945V229.945V229.946V229.946V229.946V229.946V229.947V229.947V229.948V229.948V229.948V229.949V229.949V229.949V229.95V229.95V229.95V229.951V229.951V229.951V229.952V229.952V229.953V229.953V229.953V229.954V229.954V229.954V229.954V229.955V229.955V229.956V229.956V229.956V229.957V229.957V229.957V229.958V229.958V229.958V229.959V229.959V229.959V229.96V229.961V229.961V229.961V229.961V229.962V229.962V229.962V229.963V229.964V229.964V229.964V229.964V229.965V229.965V229.965V229.966V229.967V229.967V229.967V229.967V229.968V229.968V229.968V229.969V229.969V229.97V229.97V229.97V229.97V229.971V229.971V229.971V229.972V229.972V229.973V229.973V229.973V229.973V229.974V229.974V229.974V229.975V229.975V229.976V229.976V229.976V229.976V229.977V229.977V229.977V229.978V229.978V229.978V229.979V229.979V229.98V229.98V229.98V229.981V229.981V229.981V229.982V229.982V229.982V229.983V229.983V229.983V229.984V229.984V229.984V229.985V229.985V229.985V229.986V229.986V229.986V229.987V229.987V229.987V229.988V229.988V229.988V229.989V229.989V229.989V229.99V229.99V229.99V229.991V229.991V229.991V229.992V229.992V229.992V229.993V229.993V229.993V229.994V229.994V229.994V229.995V229.995V229.995V229.996V229.996V229.996V229.997V229.997V229.997V229.998V229.998V229.998V229.998V229.999V229.999V229.999V229.999V230V230V230.001V230.001V230.001V230.001V230.002V230.002V230.002V230.003V230.003V230.003V230.004V230.004V230.004V230.005V230.005V230.005V230.006V230.006V230.006V230.006V230.007V230.007V230.007V230.008V230.008V230.008V230.009V230.009V230.009V230.01V230.01V230.01V230.011V230.011V230.011V230.011V230.012V230.012V230.012V230.013V230.013V230.013V230.013V230.014V230.014V230.014V230.015V230.015V230.015V230.016V230.016V230.016V230.016V230.017V230.017V230.017V230.018V230.018V230.018V230.018V230.019V230.019V230.019V230.02V230.02V230.02V230.021V230.021V230.021V230.021V230.022V230.022V230.022V230.022V230.023V230.023V230.023V230.024V230.024V230.024V230.024V230.025V230.025V230.025V230.025V230.026V230.026V230.026V230.026V230.027V230.027V230.027V230.027V230.028V230.029V230.029V230.029V230.029V230.03V230.03V230.03V230.03V230.031V230.031V230.031V230.031V230.032V230.032V230.032V230.032V230.033V230.033V230.033V230.033V230.034V230.034V230.034V230.034V230.035V230.035V230.035V230.035V230.036V230.036V230.036V230.036V230.037V230.037V230.037V230.037V230.038V230.038V230.038V230.038V230.039V230.039V230.039V230.039V230.04V230.04V230.04V230.041V230.041V230.041V230.041V230.042V230.042V230.042V230.042V230.043V230.043V230.043V230.043V230.044V230.044V230.044V230.044V230.045V230.045V230.045V230.045V230.046V230.046V230.046V230.046V230.047V230.047V230.047V230.047V230.048V230.048V230.048V230.048V230.048V230.049V230.049V230.049V230.049V230.05V230.05V230.05V230.05V230.05V230.051V230.051V230.051V230.051V230.052V230.052V230.052V230.052V230.053V230.053V230.053V230.053V230.053V230.054V230.054V230.054V230.054V230.054V230.055V230.055V230.055V230.055V230.056V230.056V230.056V230.056V230.057V230.057V230.057V230.058V230.058V230.058V230.058V230.059V230.059V230.059V230.059V230.06V230.06V230.06V230.06V230.06V230.06V230.061V230.061V230.061V230.061V230.062V230.062V230.062V230.062V230.062V230.063V230.063V230.063V230.063V230.063V230.064V230.064V230.064V230.064V230.064V230.065V230.065V230.065V230.065V230.065V230.066V230.066V230.066V230.066V230.066V230.067V230.067V230.067V230.067V230.068V230.068V230.068V230.068V230.069V230.069V230.069V230.069V230.069V230.069V230.07V230.07V230.07V230.07V230.07V230.071V230.071V230.071V230.071V230.071V230.071V230.072V230.072V230.072V230.072V230.073V230.073V230.073V230.073V230.073V230.074V230.074V230.074V230.074V230.074V230.074V230.075V230.075V230.075V230.075V230.075V230.076V230.076V230.076V230.076V230.076V230.076V230.077V230.077V230.077V230.077V230.077V230.078V230.078V230.078V230.078V230.078V230.078V230.079V230.079V230.079V230.079V230.079V230.079V230.08V230.08V230.08V230.08V230.08V230.08V230.081V230.081V230.081V230.081V230.081V230.081V230.082V230.082V230.082V230.082V230.082V230.082V230.083V230.083V230.083V230.083V230.083V230.083V230.084V230.084V230.084V230.084V230.084V230.084V230.085V230.085V230.085V230.085V230.085V230.085V230.085V230.086V230.086V230.086V230.086V230.086V230.086V230.087V230.087V230.087V230.087V230.087V230.087V230.087V230.088V230.088V230.088V230.088V230.088V230.088V230.089V230.089V230.089V230.089V230.089V230.089V230.089V230.09V230.09V230.09V230.09V230.09V230.09V230.09V230.091V230.091V230.091V230.091V230.091V230.091V230.091V230.092V230.092V230.092V230.092V230.092V230.092V230.092V230.093V230.093V230.093V230.093V230.093V230.093V230.093V230.094V230.094V230.094V230.094V230.094V230.094V230.094V230.094V230.094V230.095V230.095V230.095V230.095V230.095V230.095V230.095V230.095V230.095V230.096V230.096V230.096V230.096V230.096V230.096V230.096V230.097V230.097V230.097V230.097V230.097V230.097V230.097V230.097V230.098V230.098V230.098V230.098V230.098V230.098V230.098V230.098V230.098V230.098V230.099V230.099V230.099V230.099V230.099V230.099V230.099V230.099V230.099V230.1V230.1V230.1V230.1V230.1V230.1V230.1V230.1V230.1V230.1V230.101V230.101V230.101V230.101V230.101V230.101V230.101V230.101V230.101V230.101V230.102V230.102V230.102V230.102V230.102V230.102V230.102V230.102V230.102V230.102V230.103V230.103V230.103V230.103V230.103V230.103V230.103V230.103V230.103V230.103V230.103V230.104V230.104V230.104V230.104V230.104V230.104V230.104V230.104V230.104V230.104V230.104V230.104V230.104V230.105V230.105V230.105V230.105V230.105V230.105V230.105V230.105V230.105V230.105V230.105V230.105V230.105V230.106V230.106V230.106V230.106V230.106V230.106V230.106V230.106V230.106V230.106V230.106V230.106V230.106V230.106V230.107V230.107V230.107V230.107V230.107V230.107V230.107V230.107V230.107V230.107V230.107V230.107V230.107V230.107V230.107V230.108V230.108V230.108V230.108V230.108V230.108V230.108V230.108V230.108V230.108V230.108V230.108V230.108V230.108V230.108V230.108V230.108V230.109V230.109V230.109V230.109V230.109V230.109V230.109V230.109V230.109V230.109V230.109V230.109V230.109V230.109V230.109V230.109V230.109V230.109V230.109V230.109V230.109V230.11V230.11V230.11V230.11V230.11V230.11V230.11V230.11V230.11V230.11V230.11V230.11V230.11V230.11V230.11V230.11V230.11V230.11V230.11V230.11V230.11V230.11V230.11V230.11V230.11V230.11V230.11V230.11V230.11V230.11V230.11L277.422 230.11L277.272 230.11V230.11V230.11V230.11V230.11V230.11V230.11V230.11V230.11V230.11V230.11V230.11V230.11V230.11V230.11V230.11V230.11V230.11V230.11V230.11V230.11V230.11V230.11V230.11V230.11V230.11V230.11V230.11V230.11V230.11V230.11V230.11V230.109V230.109V230.109V230.109V230.109V230.109V230.109V230.109V230.109V230.109V230.109V230.109V230.109V230.109V230.109V230.109V230.109V230.109V230.109V230.109V230.109V230.108V230.108V230.108V230.108V230.108V230.108V230.108V230.108V230.108V230.108V230.108V230.108V230.108V230.108V230.108V230.108V230.108V230.107V230.107V230.107V230.107V230.107V230.107V230.107V230.107V230.107V230.107V230.107V230.107V230.107V230.107V230.107V230.106V230.106V230.106V230.106V230.106V230.106V230.106V230.106V230.106V230.106V230.106V230.106V230.106V230.106V230.105V230.105V230.105V230.105V230.105V230.105V230.105V230.105V230.105V230.105V230.105V230.105V230.105V230.104V230.104V230.104V230.104V230.104V230.104V230.104V230.104V230.104V230.104V230.104V230.104V230.104V230.103V230.103V230.103V230.103V230.103V230.103V230.103V230.103V230.103V230.103V230.103V230.102V230.102V230.102V230.102V230.102V230.102V230.102V230.102V230.102V230.102V230.101V230.101V230.101V230.101V230.101V230.101V230.101V230.101V230.101V230.101V230.1V230.1V230.1V230.1V230.1V230.1V230.1V230.1V230.1V230.1V230.099V230.099V230.099V230.099V230.099V230.099V230.099V230.099V230.099V230.098V230.098V230.098V230.098V230.098V230.098V230.098V230.098V230.098V230.098V230.097V230.097V230.097V230.097V230.097V230.097V230.097V230.097V230.096V230.096V230.096V230.096V230.096V230.096V230.096V230.095V230.095V230.095V230.095V230.095V230.095V230.095V230.095V230.095V230.094V230.094V230.094V230.094V230.094V230.094V230.094V230.094V230.094V230.093V230.093V230.093V230.093V230.093V230.093V230.093V230.092V230.092V230.092V230.092V230.092V230.092V230.092V230.091V230.091V230.091V230.091V230.091V230.091V230.091V230.09V230.09V230.09V230.09V230.09V230.09V230.09V230.089V230.089V230.089V230.089V230.089V230.089V230.089V230.088V230.088V230.088V230.088V230.088V230.088V230.087V230.087V230.087V230.087V230.087V230.087V230.087V230.086V230.086V230.086V230.086V230.086V230.086V230.085V230.085V230.085V230.085V230.085V230.085V230.085V230.084V230.084V230.084V230.084V230.084V230.084V230.083V230.083V230.083V230.083V230.083V230.083V230.082V230.082V230.082V230.082V230.082V230.082V230.081V230.081V230.081V230.081V230.081V230.081V230.08V230.08V230.08V230.08V230.08V230.08V230.079V230.079V230.079V230.079V230.079V230.079V230.078V230.078V230.078V230.078V230.078V230.078V230.077V230.077V230.077V230.077V230.077V230.076V230.076V230.076V230.076V230.076V230.076V230.075V230.075V230.075V230.075V230.075V230.074V230.074V230.074V230.074V230.074V230.074V230.073V230.073V230.073V230.073V230.073V230.072V230.072V230.072V230.072V230.071V230.071V230.071V230.071V230.071V230.071V230.07V230.07V230.07V230.07V230.07V230.069V230.069V230.069V230.069V230.069V230.069V230.068V230.068V230.068V230.068V230.067V230.067V230.067V230.067V230.066V230.066V230.066V230.066V230.066V230.065V230.065V230.065V230.065V230.065V230.064V230.064V230.064V230.064V230.064V230.063V230.063V230.063V230.063V230.063V230.062V230.062V230.062V230.062V230.062V230.061V230.061V230.061V230.061V230.06V230.06V230.06V230.06V230.06V230.06V230.059V230.059V230.059V230.059V230.058V230.058V230.058V230.058V230.057V230.057V230.057V230.056V230.056V230.056V230.056V230.055V230.055V230.055V230.055V230.054V230.054V230.054V230.054V230.054V230.053V230.053V230.053V230.053V230.053V230.052V230.052V230.052V230.052V230.051V230.051V230.051V230.051V230.05V230.05V230.05V230.05V230.05V230.049V230.049V230.049V230.049V230.048V230.048V230.048V230.048V230.048V230.047V230.047V230.047V230.047V230.046V230.046V230.046V230.046V230.045V230.045V230.045V230.045V230.044V230.044V230.044V230.044V230.043V230.043V230.043V230.043V230.042V230.042V230.042V230.042V230.041V230.041V230.041V230.041V230.04V230.04V230.04V230.039V230.039V230.039V230.039V230.038V230.038V230.038V230.038V230.037V230.037V230.037V230.037V230.036V230.036V230.036V230.036V230.035V230.035V230.035V230.035V230.034V230.034V230.034V230.034V230.033V230.033V230.033V230.033V230.032V230.032V230.032V230.032V230.031V230.031V230.031V230.031V230.03V230.03V230.03V230.03V230.029V230.029V230.029V230.029V230.028V230.027V230.027V230.027V230.027V230.026V230.026V230.026V230.026V230.025V230.025V230.025V230.025V230.024V230.024V230.024V230.024V230.023V230.023V230.023V230.022V230.022V230.022V230.022V230.021V230.021V230.021V230.021V230.02V230.02V230.02V230.019V230.019V230.019V230.018V230.018V230.018V230.018V230.017V230.017V230.017V230.016V230.016V230.016V230.016V230.015V230.015V230.015V230.014V230.014V230.014V230.013V230.013V230.013V230.013V230.012V230.012V230.012V230.011V230.011V230.011V230.011V230.01V230.01V230.01V230.009V230.009V230.009V230.008V230.008V230.008V230.007V230.007V230.007V230.006V230.006V230.006V230.006V230.005V230.005V230.005V230.004V230.004V230.004V230.003V230.003V230.003V230.002V230.002V230.002V230.001V230.001V230.001V230.001V230V230V229.999V229.999V229.999V229.999V229.998V229.998V229.998V229.998V229.997V229.997V229.997V229.996V229.996V229.996V229.995V229.995V229.995V229.994V229.994V229.994V229.993V229.993V229.993V229.992V229.992V229.992V229.991V229.991V229.991V229.99V229.99V229.99V229.989V229.989V229.989V229.988V229.988V229.988V229.987V229.987V229.987V229.986V229.986V229.986V229.985V229.985V229.985V229.984V229.984V229.984V229.983V229.983V229.983V229.982V229.982V229.982V229.981V229.981V229.981V229.98V229.98V229.98V229.979V229.979V229.978V229.978V229.978V229.977V229.977V229.977V229.976V229.976V229.976V229.976V229.975V229.975V229.974V229.974V229.974V229.973V229.973V229.973V229.973V229.972V229.972V229.971V229.971V229.971V229.97V229.97V229.97V229.97V229.969V229.969V229.968V229.968V229.968V229.967V229.967V229.967V229.967V229.966V229.965V229.965V229.965V229.964V229.964V229.964V229.964V229.963V229.962V229.962V229.962V229.961V229.961V229.961V229.961V229.96V229.959V229.959V229.959V229.958V229.958V229.958V229.957V229.957V229.957V229.956V229.956V229.956V229.955V229.955V229.954V229.954V229.954V229.954V229.953V229.953V229.953V229.952V229.952V229.951V229.951V229.951V229.95V229.95V229.95V229.949V229.949V229.949V229.948V229.948V229.948V229.947V229.947V229.946V229.946V229.946V229.946V229.945V229.945V229.945V229.944V229.944V229.943V229.943V229.943V229.942V229.942V229.942V229.941V229.941V229.941V229.94V229.94V229.94V229.939V229.939V229.938V229.938V229.937V229.937V229.937V229.936V229.936V229.936V229.935V229.935V229.935V229.934V229.934V229.933V229.933V229.933V229.932V229.932V229.932V229.931V229.931V229.931V229.93V229.93V229.929V229.929V229.929V229.928V229.928V229.928V229.927V229.927V229.926V229.926V229.926V229.925V229.925V229.925V229.924V229.924V229.924V229.923V229.923V229.923V229.922V229.922V229.921V229.921V229.921V229.92V229.92V229.919V229.919V229.919V229.918V229.918V229.918V229.917V229.917V229.917V229.916V229.916V229.916V229.915V229.915V229.914V229.914V229.914V229.913V229.913V229.912V229.912V229.912V229.911V229.911V229.91V229.91V229.91V229.909V229.909V229.909V229.909V229.908V229.908V229.907V229.907V229.907V229.906V229.906V229.905V229.905V229.905V229.904V229.904V229.903V229.903V229.903V229.902V229.902V229.902V229.901V229.901V229.9V229.9V229.9V229.899V229.899V229.898V229.898V229.898V229.897V229.897V229.896V229.896V229.896V229.895V229.895V229.895V229.894V229.894V229.893V229.893V229.892C277.272 229.733 277.272 229.581 277.221 229.323L277.218 229.308V229.294C277.218 228.931 277.188 228.417 277.15 227.768C277.137 227.55 277.123 227.317 277.109 227.069L277.218 227.063C277.198 226.347 277.169 225.508 277.134 224.557C277.107 223.971 277.078 223.343 277.049 222.675C276.998 221.542 276.942 220.295 276.878 218.947C276.832 217.475 276.747 215.926 276.656 214.267C276.653 214.199 276.649 214.13 276.645 214.061C276.595 214.057 276.544 214.052 276.494 214.047C276.491 213.997 276.488 213.946 276.486 213.896C276.178 213.866 275.873 213.826 275.571 213.773C274.917 213.664 274.318 213.501 273.719 213.229C273.12 212.956 272.63 212.575 272.195 212.14C271.759 211.649 271.432 211.105 271.323 210.506C271.16 209.907 271.269 209.253 271.541 208.709C271.813 208.164 272.249 207.674 272.848 207.456C273.393 207.238 274.046 207.293 274.591 207.565C275.135 207.837 275.571 208.219 275.898 208.709C276.224 209.199 276.388 209.689 276.551 210.234C276.723 211.095 276.759 211.923 276.794 212.717C276.803 212.926 276.812 213.133 276.823 213.338C276.828 213.428 276.833 213.518 276.838 213.608C276.888 213.612 276.938 213.616 276.989 213.62C276.991 213.67 276.994 213.72 276.996 213.771C277.819 213.828 278.655 213.828 279.492 213.828H279.492C279.59 213.828 279.689 213.827 279.787 213.825C279.867 213.821 279.947 213.817 280.027 213.812C280.028 213.764 280.028 213.717 280.029 213.669C280.079 213.667 280.129 213.665 280.179 213.663C280.183 213.466 280.189 213.267 280.2 213.065C280.248 212.145 280.383 211.224 280.757 210.342C280.795 210.232 280.835 210.123 280.877 210.016L280.88 210.008L280.882 210.003L280.884 210C281.052 209.682 281.253 209.369 281.485 209.077C281.938 208.477 282.52 207.966 283.249 207.674C284.339 207.238 285.7 207.456 286.571 208.328C287.007 208.763 287.279 209.362 287.279 210.016C287.279 210.179 287.262 210.339 287.231 210.495L281.766 229.542M281.766 229.542C281.765 229.429 281.762 229.261 281.71 228.998C281.684 228.768 281.646 228.473 281.601 228.13C281.552 227.748 281.494 227.306 281.438 226.826M276.468 213.574C276.193 213.546 275.921 213.509 275.651 213.462L275.651 213.462L275.645 213.461C274.417 213.301 273.259 212.823 272.473 211.935C272.096 211.449 271.79 210.984 271.689 210.425L271.689 210.425L271.688 210.422C271.584 209.904 271.639 209.288 271.89 208.836C272.152 208.365 272.509 207.962 273.009 207.76C273.457 207.612 274.015 207.661 274.475 207.866C274.93 208.068 275.292 208.424 275.61 208.848C275.872 209.268 276.082 209.793 276.187 210.265C276.355 211.067 276.391 211.9 276.426 212.702C276.435 212.919 276.444 213.134 276.456 213.346C276.456 213.346 276.456 213.346 276.456 213.346L276.468 213.574Z" fill="white" stroke="white" stroke-width="0.3"/>
<path d="M273.556 230.001L286.026 229.838L286.135 237.68L282.541 241.982L277.749 242.2L273.719 237.407L273.556 230.001Z" fill="#E0E0E0"/>
<path d="M282.539 241.982C281.886 241.328 280.96 240.947 280.034 240.947C279.108 241.002 278.237 241.437 277.692 242.2L282.539 241.982Z" fill="#455A64"/>
<path d="M285.808 237.027C285.808 237.027 285.644 236.972 285.372 236.809C285.1 236.7 284.664 236.482 284.12 236.319C283.085 235.937 281.506 235.611 279.817 235.611C278.129 235.665 276.604 236.046 275.57 236.482C275.025 236.7 274.644 236.863 274.372 237.027C274.099 237.19 273.936 237.244 273.936 237.244C273.936 237.244 274.045 237.136 274.317 236.972C274.59 236.809 274.971 236.591 275.515 236.373C276.55 235.937 278.075 235.447 279.817 235.447C281.56 235.393 283.139 235.774 284.174 236.21C284.719 236.428 285.1 236.591 285.372 236.754C285.699 236.918 285.808 237.027 285.808 237.027Z" fill="#263238"/>
<path d="M285.808 235.121C285.808 235.121 285.644 235.066 285.372 234.903C285.1 234.794 284.664 234.576 284.12 234.413C283.085 234.031 281.506 233.705 279.817 233.705C278.129 233.759 276.604 234.14 275.57 234.576C275.025 234.794 274.644 234.957 274.372 235.121C274.099 235.284 273.936 235.338 273.936 235.338C273.936 235.338 274.045 235.23 274.317 235.066C274.59 234.903 274.971 234.685 275.515 234.467C276.55 234.031 278.075 233.541 279.817 233.541C281.56 233.487 283.139 233.868 284.174 234.304C284.719 234.522 285.1 234.685 285.372 234.848C285.699 235.012 285.862 235.121 285.808 235.121Z" fill="#263238"/>
<path d="M285.753 233.323C285.753 233.323 285.59 233.269 285.317 233.106C285.045 232.997 284.609 232.779 284.065 232.616C283.03 232.234 281.451 231.908 279.763 231.908C278.075 231.962 276.55 232.343 275.515 232.779C274.97 232.997 274.589 233.16 274.317 233.323C274.045 233.487 273.881 233.541 273.881 233.541C273.881 233.541 273.99 233.432 274.263 233.269C274.535 233.106 274.916 232.888 275.461 232.67C276.495 232.234 278.02 231.744 279.763 231.744C281.505 231.69 283.085 232.071 284.119 232.507C284.664 232.724 285.045 232.888 285.317 233.051C285.59 233.215 285.753 233.323 285.753 233.323Z" fill="#263238"/>
<g opacity="0.2">
<path opacity="0.2" d="M272.085 217.912C271.922 218.13 271.486 218.075 270.887 217.749C270.288 217.422 269.471 216.823 268.709 215.843C267.946 214.862 267.238 213.555 266.803 211.922C266.367 210.288 266.258 208.436 266.694 206.476C267.129 204.57 268.001 202.882 269.09 201.575C270.179 200.268 271.377 199.397 272.466 198.798C273.555 198.253 274.536 197.981 275.244 197.981C275.951 197.926 276.333 198.09 276.442 198.362C276.605 198.906 275.461 199.614 274.045 201.03C273.338 201.738 272.63 202.61 271.976 203.644C271.323 204.679 270.778 205.931 270.451 207.293C270.179 208.654 270.125 210.016 270.288 211.214C270.451 212.466 270.724 213.555 271.105 214.481C271.704 216.333 272.466 217.476 272.085 217.912Z" fill="white"/>
</g>
<g opacity="0.2">
<path opacity="0.2" d="M276.059 222.323C276.059 223.358 275.242 224.229 274.316 224.229C273.336 224.229 272.574 223.358 272.628 222.323C272.628 221.288 273.445 220.417 274.371 220.417C275.297 220.363 276.059 221.234 276.059 222.323Z" fill="white"/>
</g>
</g>
<path d="M90.8654 223.807C90.3079 210.227 89.1261 198.409 87.699 190.181C85.4246 177.047 83.3732 169.488 83.3509 169.422C83.061 168.262 78.7352 163.602 69.1247 163.735C59.5142 163.869 60.4284 170.001 60.4284 170.001C60.4284 170.202 60.4507 170.403 60.4953 170.536C60.5845 170.849 69.4145 202.824 69.0355 244.12C69.0355 244.7 68.9686 245.704 69.0132 246.372C69.0132 246.372 91.2667 246.952 91.289 246.372C92.0695 242.76 91.6904 232.771 90.8654 223.807Z" fill="#B7D3F3"/>
<path d="M93.6753 243.92C93.6753 244.499 93.3632 244.945 92.9841 244.945C92.605 244.945 92.3152 244.477 92.3152 243.92H73.2279C73.2279 244.499 72.9158 244.945 72.5367 244.945C72.1576 244.945 71.8677 244.455 71.8677 243.875C71.9792 232.057 71.3103 221.019 70.2846 211.275C67.7426 186.992 63.06 170.759 62.9931 170.536C62.9485 170.403 62.9262 170.202 62.9262 170.001C62.9262 170.001 62.012 163.869 71.6225 163.735C81.233 163.602 85.5588 168.262 85.8487 169.422C85.871 169.488 87.0305 173.77 88.5691 181.44C89.0819 183.982 89.6394 186.903 90.1968 190.181C91.6239 198.409 92.8057 210.227 93.3632 223.807C94.1659 232.771 94.4558 240.307 93.6753 243.92Z" fill="#D2E3FC"/>
<path d="M70.4624 244.945H145.273C145.273 244.945 143.533 237.899 100.208 238.947C69.5481 239.705 70.4624 244.945 70.4624 244.945Z" fill="#C5DCF8"/>
<path d="M64.3754 318.574C73.0494 274.669 70.8195 247.733 70.7972 247.398C70.7749 246.729 72.0236 246.105 72.6926 246.082C73.3615 246.06 76.3718 245.882 76.7062 246.462C77.1522 247.22 78.9138 280.422 65.9808 318.574H64.3754Z" fill="#B7D3F3"/>
<path d="M134.213 318.574C125.539 274.669 127.769 247.733 127.791 247.398C127.813 246.729 126.565 246.105 125.896 246.082C125.227 246.06 122.216 245.882 121.882 246.462C121.436 247.22 119.674 280.422 132.607 318.574H134.213Z" fill="#B7D3F3"/>
<path d="M148.06 318.574C139.386 274.669 141.616 247.733 141.638 247.398C141.66 246.729 140.411 246.105 139.743 246.082C139.074 246.06 136.063 245.882 135.729 246.462C135.283 247.22 133.521 280.422 146.454 318.574H148.06Z" fill="#B7D3F3"/>
<path d="M78.3115 318.574C86.9855 274.669 84.7557 247.733 84.7334 247.398C84.7111 246.729 85.9598 246.105 86.6287 246.082C87.2977 246.06 90.3079 245.882 90.6424 246.462C91.0884 247.22 92.8499 280.422 79.917 318.574H78.3115Z" fill="#B7D3F3"/>
<path d="M145.318 247.197H70.5076C69.6602 247.197 68.969 246.506 68.969 245.659V244.655C68.969 243.808 69.6602 243.117 70.5076 243.117H145.318C146.165 243.117 146.856 243.808 146.856 244.655V245.659C146.834 246.506 146.143 247.197 145.318 247.197Z" fill="#B7D3F3"/>
<path d="M142.685 179.656L167.548 174.26L169.019 177.828C169.019 177.828 141.593 194.15 139.006 193.347C136.442 192.567 142.685 179.656 142.685 179.656Z" fill="#FFB27D"/>
<path d="M120.075 292.106C119.451 292.82 119.384 293.622 119.674 294.47C119.674 294.47 119.674 294.47 119.674 294.492C120.254 296.075 122.127 297.837 124.312 299.576C124.602 299.799 124.847 300 125.048 300.2C125.115 300.245 125.159 300.289 125.226 300.356C125.271 300.401 125.315 300.446 125.36 300.468C127.389 302.341 126.631 302.787 130.288 306.6C134.458 310.948 137.334 311.015 138.159 310.636C138.85 310.301 137.446 307.982 135.885 305.396C135.818 305.262 135.729 305.15 135.662 305.017C135.461 304.682 135.238 304.325 135.037 303.969C133.209 300.847 133.677 299.375 134.123 294.737C134.48 290.969 139.988 273.665 139.988 273.665L131.983 272.283C131.983 272.283 129.574 286.063 126.921 288.182C125.494 289.319 123.911 289.319 122.55 290.166C122.461 290.233 122.35 290.278 122.261 290.344C121.48 290.857 120.7 291.392 120.075 292.106Z" fill="#FFB27D"/>
<path d="M120.075 292.106C119.451 292.82 119.384 293.622 119.674 294.47C119.674 294.47 119.674 294.47 119.674 294.492C120.365 296.075 122.216 297.814 124.312 299.576C124.58 299.799 124.825 300.022 125.048 300.223C125.115 300.267 125.159 300.312 125.226 300.379C125.271 300.423 125.315 300.468 125.36 300.49C127.389 302.363 126.631 302.809 130.288 306.622C134.458 310.97 137.334 311.037 138.159 310.658C138.85 310.324 137.446 308.005 135.885 305.418C135.082 305.128 131.291 303.59 128.437 299.933C125.917 296.722 124.245 292.597 122.528 290.211C122.439 290.278 122.327 290.322 122.238 290.389C121.48 290.857 120.7 291.392 120.075 292.106Z" fill="#1C468A"/>
<path d="M184.629 287.111C185.12 289.586 188.643 289.163 192.589 288.204C196.536 287.245 195.6 288.382 201.197 287.758C206.793 287.133 208.488 285.06 208.666 284.212C208.822 283.477 206.058 283.209 203.092 282.875C202.713 282.83 202.334 282.785 201.977 282.741C198.632 282.317 196.179 280.154 193.125 278.37C190.248 276.698 185.945 269.83 185.945 269.83L178.252 270.432C178.252 270.432 182.288 276.564 183.849 279.218C184.763 280.778 184.718 282.852 184.607 284.458C184.517 285.35 184.473 286.242 184.629 287.111Z" fill="#FFB27D"/>
<path d="M192.59 288.204C196.536 287.245 195.6 288.382 201.197 287.758C206.793 287.133 208.488 285.06 208.666 284.212C208.823 283.477 206.058 283.209 203.092 282.875L203.07 282.941C203.07 282.941 199.703 285.327 195.042 285.439C191.252 285.528 187.216 284.435 184.584 284.48C184.518 285.35 184.473 286.242 184.651 287.111C185.142 289.564 188.665 289.163 192.59 288.204Z" fill="#1C468A"/>
<path d="M167.549 174.26C167.549 174.26 169.377 169.778 171.384 169.6C173.391 169.421 179.813 168.418 180.259 169.332C180.727 170.247 180.259 173.547 178.876 174.728C177.494 175.91 168.998 177.85 168.998 177.85L167.549 174.26Z" fill="#FFB27D"/>
<path d="M155.195 237.988L138.627 282.54C138.627 282.54 136.085 282.785 133.655 282.094C131.403 281.447 128.839 279.753 128.839 279.753C128.839 279.753 132.941 236.963 140.478 228.066C148.015 219.146 155.195 237.988 155.195 237.988Z" fill="#2D81E4"/>
<path d="M89.7057 219.949C89.7057 219.949 137.29 203.872 147.882 207.284C158.496 210.695 190.36 274.089 190.36 274.089C190.36 274.089 189.646 275.048 187.684 275.784C185.855 276.475 181.44 276.43 181.44 276.43C181.44 276.43 152.698 251.791 149.264 244.589C145.83 237.409 144.47 230.563 141.058 231.232C137.624 231.923 96.908 248 87.6543 238.412C78.4229 228.824 80.8311 216.381 80.8311 216.381L89.7057 219.949Z" fill="#5AA5FE"/>
<path d="M116.842 106.518C114.79 105.359 112.315 105.225 110.598 105.314C111.044 104.846 111.914 104.69 111.914 104.69C110.844 104.534 108.458 105.582 108.458 105.582C93.5847 99.8513 91.2434 121.748 91.5556 126.832C91.8678 131.916 91.9124 137.78 84.4871 142.329C69.8818 151.315 82.2127 166.969 82.2127 166.969C82.3242 167.036 89.0136 178.363 89.0136 178.363C88.6345 174.26 107.61 152.564 117.488 146.075C119.897 142.53 120.744 136.264 120.811 135.774C120.387 140.746 119.54 143.533 118.782 145.094C127.166 137.401 122.282 109.618 116.842 106.518Z" fill="#B5453C"/>
<path d="M116.887 146.41C116.932 146.432 112.116 148.93 108.481 147.948C105.069 147.012 102.839 142.597 102.884 142.575C104.333 142.285 104.757 140.3 104.713 131.76L105.359 131.894L116.352 134.079C116.352 134.079 116.107 137.535 116.085 140.791C116.107 143.533 116.263 146.12 116.887 146.41Z" fill="#FFB27D"/>
<path d="M116.374 134.079C116.374 134.079 116.129 137.535 116.107 140.791C109.952 140.612 106.697 135.016 105.381 131.894L116.374 134.079Z" fill="#ED975D"/>
<path d="M104.244 130.712C104.244 130.712 101.011 125.628 100.253 121.257C99.6951 118.158 101.278 106.63 112.873 108.28C112.873 108.28 116.24 108.614 119.407 110.755C121.926 112.45 125.561 116.129 121.503 126.185L120.455 129.575L104.244 130.712Z" fill="#B5453C"/>
<path d="M118.425 137.156C118.425 137.156 103.865 137.401 103.865 128.326C103.865 119.251 101.969 113.186 111.268 112.65C120.566 112.115 122.372 115.572 123.108 118.604C123.844 121.637 122.216 136.866 118.425 137.156Z" fill="#FFB27D"/>
<path d="M117.89 112.427C117.89 112.427 113.899 123.064 107.789 124.647C101.679 126.23 99.0259 124.58 99.0259 124.58C99.0259 124.58 103.708 120.856 104.69 114.345C104.667 114.345 114.88 107.366 117.89 112.427Z" fill="#B5453C"/>
<path d="M116.887 113.297C116.887 113.297 119.853 115.661 120.588 117.98C121.324 120.299 121.636 125.048 123.019 124.87C123.019 124.87 126.029 117.645 122.64 113.542C119.072 109.216 116.887 113.297 116.887 113.297Z" fill="#B5453C"/>
<path d="M84.4883 185.588C83.0613 179.567 87.9446 167.883 93.0285 158.206C97.6443 149.442 102.461 142.329 102.884 142.575C115.081 149.821 116.196 143.801 116.196 143.801C116.196 143.801 127.279 145.273 130.423 150.669C134.325 157.38 138.517 176.089 142.687 179.634C142.04 181.596 142.33 182.644 142.999 185.075C143.155 185.588 143.311 186.101 143.489 186.569C144.114 188.286 144.916 189.668 145.585 190.872C143.467 192.166 139.364 194.618 136.332 192.857C131.716 190.159 128.126 181.953 126.119 178.698C126.119 178.675 126.097 178.675 126.097 178.653C121.704 203.538 127.68 209.201 124.647 211.81C121.459 214.575 116.888 210.495 106.853 214.843C100.275 217.697 91.1332 221.822 84.9789 222.558C81.7457 222.937 79.3375 222.38 78.557 220.194C76.2603 213.862 87.231 197.049 84.4883 185.588Z" fill="#5AA5FE"/>
<path d="M115.192 131.671C115.192 131.671 115.46 132.83 118.336 132.652C118.336 132.652 120.744 132.496 120.677 131.247C120.655 131.225 118.314 130.333 115.192 131.671Z" fill="white"/>
<path d="M78.557 220.194C79.3375 222.38 81.7457 222.937 84.9789 222.558C89.2379 220.707 107.634 213.572 107.433 208.755C107.121 201.598 103.888 201.375 106.184 192.545C108.013 185.454 91.0217 172.276 88.3013 169.421C83.1951 179.099 83.0613 179.545 84.4883 185.565C87.231 197.049 76.2603 213.862 78.557 220.194Z" fill="#2D81E4"/>
<path d="M76.4603 194.418C79.7158 189.847 83.1275 187.416 85.3573 186.19C84.8444 184.874 99.0706 167.415 99.0706 164.717C99.0706 161.974 102.861 142.597 102.861 142.597C102.861 142.597 90.9987 143.333 86.8958 149.063C81.7896 156.199 71.1087 183.782 76.4603 194.418Z" fill="#5AA5FE"/>
<path d="M85.3568 186.19L109.06 192.366L106.83 196.358C106.83 196.358 77.9761 196.157 76.4598 194.395C74.9435 192.656 85.3568 186.19 85.3568 186.19Z" fill="#FFB27D"/>
<path d="M126.118 178.698C128.147 181.975 131.737 190.159 136.331 192.857C139.341 194.618 143.444 192.166 145.585 190.872C144.916 189.668 144.113 188.286 143.489 186.569C141.794 186.948 139.72 187.461 138.382 187.862C135.796 188.642 126.118 178.698 126.118 178.698Z" fill="#2D81E4"/>
<path d="M109.061 192.389C109.061 192.389 116.508 190.293 118.27 190.783C120.054 191.274 126.119 195.287 125.272 196.38C124.424 197.473 119.073 195.733 116.598 196.046C114.145 196.38 112.227 197.584 110.466 197.339C108.682 197.071 106.831 196.38 106.831 196.38L109.061 192.389Z" fill="#FFB27D"/>
<path d="M109.06 192.389C109.06 192.389 112.695 190.516 113.743 189.445C113.876 189.311 114.099 189.334 114.189 189.49C114.456 189.936 114.724 190.783 113.453 191.608C111.624 192.835 109.06 192.389 109.06 192.389Z" fill="#FFB27D"/>
<path d="M449.018 121.614C449.018 121.614 446.543 113.654 445.138 112.784C443.733 111.937 437.891 109.038 437.534 109.819C437.177 110.599 440.7 114.39 441.481 115.638C442.261 116.909 442.64 118.158 442.105 117.601C441.57 117.065 438.604 115.237 438.292 115.638C437.98 116.04 439.764 117.601 440.634 118.849C441.481 120.098 442.417 122.194 445.472 122.662C448.505 123.153 449.018 121.614 449.018 121.614Z" fill="#FFB683"/>
<path d="M539.057 188.71C539.057 188.71 538.322 195.912 537.496 197.272C536.694 198.632 533.215 202.98 531.744 203.828C530.272 204.675 532.635 198.097 532.346 196.804C532.056 195.533 531.142 199.145 530.473 199.234C529.826 199.324 529.982 196.068 529.96 194.864C529.937 193.682 533.126 190.761 534.241 188.219C535.4 185.722 539.057 188.71 539.057 188.71Z" fill="#FFB27D"/>
<path d="M516.492 114.836C516.492 114.836 510.516 144.202 477.559 153.813C467.28 156.801 443.911 122.952 443.911 122.952C443.911 122.952 444.736 119.83 449.887 120.544C449.887 120.544 472.631 135.595 475.485 137.245C478.027 138.695 494.729 118.582 502.355 115.349C509.981 112.115 516.492 114.836 516.492 114.836Z" fill="#5AA4FF"/>
<path d="M555.804 299.509C555.804 299.509 559.885 303.233 559.082 305.886C558.279 308.54 554.6 310.302 554.11 313.535C553.619 316.768 551.612 318.53 549.828 318.53C548.045 318.53 541.266 318.53 541.266 318.53C541.266 318.53 539.95 316.255 543.139 315.564C546.328 314.873 547.532 311.082 547.331 307.537C547.13 304.013 547.621 299.286 547.621 299.286L554.4 297.725L555.804 299.509Z" fill="#233862"/>
<path d="M505.677 309.164C505.677 309.164 506.413 317.66 504.607 318.529L481.64 318.485C481.64 318.485 481.64 315.831 485.319 315.252C488.998 314.672 495.487 312.509 496.58 307.692C497.717 302.876 505.677 309.164 505.677 309.164Z" fill="#233862"/>
<path d="M486.301 189.289C486.301 189.289 487.505 204.162 488.932 222.045C490.872 246.328 493.191 276.163 493.414 281.827C493.816 291.638 495.399 307.336 495.399 307.336C495.399 307.336 499.189 311.06 506.771 309.499C506.771 309.499 513.527 287.089 515.445 263.364C515.467 262.985 515.512 262.583 515.534 262.182C517.318 238.033 520.127 187.216 520.127 187.216L486.301 189.289Z" fill="#FEDFAC"/>
<path d="M486.301 189.289C486.301 189.289 487.505 204.162 488.932 222.045L515.467 263.364C515.489 262.985 515.534 262.583 515.556 262.182C517.34 238.033 520.15 187.216 520.15 187.216L486.301 189.289Z" fill="#F8D49A"/>
<path d="M491.83 191.051C491.83 191.051 513.66 244.923 527.998 270.232C542.358 295.54 546.84 302.609 546.84 302.609C546.84 302.609 555.068 299.375 555.803 297.168C555.803 297.168 550.318 248.29 540.708 236.383C535.267 229.649 528.89 209.447 528.6 202.378C528.31 195.31 526.66 181.329 526.66 181.329L491.83 191.051Z" fill="#FEDFAC"/>
<path d="M520.55 108.035C520.55 108.035 505.788 115.17 497.27 112.517C497.27 112.517 499.366 109.863 503.023 107.901C502.733 106.184 502.51 104.712 502.377 103.441C502.02 100.543 502.02 98.8926 502.02 98.8926L507.706 94.4106L513.102 90.1294C512.678 102.193 520.55 108.035 520.55 108.035Z" fill="#FFB27D"/>
<path d="M528.332 184.094C528.354 185.008 526.437 186.034 525.589 186.413C519.279 189.178 513.37 191.118 506.703 191.764C498.809 192.567 489.488 190.806 486.278 190.872C485.943 190.872 485.653 190.739 485.386 190.516C485.163 190.36 484.984 180.838 485.163 168.886C485.163 168.396 485.163 167.928 485.185 167.437V167.281C485.252 162.598 485.408 157.715 485.653 152.809C486.121 142.039 486.969 131.649 488.396 125.918C490.135 119.139 494.06 114.657 497.627 111.402L500.571 108.815C503.514 109.395 506.636 109.239 509.735 107.723C513.147 106.073 516.804 104.311 517.406 104.757C521.865 108.012 524.876 115.326 526.481 124.691C526.481 124.736 526.503 124.781 526.503 124.825C527.395 130.177 527.864 136.153 527.819 142.419C527.819 144.738 527.752 147.123 527.618 149.487C526.972 160.146 527.395 169.645 527.841 176.223C527.931 177.516 528.02 178.698 528.087 179.768C528.198 181.619 528.287 183.068 528.332 184.094Z" fill="#5AA4FF"/>
<path d="M527.819 176.2C503.335 147.948 518.52 127.39 518.52 127.39L526.481 124.803C527.373 130.155 527.841 136.13 527.797 142.396C527.797 144.715 527.73 147.101 527.596 149.465C526.949 160.123 527.395 169.622 527.819 176.2Z" fill="#498DDE"/>
<path d="M513.214 94.7451C513.214 94.7451 509.491 101.546 502.377 103.441C502.021 100.543 502.021 98.8926 502.021 98.8926L507.707 94.4106L513.214 94.7451Z" fill="#ED985F"/>
<path d="M499.411 98.7142C499.411 98.7142 513.504 101.011 514.819 92.3593C516.135 83.7076 518.855 78.1553 509.914 76.3269C500.972 74.4984 498.72 77.531 497.561 80.3183C496.423 83.1055 495.777 97.8892 499.411 98.7142Z" fill="#FFB27D"/>
<path d="M519.948 75.2788C520.082 75.1227 520.372 75.0112 521.019 74.9889C521.019 74.9889 520.484 74.6544 519.792 74.6544C519.658 73.7402 519.168 72.1347 517.607 71.7334C517.607 71.7334 518.454 72.1793 518.566 73.1605C516.737 71.2874 512.858 69.9272 502.043 70.7746C487.817 71.8895 492.499 81.0094 494.35 82.102C496.201 83.1946 500.839 80.2067 504.25 80.4743C507.684 80.7418 508.331 85.7143 509.49 86.3833C510.65 87.0745 510.204 85.8704 511.765 85.1569C513.348 84.4433 513.482 87.0522 513.036 88.7469C512.59 90.4415 514.753 92.6937 514.753 92.6937C514.753 92.6937 514.753 92.6936 516.938 90.33C519.123 87.9664 521.197 77.9992 520.194 75.8808C520.127 75.6579 520.038 75.4795 519.948 75.2788Z" fill="#2C3A64"/>
<path d="M517.384 104.69C517.384 104.69 526.303 108.905 530.562 115.393C537.184 125.45 544.877 162.13 545.011 165.542C545.145 168.953 539.392 192.924 539.392 192.924C539.392 192.924 533.55 192.545 532.056 189.602C532.056 189.602 533.215 164.962 532.479 163.379C531.744 161.796 508.175 130.333 510.806 123.621C513.504 116.887 517.384 104.69 517.384 104.69Z" fill="#5AA4FF"/>
<path d="M41.9649 318.574C42.6339 318.574 43.2136 318.106 43.3474 317.437L50.0814 279.218L59.7811 224.253L62.5015 208.889L55.5891 208.688L54.385 217.608L45.9786 280.31L40.9838 317.481C40.9169 318.061 41.3852 318.574 41.9649 318.574Z" fill="#95C0F4"/>
<path d="M54.4078 217.608C58.8898 219.592 59.804 224.253 59.804 224.253L62.5244 208.889L55.6119 208.688L54.4078 217.608Z" fill="#78ACEA"/>
<path d="M213.817 318.574C213.148 318.574 212.569 318.106 212.435 317.437L205.701 279.218L196.001 224.253L193.281 208.889L200.193 208.688L201.397 217.608L209.804 280.31L214.798 317.481C214.888 318.061 214.419 318.574 213.817 318.574Z" fill="#95C0F4"/>
<path d="M201.397 217.608C196.915 219.592 196.001 224.253 196.001 224.253L193.281 208.889L200.193 208.688L201.397 217.608Z" fill="#78ACEA"/>
<path d="M37.3721 214.909H214.286C216.605 214.909 218.5 213.014 218.5 210.695V207.061C218.5 204.742 216.605 202.846 214.286 202.846H37.3721C35.0531 202.846 33.1577 204.742 33.1577 207.061V210.695C33.1577 213.014 35.0531 214.909 37.3721 214.909Z" fill="#4D8FFF"/>
<path d="M143.468 202.847H108.749C108.749 201.308 109.998 200.082 111.514 200.082H143.468V202.847Z" fill="#FEDFAC"/>
<path d="M143.378 165.029H197.072L184.184 202.846H130.155L143.378 165.029Z" fill="#FEDFAC"/>
<path d="M197.852 165.029L184.986 202.846H130.935L144.158 165.029H197.852Z" fill="#FFD753"/>
<path d="M168.91 183.603C168.576 185.052 167.127 186.212 165.699 186.212C164.25 186.212 163.358 185.03 163.693 183.603C164.027 182.154 165.477 180.994 166.904 180.994C168.331 180.972 169.245 182.154 168.91 183.603Z" fill="#F9DDBF"/>
<path d="M197.853 165.029L184.965 202.846H149.198C172.901 194.752 179.212 170.09 180.282 165.029H197.853Z" fill="#FEEBAA"/>
<path d="M227.463 114.233H189.891C184.963 114.233 180.927 118.269 180.927 123.197V137.401C180.927 139.653 181.775 141.727 183.157 143.31L180.927 153.523L193.793 146.387H227.463C232.391 146.387 236.427 142.351 236.427 137.423V123.22C236.427 118.292 232.391 114.233 227.463 114.233Z" fill="#ADCCFF"/>
<path d="M228.154 125.07H189.222C188.419 125.07 187.772 124.424 187.772 123.621C187.772 122.818 188.419 122.172 189.222 122.172H228.177C228.979 122.172 229.626 122.818 229.626 123.621C229.626 124.424 228.957 125.07 228.154 125.07Z" fill="#7BACFE"/>
<path d="M228.154 131.448H189.222C188.419 131.448 187.772 130.801 187.772 129.998C187.772 129.195 188.419 128.549 189.222 128.549H228.177C228.979 128.549 229.626 129.195 229.626 129.998C229.626 130.801 228.957 131.448 228.154 131.448Z" fill="#7BACFE"/>
<path d="M228.154 137.58H189.222C188.419 137.58 187.772 136.933 187.772 136.13C187.772 135.328 188.419 134.681 189.222 134.681H228.177C228.979 134.681 229.626 135.328 229.626 136.13C229.626 136.933 228.957 137.58 228.154 137.58Z" fill="#7BACFE"/>
<path opacity="0.9" d="M419.63 94.3657H419.34H361.454H303.278C302.297 94.3657 301.472 95.4137 301.472 96.6847V171.071C301.472 172.342 302.274 173.39 303.278 173.39H361.454H419.34H419.63C420.611 173.39 421.436 172.342 421.436 171.071V96.707C421.436 95.4137 420.611 94.3657 419.63 94.3657Z" fill="#CEE4FF"/>
<path opacity="0.9" d="M419.63 94.3657H419.34H361.454H303.278C302.297 94.3657 301.472 95.4137 301.472 96.6847V171.071C301.472 172.342 302.274 173.39 303.278 173.39H361.454H419.34H419.63C420.611 173.39 421.436 172.342 421.436 171.071V96.707C421.436 95.4137 420.611 94.3657 419.63 94.3657Z" fill="#B9D9FF"/>
<path d="M463.869 89.9954V164.382C463.869 165.653 462.821 166.701 461.528 166.701H310.904C309.633 166.701 308.585 165.653 308.585 164.382V89.9954C308.585 88.7021 309.633 87.6541 310.904 87.6541H461.528C462.821 87.6764 463.869 88.7244 463.869 89.9954Z" fill="#FFF1C3"/>
<path d="M463.848 89.9953V164.382C463.848 165.653 462.622 166.701 461.15 166.701H386.206V87.6763H461.15C462.644 87.6763 463.848 88.7243 463.848 89.9953Z" fill="#FFD753"/>
<path d="M438.223 97H394.777C393.242 97 392 96.329 392 95.5C392 94.6711 393.242 94 394.777 94H438.223C439.758 94 441 94.6711 441 95.5C441 96.329 439.758 97 438.223 97Z" fill="#FCECDB"/>
<path d="M425.676 103H394.324C393.04 103 392 102.408 392 101.678V101.322C392 100.592 393.04 100 394.324 100H425.676C426.959 100 428 100.592 428 101.322V101.678C428 102.408 426.959 103 425.676 103Z" fill="#FCECDB"/>
<path d="M415.386 109H393.614C392.722 109 392 108.408 392 107.678V107.322C392 106.592 392.722 106 393.614 106H415.386C416.277 106 417 106.592 417 107.322V107.678C417 108.408 416.277 109 415.386 109Z" fill="#FCECDB"/>
<path d="M422.207 147.389H395.695C394.758 147.389 394 146.631 394 145.695C394 144.758 394.758 144 395.695 144H422.207C423.144 144 423.902 144.758 423.902 145.695C423.88 146.631 423.121 147.389 422.207 147.389Z" fill="#FCECDB"/>
<path d="M426.96 141H395.04C393.913 141 393 140.329 393 139.5C393 138.671 393.913 138 395.04 138H426.96C428.087 138 429 138.671 429 139.5C428.973 140.329 428.06 141 426.96 141Z" fill="#FCECDB"/>
<path d="M414.674 154.451H394.494C393.669 154.451 393 153.782 393 152.957V152.556C393 151.731 393.669 151.062 394.494 151.062H414.652C415.477 151.062 416.145 151.731 416.145 152.556V152.957C416.145 153.782 415.477 154.451 414.674 154.451Z" fill="#FCECDB"/>
<path d="M364.273 101.219L330.92 101C329.824 100.993 328.948 101.975 329.002 103.151V151.374C329.002 152.824 330.178 154 331.628 154H367.847C369.297 154 370.472 152.824 370.472 151.374V108.567L364.273 101.219Z" fill="#5BA6FF"/>
<path d="M365.659 108.35C364.572 108.31 363.737 107.305 363.823 106.141L364.182 101.285L370.478 108.538L365.659 108.35Z" fill="#709AE3"/>
<path opacity="0.78" d="M348.123 110.982C350.865 110.969 361.387 110.892 364.044 110.874C364.379 110.871 364.645 111.244 364.63 111.699C364.615 112.131 364.352 112.477 364.033 112.481L348.119 112.694C347.813 112.699 347.558 112.384 347.531 111.973L347.525 111.869C347.495 111.394 347.773 110.984 348.123 110.982Z" fill="white"/>
<path opacity="0.78" d="M347.988 114.549C350.73 114.535 361.252 114.458 363.909 114.44C364.244 114.438 364.51 114.811 364.495 115.265C364.48 115.697 364.217 116.043 363.898 116.048L347.984 116.26C347.678 116.265 347.423 115.951 347.396 115.539L347.39 115.435C347.36 114.962 347.638 114.551 347.988 114.549Z" fill="white"/>
<path opacity="0.78" d="M336.081 119.576C340.705 119.58 358.454 119.574 362.937 119.571C363.501 119.571 363.961 119.947 363.95 120.401C363.94 120.833 363.508 121.177 362.968 121.179L336.128 121.288C335.611 121.29 335.171 120.976 335.114 120.562L335.099 120.458C335.034 119.985 335.489 119.576 336.081 119.576Z" fill="white"/>
<path opacity="0.78" d="M335.866 123.318C339.465 123.303 353.283 123.217 356.771 123.196C357.211 123.194 357.565 123.567 357.555 124.022C357.544 124.454 357.205 124.8 356.785 124.804L335.891 125.03C335.489 125.035 335.15 124.723 335.107 124.309L335.097 124.205C335.051 123.732 335.407 123.321 335.866 123.318Z" fill="white"/>
<path opacity="0.78" d="M336.036 128.219C340.659 128.224 358.409 128.217 362.891 128.215C363.456 128.215 363.915 128.59 363.905 129.045C363.894 129.477 363.462 129.82 362.923 129.823L336.082 129.931C335.566 129.933 335.125 129.619 335.068 129.205L335.054 129.101C334.991 128.628 335.446 128.219 336.036 128.219Z" fill="white"/>
<path opacity="0.78" d="M335.633 132.025C339.249 132.032 353.132 132.039 356.637 132.041C357.079 132.041 357.433 132.416 357.421 132.871C357.408 133.303 357.065 133.647 356.643 133.649L335.65 133.737C335.246 133.739 334.906 133.423 334.866 133.011L334.856 132.907C334.811 132.434 335.172 132.025 335.633 132.025Z" fill="white"/>
<path opacity="0.78" d="M335.807 137.041C340.431 137.046 358.181 137.039 362.663 137.037C363.228 137.037 363.687 137.412 363.677 137.867C363.666 138.299 363.234 138.642 362.695 138.645L335.854 138.753C335.337 138.755 334.897 138.441 334.84 138.027L334.825 137.923C334.762 137.45 335.215 137.041 335.807 137.041Z" fill="white"/>
<g opacity="0.74">
<path opacity="0.78" d="M335.528 140.802C339.144 140.809 353.027 140.816 356.531 140.818C356.974 140.818 357.328 141.193 357.315 141.648C357.302 142.08 356.959 142.423 356.538 142.426L335.544 142.514C335.14 142.516 334.801 142.2 334.761 141.788L334.75 141.684C334.706 141.209 335.066 140.802 335.528 140.802Z" fill="white"/>
</g>
<path opacity="0.48" d="M336.081 145.759C340.705 145.764 358.454 145.757 362.937 145.755C363.501 145.755 363.961 146.13 363.95 146.585C363.94 147.017 363.508 147.36 362.968 147.363L336.128 147.473C335.611 147.476 335.171 147.161 335.114 146.747L335.099 146.643C335.034 146.168 335.489 145.759 336.081 145.759Z" fill="white"/>
<path opacity="0.36" d="M335.821 149.927C339.391 149.927 353.099 149.909 356.559 149.902C356.995 149.902 357.345 150.278 357.332 150.732C357.32 151.164 356.982 151.508 356.565 151.51L335.838 151.639C335.439 151.641 335.102 151.327 335.062 150.913L335.052 150.809C335.007 150.339 335.363 149.927 335.821 149.927Z" fill="white"/>
<g opacity="0.78">
<path opacity="0.78" d="M339.2 112.416L338.079 116.059H336.638L340.307 104.474H341.988L345.672 116.059H344.182L343.029 112.416H339.2ZM342.74 111.247L341.683 107.911C341.442 107.156 341.282 106.468 341.122 105.797H341.09C340.93 106.484 340.753 107.19 340.547 107.893L339.489 111.244H342.74V111.247Z" fill="white"/>
</g>
<path d="M359.614 104.19L330.666 104C329.715 103.994 328.955 104.846 329.002 105.867V147.721C329.002 148.98 330.022 150 331.281 150H362.716C363.975 150 364.995 148.98 364.995 147.721V110.568L359.614 104.19Z" fill="#91B3FA"/>
<path d="M360.818 110.379C359.874 110.344 359.149 109.473 359.224 108.462L359.535 104.248L365 110.542L360.818 110.379Z" fill="#709AE3"/>
<path opacity="0.78" d="M345.598 112.664C347.977 112.652 357.109 112.585 359.416 112.57C359.707 112.568 359.937 112.891 359.924 113.286C359.911 113.661 359.683 113.961 359.407 113.965L345.594 114.15C345.329 114.154 345.108 113.881 345.084 113.524L345.078 113.433C345.053 113.021 345.294 112.666 345.598 112.664Z" fill="white"/>
<path opacity="0.78" d="M345.48 115.759C347.86 115.747 356.992 115.681 359.298 115.665C359.589 115.663 359.82 115.987 359.807 116.381C359.794 116.756 359.565 117.057 359.289 117.061L345.477 117.245C345.211 117.249 344.99 116.976 344.966 116.619L344.961 116.529C344.935 116.118 345.177 115.761 345.48 115.759Z" fill="white"/>
<path opacity="0.78" d="M335.146 120.123C339.159 120.127 354.564 120.121 358.454 120.119C358.945 120.119 359.343 120.444 359.334 120.839C359.325 121.214 358.95 121.512 358.482 121.514L335.186 121.608C334.738 121.61 334.356 121.338 334.306 120.978L334.294 120.888C334.237 120.478 334.632 120.123 335.146 120.123Z" fill="white"/>
<path opacity="0.78" d="M334.959 123.371C338.083 123.357 350.076 123.283 353.103 123.265C353.485 123.263 353.792 123.587 353.783 123.981C353.774 124.356 353.48 124.657 353.116 124.66L334.981 124.857C334.632 124.861 334.337 124.59 334.301 124.231L334.292 124.14C334.251 123.73 334.56 123.373 334.959 123.371Z" fill="white"/>
<path opacity="0.78" d="M335.106 127.624C339.119 127.628 354.525 127.622 358.415 127.62C358.905 127.62 359.304 127.946 359.295 128.341C359.286 128.716 358.911 129.014 358.442 129.016L335.147 129.11C334.699 129.112 334.316 128.839 334.267 128.48L334.254 128.39C334.199 127.98 334.594 127.624 335.106 127.624Z" fill="white"/>
<path opacity="0.78" d="M334.757 130.927C337.896 130.933 349.945 130.939 352.987 130.941C353.371 130.941 353.678 131.267 353.667 131.662C353.656 132.036 353.358 132.335 352.992 132.337L334.772 132.413C334.421 132.415 334.126 132.14 334.091 131.783L334.082 131.693C334.044 131.283 334.357 130.927 334.757 130.927Z" fill="white"/>
<path opacity="0.78" d="M334.908 135.281C338.921 135.285 354.327 135.279 358.217 135.277C358.707 135.277 359.106 135.603 359.097 135.997C359.087 136.372 358.712 136.671 358.244 136.673L334.948 136.767C334.5 136.769 334.118 136.496 334.069 136.137L334.056 136.047C334.001 135.636 334.394 135.281 334.908 135.281Z" fill="white"/>
<g opacity="0.74">
<path opacity="0.78" d="M334.665 138.545C337.804 138.551 349.853 138.557 352.895 138.559C353.279 138.559 353.586 138.885 353.575 139.279C353.564 139.654 353.266 139.952 352.9 139.954L334.68 140.031C334.329 140.033 334.034 139.758 334 139.401L333.99 139.311C333.952 138.898 334.265 138.545 334.665 138.545Z" fill="white"/>
</g>
<path opacity="0.48" d="M335.146 142.848C339.159 142.852 354.564 142.846 358.454 142.844C358.945 142.844 359.343 143.17 359.334 143.564C359.325 143.939 358.95 144.237 358.482 144.239L335.186 144.335C334.738 144.337 334.356 144.065 334.306 143.705L334.294 143.615C334.237 143.203 334.632 142.848 335.146 142.848Z" fill="white"/>
<path opacity="0.36" d="M334.92 146.465C338.018 146.465 349.916 146.449 352.919 146.443C353.298 146.443 353.601 146.769 353.59 147.164C353.579 147.539 353.287 147.837 352.924 147.839L334.934 147.951C334.589 147.953 334.296 147.68 334.261 147.321L334.252 147.23C334.214 146.822 334.523 146.465 334.92 146.465Z" fill="white"/>
<g opacity="0.78">
<path opacity="0.78" d="M337.853 113.908L336.88 117.07H335.629L338.813 107.015H340.273L343.47 117.07H342.177L341.176 113.908H337.853ZM340.926 112.893L340.008 109.998C339.799 109.343 339.66 108.746 339.521 108.163H339.494C339.355 108.76 339.201 109.372 339.022 109.983L338.104 112.891H340.926V112.893Z" fill="white"/>
</g>
<defs>
<clipPath id="clip0_1_1291">
<rect width="43.9471" height="56.2" fill="white" transform="translate(257 186)"/>
</clipPath>
</defs>
</svg>
