<svg width="1347" height="462" viewBox="0 0 1347 462" fill="none" xmlns="http://www.w3.org/2000/svg">
<path d="M263.5 27C256.065 27 250 20.9348 250 13.5C250 6.06522 256.065 0 263.5 0C270.935 0 277 6.06522 277 13.5C277 20.9348 270.935 27 263.5 27ZM263.5 4.82607C258.739 4.82607 254.891 8.6739 254.891 13.4348C254.891 18.1956 258.739 22.0435 263.5 22.0435C268.261 22.0435 272.109 18.1956 272.109 13.4348C272.109 8.6739 268.261 4.82607 263.5 4.82607Z" fill="#FFCE57"/>
<path d="M1331 90C1322.19 90 1315 82.8116 1315 74C1315 65.1884 1322.19 58 1331 58C1339.81 58 1347 65.1884 1347 74C1347 82.8116 1339.81 90 1331 90ZM1331 63.7198C1325.36 63.7198 1320.8 68.2802 1320.8 73.9227C1320.8 79.5652 1325.36 84.1256 1331 84.1256C1336.64 84.1256 1341.2 79.5652 1341.2 73.9227C1341.2 68.2802 1336.64 63.7198 1331 63.7198Z" fill="#FFCE57" fill-opacity="0.7"/>
<path d="M9.99996 462C4.49272 462 0 457.507 0 452C0 446.493 4.49272 442 9.99996 442C15.5072 442 20 446.493 20 452C20 457.507 15.5072 462 9.99996 462ZM9.99996 445.575C6.47339 445.575 3.62319 448.425 3.62319 451.952C3.62319 455.478 6.47339 458.328 9.99996 458.328C13.5265 458.328 16.3768 455.478 16.3768 451.952C16.3768 448.425 13.5265 445.575 9.99996 445.575Z" fill="#5AA5FE"/>
</svg>
