<svg width="1328" height="459" viewBox="0 0 1328 459" fill="none" xmlns="http://www.w3.org/2000/svg">
<path d="M189 212C184.594 212 181 208.406 181 204C181 199.594 184.594 196 189 196C193.406 196 197 199.594 197 204C197 208.406 193.406 212 189 212ZM189 198.86C186.179 198.86 183.899 201.14 183.899 203.961C183.899 206.783 186.179 209.063 189 209.063C191.821 209.063 194.101 206.783 194.101 203.961C194.101 201.14 191.783 198.86 189 198.86Z" fill="#FFCE57"/>
<path d="M1243 241C1238.59 241 1235 237.406 1235 233C1235 228.594 1238.59 225 1243 225C1247.41 225 1251 228.594 1251 233C1251 237.406 1247.41 241 1243 241ZM1243 227.86C1240.18 227.86 1237.9 230.14 1237.9 232.961C1237.9 235.783 1240.18 238.063 1243 238.063C1245.82 238.063 1248.1 235.783 1248.1 232.961C1248.1 230.14 1245.78 227.86 1243 227.86Z" fill="#5AA5FE"/>
<path d="M262 434.5C262 436.995 264.005 439 266.5 439C268.995 439 271 436.995 271 434.5C271 432.005 268.995 430 266.5 430C264.005 430 262 432.045 262 434.5Z" fill="#FEEBE8"/>
<path d="M0.100848 269.984C-0.446027 272.714 1.28577 275.353 3.97458 275.899C6.70896 276.445 9.35227 274.716 9.89915 272.031C10.446 269.301 8.71423 266.662 6.02542 266.116C3.33661 265.524 0.647724 267.254 0.100848 269.984Z" fill="#5AA5FE"/>
<path d="M1036.1 231.984C1035.55 234.714 1037.29 237.353 1039.97 237.899C1042.71 238.445 1045.35 236.716 1045.9 234.031C1046.45 231.301 1044.71 228.662 1042.03 228.116C1039.34 227.524 1036.65 229.254 1036.1 231.984Z" fill="#FFCE57"/>
<path d="M118.211 342.943C117.089 348.355 120.555 353.667 125.937 354.789C131.351 355.911 136.666 352.446 137.789 347.068C138.911 341.656 135.445 336.344 130.063 335.222C124.649 334.067 119.334 337.532 118.211 342.943Z" fill="#FEEBE8"/>
<path d="M59 4.5C59 6.99 56.99 9 54.5 9C52.01 9 50 6.99 50 4.5C50 2.01 52.01 0 54.5 0C56.99 0 59 2.01 59 4.5Z" fill="#121936"/>
<path d="M1214 61C1214 63.75 1211.77 66 1209 66C1206.25 66 1204 63.7667 1204 61C1204 58.2333 1206.23 56 1209 56C1211.77 56 1214 58.25 1214 61Z" fill="#121936"/>
<path d="M1328 452.5C1328 456.105 1325.07 459 1321.5 459C1317.9 459 1315 456.075 1315 452.5C1315 448.895 1317.92 446 1321.5 446C1325.07 446 1328 448.895 1328 452.5Z" fill="#FEEBE8"/>
</svg>
