<svg width="40" height="40" viewBox="0 0 40 40" fill="none" xmlns="http://www.w3.org/2000/svg">
<path d="M33.2165 6.49075C32.7098 6.00357 32.1788 5.63332 31.6234 5.37999C31.068 5.12666 30.4883 5 29.8842 5C28.5396 5 27.3314 5.53589 26.2597 6.60767C25.9089 6.93894 19.7413 13.1065 7.75688 25.1104C7.63996 25.2274 7.55227 25.3638 7.49381 25.5197C7.41586 25.8509 6.59741 28.5889 5.03846 33.7334C4.94103 34.1036 5.02872 34.4252 5.30153 34.698C5.32102 34.737 5.35025 34.7662 5.38922 34.7857C5.4282 34.8052 5.4623 34.8246 5.49153 34.8441C5.52076 34.8636 5.55486 34.8831 5.59384 34.9026C5.63281 34.9221 5.67178 34.9367 5.71076 34.9464L5.82768 34.9757L5.9446 34.9903C6.06152 34.9903 6.15896 34.9708 6.2369 34.9318C10.3486 33.5872 13.0378 32.7298 14.3045 32.3596C14.3824 32.3401 14.4555 32.3108 14.5237 32.2719C14.5919 32.2329 14.6552 32.1842 14.7137 32.1257C16.9352 29.9237 20.4721 26.4209 25.3243 21.6174C30.1765 16.8139 32.8365 14.1686 33.3042 13.6814C34.4539 12.4927 35.019 11.265 34.9995 9.99838C34.9605 8.75122 34.3662 7.58201 33.2165 6.49075ZM25.9674 9.58916C26.9417 9.823 27.8576 10.3686 28.715 11.2261C29.0658 11.5768 29.3629 11.9763 29.6065 12.4245C29.8501 12.8727 30.006 13.2088 30.0742 13.4329C30.1424 13.657 30.196 13.8665 30.235 14.0614C27.6043 16.6726 22.45 21.7782 14.7722 29.3781C14.3824 28.4817 13.8465 27.6827 13.1645 26.9812C12.346 26.1627 11.4302 25.5489 10.4168 25.1397L10.4461 25.1104L10.4753 25.0812L10.5045 25.052V25.0228H10.5338L10.563 24.9935L10.5922 24.9643V24.9351H10.6214L10.6507 24.9058L10.6799 24.8766V24.8474H10.7091L10.7384 24.8181L10.7676 24.7889V24.7597H10.7968L10.8261 24.7305L10.8553 24.7012L10.8845 24.672V24.6428H10.9138L10.943 24.6135L10.9722 24.5843V24.5551H11.0014L11.0307 24.5258L11.0599 24.4966L11.0891 24.4674V24.4381H11.1184L11.1476 24.4089L11.1768 24.3797L11.2061 24.3505V24.3212L11.2353 24.292H11.2645L11.2937 24.2628L11.323 24.2335L11.3522 24.2043V24.1751L11.3814 24.1458H11.4107L11.4399 24.1166L11.4691 24.0874L11.4984 24.0582V24.0289L11.5276 23.9997H11.5568L11.586 23.9705L11.6153 23.9412L11.6445 23.912L11.6737 23.8828V23.8535L11.703 23.8243H11.7322L11.7614 23.7951L11.7907 23.7659L11.8199 23.7366L11.8491 23.7074L11.8784 23.6782V23.6489H11.9076L11.9368 23.6197L11.966 23.5905L11.9953 23.5612L12.0245 23.532L12.0537 23.5028L12.083 23.4735V23.4443L12.1122 23.4151H12.1414L12.1707 23.3859L12.1999 23.3566L12.2291 23.3274L12.2583 23.2982L12.2876 23.2689L12.3168 23.2397L12.346 23.2105V23.1812L12.3753 23.152H12.4045L12.4337 23.1228L12.463 23.0936L12.4922 23.0643L12.5214 23.0351L12.5506 23.0059L12.5799 22.9766L12.6091 22.9474L12.6383 22.9182L12.6676 22.8889V22.8597L12.6968 22.8305L12.726 22.8013H12.7553L12.7845 22.772L12.8137 22.7428L12.843 22.7136L12.8722 22.6843L12.9014 22.6551L12.9306 22.6259L12.9599 22.5966L12.9891 22.5674L13.0183 22.5382L13.0476 22.5089L13.0768 22.4797V22.4505L13.106 22.4213L13.1353 22.392L13.1645 22.3628H13.1937L13.2229 22.3336L13.2522 22.3043L13.2814 22.2751L13.3106 22.2459L13.3399 22.2166L13.3691 22.1874L13.3983 22.1582L13.4276 22.129L13.4568 22.0997L13.486 22.0705L13.5152 22.0413L13.5445 22.012L13.5737 21.9828L13.6029 21.9536L13.6322 21.9243L13.6614 21.8951L13.6906 21.8659L13.7199 21.8367L13.7491 21.8074V21.7782L13.7783 21.749L13.8076 21.7197L13.8368 21.6905L13.866 21.6613L13.8952 21.632L13.9245 21.6028L13.9537 21.5736L13.9829 21.5443L14.0122 21.5151H14.0414L14.0706 21.4859L14.0999 21.4567L14.1291 21.4274L14.1583 21.3982L14.1875 21.369L14.2168 21.3397L14.246 21.3105L14.2752 21.2813L14.3045 21.252L14.3337 21.2228L14.3629 21.1936L14.3922 21.1644L14.4214 21.1351L14.4506 21.1059L14.4798 21.0767L14.5091 21.0474L14.5383 21.0182L14.5675 20.989L14.5968 20.9597L14.626 20.9305L14.6552 20.9013L14.6845 20.8721L14.7137 20.8428L14.7429 20.8136L14.8014 20.7551L14.8306 20.7259L14.8598 20.6967L14.8891 20.6674L14.9183 20.6382L14.9475 20.609L14.9768 20.5797L15.006 20.5505L15.0352 20.5213L15.0645 20.4921L15.0937 20.4628L15.1229 20.4336L15.1521 20.4044L15.1814 20.3459L15.2106 20.3167L15.2398 20.2874L15.2691 20.2582L15.2983 20.229L15.3568 20.1998L15.386 20.1705L15.4152 20.1413L15.4444 20.1121L15.4737 20.0828L15.5029 20.0536L15.5321 20.0244L15.5614 19.9951L15.5906 19.9659L15.6198 19.9367L15.6491 19.9075L15.6783 19.849L15.7075 19.8198L15.7367 19.7905L15.7952 19.7613L15.8244 19.7321L15.8537 19.7028L15.8829 19.6736L15.9121 19.6444L15.9414 19.6151L15.9706 19.5859L15.9998 19.5567L16.0291 19.5275L16.0583 19.469L16.0875 19.4398L16.1167 19.4105L16.1752 19.3813L16.2044 19.3521L16.2337 19.3228L16.2629 19.2936L16.2921 19.2644L16.3214 19.2352L16.3506 19.2059L16.3798 19.1475L16.409 19.1182L16.4383 19.089L16.4967 19.0598L16.526 19.0305L16.5552 19.0013L16.5844 18.9721L16.6137 18.9429L16.6429 18.9136L16.6721 18.8844L16.7013 18.8259L16.7306 18.7967L16.789 18.7675L16.8183 18.7382L16.8475 18.709L16.8767 18.6798L16.906 18.6505L16.9352 18.6213L16.9644 18.5629L16.9937 18.5336L17.0229 18.5044L17.0813 18.4752L17.1106 18.4459L17.1398 18.4167L17.169 18.3875L17.1983 18.3582L17.2275 18.2998L17.2567 18.2706L17.286 18.2413L17.3444 18.2121L17.3736 18.1829L17.4029 18.1536L17.4321 18.1244L17.4613 18.0952L17.4906 18.0367L17.5198 18.0075L17.5783 17.9783L17.6075 17.949L17.6367 17.9198L17.6659 17.8906L17.6952 17.8613L17.7244 17.8029L17.7536 17.7736L17.8121 17.7444L17.8413 17.7152L17.8706 17.6859L17.8998 17.6567L17.929 17.6275L17.9583 17.569L17.9875 17.5398L18.0459 17.5106L18.0752 17.4813L18.1044 17.4521L18.1336 17.4229L18.1629 17.3936L18.1921 17.3352L18.2213 17.306L18.2798 17.2767L18.309 17.2475L18.3382 17.2183L18.3675 17.189L18.3967 17.1598L18.4259 17.1013L18.4552 17.0721L18.5136 17.0429L18.5429 17.0137L18.5721 16.9844L18.6013 16.9552L18.6305 16.8967L18.6598 16.8675L18.7182 16.8383L18.7475 16.809L18.7767 16.7798L18.8059 16.7506L18.8352 16.6921L18.8644 16.6629L18.9229 16.6337L18.9521 16.6044L18.9813 16.5752L19.0105 16.546L19.0398 16.4875L19.069 16.4583L19.1275 16.429L19.1567 16.3998L19.1859 16.3706L19.2152 16.3414L19.2444 16.2829L19.2736 16.2537L19.3321 16.2244L19.3613 16.1952L19.3905 16.166L19.4198 16.1367L19.449 16.0783L19.4782 16.0491L19.5367 16.0198L19.5659 15.9906L19.5951 15.9614L19.6244 15.9321L19.6536 15.8737L19.6828 15.8444L19.7413 15.8152L19.7705 15.786L19.7998 15.7568L19.829 15.7275L19.8582 15.6691L19.9167 15.6398L19.9459 15.6106L19.9751 15.5814L20.0044 15.5521L20.0336 15.4937L20.0628 15.4644L20.1213 15.4352L20.1505 15.406L20.1798 15.3768L20.209 15.3475L20.2382 15.2891L20.2967 15.2598L20.3259 15.2306L20.3551 15.2014L20.3844 15.1721L20.4136 15.1137L20.4428 15.0845L20.5013 15.0552L20.5305 15.026L20.5597 14.9968L20.589 14.9675L20.6182 14.9091L20.6767 14.8798L20.7059 14.8506L20.7351 14.8214L20.7644 14.7921L20.7936 14.7337L20.8228 14.7045L20.8813 14.6752L20.9105 14.646L20.9397 14.6168L20.969 14.5875L20.9982 14.5291L21.0567 14.4998L21.0859 14.4706L21.1151 14.4414L21.1444 14.4122L21.1736 14.3537L21.2028 14.3245L21.2613 14.2952L21.2905 14.266L21.3197 14.2368L21.349 14.2075L21.3782 14.1491L21.4367 14.1199L21.4659 14.0906L21.4951 14.0614L21.5243 14.0322L21.5536 13.9737L21.5828 13.9445L21.6413 13.9152L21.6705 13.886L21.6997 13.8568L21.729 13.8275L21.7582 13.7691L21.8167 13.7399L21.8459 13.7106L21.8751 13.6814L21.9043 13.6522L21.9336 13.5937L21.9628 13.5645L22.0213 13.5352L22.0505 13.506L22.0797 13.4768L22.109 13.4476L22.1382 13.3891L22.1966 13.3599L22.2259 13.3306L22.2551 13.3014L22.2843 13.2722L22.3136 13.2137L22.3428 13.1845L22.4013 13.1553L22.4305 13.126L22.4597 13.0968L22.4889 13.0676L22.5182 13.0091L22.5474 12.9799L22.6059 12.9506L22.6351 12.9214L22.6643 12.8922L22.6936 12.863L22.7228 12.8045L22.7813 12.7753L22.8105 12.746L22.8397 12.7168L22.8689 12.6876L22.8982 12.6291L22.9274 12.5999L22.9859 12.5706L23.0151 12.5414L23.0443 12.5122L23.0736 12.483L23.1028 12.4245L23.132 12.3953L23.1905 12.366L23.2197 12.3368L23.2489 12.3076L23.2782 12.2783L23.3074 12.2491L23.3366 12.1907L23.3659 12.1614L23.4243 12.1322L23.4535 12.103L23.4828 12.0737L23.512 12.0445L23.5412 11.986L23.5705 11.9568L23.6289 11.9276L23.6582 11.8984L23.6874 11.8691L23.7166 11.8399L23.7459 11.8107L23.7751 11.7522L23.8043 11.723L23.8628 11.6937L23.892 11.6645L23.9212 11.6353L23.9505 11.606L23.9797 11.5768L24.0089 11.5184L24.0382 11.4891L24.0966 11.4599L24.1258 11.4307L24.1551 11.4014L24.1843 11.3722L24.2135 11.343L24.2428 11.2845L24.272 11.2553L24.3012 11.2261L24.3597 11.1968L24.3889 11.1676L24.4181 11.1384L24.4474 11.1091L24.4766 11.0799L24.5058 11.0214L24.5351 10.9922L24.5643 10.963L24.6228 10.9338L24.652 10.9045L24.6812 10.8753L24.7105 10.8461L24.7397 10.8168L24.7689 10.7876L24.7981 10.7291L24.8274 10.6999L24.8566 10.6707L24.8858 10.6414L24.9443 10.6122L24.9735 10.583L25.0028 10.5538L25.032 10.5245L25.0612 10.4953L25.0904 10.4661L25.1197 10.4368L25.1489 10.4076L25.1781 10.3491L25.2074 10.3199L25.2366 10.2907L25.2658 10.2615L25.3243 10.2322L25.3535 10.203L25.3827 10.1738L25.412 10.1445L25.4412 10.1153L25.4704 10.0861L25.4997 10.0568L25.5289 10.0276L25.5581 9.99838L25.5874 9.96915L25.6166 9.93992L25.6458 9.91069L25.6751 9.88146L25.7043 9.85223L25.7335 9.823L25.7627 9.79377L25.792 9.73531L25.8212 9.70608L25.8504 9.67685L25.8797 9.64762L25.9089 9.61839L25.9674 9.58916ZM9.1307 26.7181C10.0856 26.9714 10.982 27.5171 11.8199 28.355C12.4824 29.0176 12.9501 29.797 13.2229 30.6934C12.8332 30.8298 11.9027 31.1416 10.4315 31.6288C8.96019 32.116 7.90303 32.4667 7.25996 32.6811C7.43535 32.0965 7.75688 31.0783 8.22456 29.6265C8.69225 28.1748 8.99429 27.2053 9.1307 26.7181ZM31.9303 12.3368C31.9303 12.3563 31.9206 12.3758 31.9011 12.3953L31.8426 12.4537L31.755 12.5414C31.3652 11.5281 30.8001 10.6414 30.0596 9.88146C29.2801 9.10199 28.413 8.50764 27.4581 8.09841L27.5458 8.01072L27.6042 7.95226C27.7017 7.85483 27.8235 7.74765 27.9696 7.63073C28.1158 7.51381 28.3789 7.36765 28.7588 7.19227C29.1388 7.01689 29.514 6.9292 29.8842 6.9292C30.235 6.9292 30.5809 7.00715 30.9219 7.16304C31.2629 7.31894 31.5893 7.55278 31.9011 7.86457C32.2908 8.23482 32.588 8.60507 32.7926 8.97532C32.9972 9.34557 33.0995 9.70608 33.0995 10.0568C33.0995 10.7779 32.7098 11.5378 31.9303 12.3368Z" fill="#0759E4"/>
</svg>
