<svg width="1403" height="329" viewBox="0 0 1403 329" fill="none" xmlns="http://www.w3.org/2000/svg">
<path d="M1397.5 11C1400.54 11 1403 8.53757 1403 5.5C1403 2.46244 1400.54 0 1397.5 0C1394.46 0 1392 2.46244 1392 5.5C1392 8.53757 1394.46 11 1397.5 11Z" fill="#5AA5FE"/>
<path d="M-0.000125885 329C-18.7248 329 -34 313.725 -34 295C-34 276.275 -18.7248 261 -0.000125885 261C18.7245 261 34 276.275 34 295C34 313.725 18.7245 329 -0.000125885 329ZM-0.000125885 273.155C-11.9905 273.155 -21.6812 282.845 -21.6812 294.836C-21.6812 306.826 -11.9905 316.517 -0.000125885 316.517C11.9902 316.517 21.6812 306.826 21.6812 294.836C21.6812 282.845 11.9902 273.155 -0.000125885 273.155Z" fill="#FFCE57" fill-opacity="0.6"/>
</svg>
