<svg width="36" height="30" viewBox="0 0 36 30" fill="none" xmlns="http://www.w3.org/2000/svg">
<path d="M24.1817 29.0001V25.889C24.1817 24.2387 23.5304 22.6561 22.3711 21.4892C21.2118 20.3223 19.6394 19.6667 17.9999 19.6667H7.18179C5.54227 19.6667 3.96991 20.3223 2.8106 21.4892C1.65129 22.6561 1 24.2387 1 25.889V29.0001" stroke="#0759E4" stroke-width="2" stroke-linecap="round" stroke-linejoin="round"/>
<path d="M12.5907 13.4444C16.0048 13.4444 18.7725 10.6587 18.7725 7.22222C18.7725 3.78578 16.0048 1 12.5907 1C9.17662 1 6.40894 3.78578 6.40894 7.22222C6.40894 10.6587 9.17662 13.4444 12.5907 13.4444Z" stroke="#0759E4" stroke-width="2" stroke-linecap="round" stroke-linejoin="round"/>
<path d="M30.3636 8.77783V18.1112" stroke="#0759E4" stroke-width="2" stroke-linecap="round" stroke-linejoin="round"/>
<path d="M34.9996 13.4443H25.7269" stroke="#0759E4" stroke-width="2" stroke-linecap="round" stroke-linejoin="round"/>
</svg>
