<svg width="1343" height="381" viewBox="0 0 1343 381" fill="none" xmlns="http://www.w3.org/2000/svg">
<path d="M1294 381C1286.84 381 1281 375.159 1281 368C1281 360.841 1286.84 355 1294 355C1301.16 355 1307 360.841 1307 368C1307 375.159 1301.16 381 1294 381ZM1294 359.647C1289.42 359.647 1285.71 363.353 1285.71 367.937C1285.71 372.522 1289.42 376.227 1294 376.227C1298.58 376.227 1302.29 372.522 1302.29 367.937C1302.29 363.353 1298.52 359.647 1294 359.647Z" fill="#FFCE57"/>
<path d="M7 345C10.866 345 14 341.866 14 338C14 334.134 10.866 331 7 331C3.13401 331 0 334.134 0 338C0 341.866 3.13401 345 7 345Z" fill="#FFCE57"/>
<path d="M25.5 41C19.1666 41 14 35.8333 14 29.5C14 23.1667 19.1666 18 25.5 18C31.8333 18 37 23.1667 37 29.5C37 35.8333 31.8333 41 25.5 41ZM25.5 22.1111C21.4444 22.1111 18.1667 25.3889 18.1667 29.4444C18.1667 33.5 21.4444 36.7778 25.5 36.7778C29.5555 36.7778 32.8333 33.5 32.8333 29.4444C32.8333 25.3889 29.5555 22.1111 25.5 22.1111Z" fill="#5AA5FE"/>
<path d="M1343 6C1343 9.32 1340.32 12 1337 12C1333.68 12 1331 9.32 1331 6C1331 2.68 1333.68 0 1337 0C1340.32 0 1343 2.68 1343 6Z" fill="#121936"/>
</svg>
