<svg width="32" height="32" viewBox="0 0 32 32" fill="none" xmlns="http://www.w3.org/2000/svg">
<path d="M0.95 22V28C0.95 29.6846 2.31539 31.05 4 31.05H28C29.6846 31.05 31.05 29.6846 31.05 28V22C31.05 21.4204 30.5796 20.95 30 20.95C29.4204 20.95 28.95 21.4204 28.95 22V28C28.95 28.5244 28.5244 28.95 28 28.95H27.9697H27.9392H27.9085H27.8776H27.8466H27.8153H27.7839H27.7522H27.7204H27.6884H27.6562H27.6238H27.5912H27.5584H27.5255H27.4923H27.459H27.4255H27.3918H27.358H27.3239H27.2897H27.2553H27.2207H27.1859H27.151H27.1159H27.0806H27.0452H27.0095H26.9737H26.9377H26.9016H26.8653H26.8288H26.7921H26.7553H26.7183H26.6812H26.6438H26.6063H26.5687H26.5309H26.4929H26.4548H26.4165H26.378H26.3394H26.3006H26.2617H26.2226H26.1833H26.1439H26.1044H26.0646H26.0248H25.9847H25.9446H25.9042H25.8638H25.8231H25.7824H25.7415H25.7004H25.6592H25.6178H25.5763H25.5346H25.4929H25.4509H25.4088H25.3666H25.3243H25.2818H25.2391H25.1963H25.1534H25.1104H25.0672H25.0239H24.9804H24.9368H24.8931H24.8492H24.8052H24.7611H24.7169H24.6725H24.628H24.5834H24.5386H24.4937H24.4487H24.4036H24.3583H24.3129H24.2674H24.2218H24.1761H24.1302H24.0842H24.0381H23.9919H23.9456H23.8991H23.8525H23.8059H23.7591H23.7122H23.6651H23.618H23.5708H23.5234H23.4759H23.4284H23.3807H23.3329H23.285H23.237H23.1889H23.1407H23.0924H23.044H22.9955H22.9469H22.8982H22.8493H22.8004H22.7514H22.7023H22.6531H22.6038H22.5544H22.5049H22.4554H22.4057H22.3559H22.3061H22.2561H22.2061H22.156H22.1058H22.0555H22.0051H21.9546H21.9041H21.8534H21.8027H21.7519H21.701H21.6501H21.599H21.5479H21.4967H21.4454H21.3941H21.3426H21.2911H21.2395H21.1879H21.1361H21.0843H21.0325H20.9805H20.9285H20.8764H20.8243H20.772H20.7197H20.6674H20.615H20.5625H20.5099H20.4573H20.4046H20.3519H20.2991H20.2462H20.1933H20.1403H20.0873H20.0342H19.981H19.9278H19.8746H19.8213H19.7679H19.7145H19.661H19.6075H19.5539H19.5003H19.4466H19.3929H19.3391H19.2853H19.2314H19.1775H19.1236H19.0696H19.0155H18.9615H18.9073H18.8532H18.799H18.7447H18.6905H18.6361H18.5818H18.5274H18.473H18.4185H18.364H18.3095H18.255H18.2004H18.1458H18.0911H18.0364H17.9817H17.927H17.8722H17.8175H17.7626H17.7078H17.653H17.5981H17.5432H17.4882H17.4333H17.3783H17.3234H17.2683H17.2133H17.1583H17.1032H17.0482H16.9931H16.938H16.8829H16.8278H16.7726H16.7175H16.6623H16.6072H16.552H16.4968H16.4416H16.3864H16.3313H16.276H16.2208H16.1656H16.1104H16.0552H16H15.9448H15.8896H15.8344H15.7792H15.724H15.6687H15.6136H15.5584H15.5032H15.448H15.3928H15.3377H15.2825H15.2274H15.1722H15.1171H15.062H15.0069H14.9518H14.8968H14.8417H14.7867H14.7317H14.6766H14.6217H14.5667H14.5118H14.4568H14.4019H14.347H14.2922H14.2374H14.1825H14.1278H14.073H14.0183H13.9636H13.9089H13.8542H13.7996H13.745H13.6905H13.636H13.5815H13.527H13.4726H13.4182H13.3639H13.3095H13.2553H13.201H13.1468H13.0927H13.0385H12.9845H12.9304H12.8764H12.8225H12.7686H12.7147H12.6609H12.6071H12.5534H12.4997H12.4461H12.3925H12.339H12.2855H12.2321H12.1787H12.1254H12.0722H12.019H11.9658H11.9127H11.8597H11.8067H11.7538H11.7009H11.6481H11.5954H11.5427H11.4901H11.4375H11.385H11.3326H11.2803H11.228H11.1757H11.1236H11.0715H11.0195H10.9675H10.9157H10.8639H10.8121H10.7605H10.7089H10.6574H10.6059H10.5546H10.5033H10.4521H10.401H10.3499H10.299H10.2481H10.1973H10.1466H10.0959H10.0454H9.9949H9.94452H9.89422H9.84401H9.79389H9.74386H9.69392H9.64406H9.5943H9.54463H9.49505H9.44557H9.39617H9.34688H9.29768H9.24857H9.19956H9.15065H9.10184H9.05313H9.00451H8.956H8.90759H8.85928H8.81108H8.76298H8.71498H8.66709H8.6193H8.57163H8.52405H8.47659H8.42924H8.382H8.33486H8.28784H8.24093H8.19414H8.14745H8.10089H8.05443H8.0081H7.96188H7.91578H7.86979H7.82393H7.77818H7.73256H7.68706H7.64167H7.59642H7.55128H7.50627H7.46139H7.41663H7.372H7.32749H7.28312H7.23887H7.19475H7.15077H7.10691H7.06319H7.0196H6.97614H6.93282H6.88963H6.84658H6.80366H6.76088H6.71825H6.67574H6.63338H6.59116H6.54908H6.50715H6.46535H6.4237H6.38219H6.34083H6.29962H6.25855H6.21763H6.17685H6.13623H6.09575H6.05543H6.01525H5.97523H5.93536H5.89565H5.85608H5.81668H5.77743H5.73833H5.69939H5.66062H5.62199H5.58353H5.54523H5.50709H5.46912H5.4313H5.39365H5.35616H5.31884H5.28168H5.24469H5.20787H5.17121H5.13473H5.09841H5.06226H5.02628H4.99048H4.95485H4.91939H4.8841H4.849H4.81406H4.7793H4.74472H4.71032H4.6761H4.64205H4.60819H4.5745H4.541H4.50768H4.47454H4.44159H4.40882H4.37624H4.34384H4.31164H4.27961H4.24778H4.21614H4.18469H4.15342H4.12235H4.09147H4.06079H4.0303H4C3.47561 28.95 3.05 28.5244 3.05 28V22C3.05 21.4204 2.57961 20.95 2 20.95C1.42039 20.95 0.95 21.4204 0.95 22Z" fill="#0759E4" stroke="#0759E4" stroke-width="0.1"/>
<path d="M14.95 4.54307V22C14.95 22.5796 15.4204 23.05 16 23.05C16.5796 23.05 17.05 22.5796 17.05 22V4.52736L21.2587 8.71843L21.2588 8.71849C21.6703 9.12687 22.3349 9.12587 22.7444 8.71531L22.7445 8.71527C23.1529 8.30471 23.1518 7.63908 22.7413 7.2296L22.7413 7.22957L16.7413 1.25557L16.7412 1.25551C16.3297 0.847136 15.6651 0.848135 15.2556 1.25869L15.2556 1.25872L9.25556 7.28472L9.25555 7.28474C8.84708 7.6953 8.84817 8.36092 9.2587 8.7704L9.25875 8.77045C9.66932 9.17892 10.335 9.17785 10.7445 8.76627L14.95 4.54307Z" fill="#0759E4" stroke="#0759E4" stroke-width="0.1"/>
</svg>
