<svg width="62" height="53" viewBox="0 0 62 53" fill="none" xmlns="http://www.w3.org/2000/svg">
<circle cx="53.0015" cy="44.9999" r="8" transform="rotate(-180 53.0015 44.9999)" fill="#C0D7FF"/>
<rect x="21.7778" y="13.9625" width="16" height="16" rx="1" transform="rotate(150.769 21.7778 13.9625)" fill="#FFE6BE"/>
<path d="M54 40.292V17.3205C53.9994 16.8372 53.8072 16.3738 53.4654 16.032C53.1236 15.6902 52.6602 15.4979 52.1768 15.4974H50.2395C50.1084 15.2774 49.9322 15.0876 49.7225 14.9405C43.9849 11.0326 38.1634 11.019 32.4218 14.9011C26.6795 11.0195 20.8599 11.0332 15.1199 14.941C14.9105 15.088 14.7346 15.2776 14.6038 15.4974H12.8232C12.3398 15.4979 11.8764 15.6902 11.5346 16.032C11.1928 16.3738 11.0006 16.8372 11 17.3205V40.292C11.0006 40.7754 11.1929 41.2387 11.5347 41.5805C11.8765 41.9223 12.3398 42.1146 12.8232 42.1152H52.1768C52.6602 42.1146 53.1235 41.9223 53.4653 41.5805C53.8071 41.2387 53.9994 40.7754 54 40.292ZM33.3862 16.4477C38.5388 12.9389 43.5453 12.9402 48.6979 16.4561L48.7023 37.1905C46.3642 35.8755 43.7268 35.1845 41.0442 35.184C38.3615 35.1835 35.724 35.8736 33.3853 37.1879L33.3862 16.4477ZM16.1463 16.4477C21.298 12.9393 26.3054 12.9389 31.4589 16.4561L31.4634 37.1905C29.1131 35.903 26.4819 35.2139 23.8022 35.184C21.1242 35.2138 18.4947 35.902 16.1455 37.1879L16.1463 16.4477ZM12.8232 17.3205H14.3223V37.1959C14.3224 37.5092 14.4036 37.8172 14.5578 38.09C14.712 38.3628 14.934 38.5911 15.2024 38.7529C15.4708 38.9146 15.7764 39.0043 16.0897 39.0132C16.4029 39.022 16.7131 38.9499 16.9903 38.8036C19.0646 37.6179 21.4125 36.9942 23.8017 36.9942C26.191 36.9942 28.5389 37.6179 30.6132 38.8036C30.8904 38.951 31.2013 39.0238 31.5151 39.0147C31.829 39.0057 32.1351 38.9151 32.4034 38.752C32.4104 38.7478 32.4152 38.7415 32.4221 38.7372C32.429 38.7415 32.4338 38.7478 32.4408 38.752C32.7089 38.9152 33.0149 39.0058 33.3286 39.0148C33.6424 39.0239 33.9531 38.9511 34.2301 38.8036C36.3043 37.6179 38.652 36.9942 41.0412 36.9942C43.4303 36.9942 45.778 37.6179 47.8522 38.8036C48.1294 38.951 48.4403 39.0238 48.7541 39.0147C49.068 39.0057 49.3741 38.9151 49.6424 38.752C49.9114 38.5913 50.134 38.3633 50.288 38.0904C50.4421 37.8176 50.5224 37.5093 50.5211 37.1959V17.3205H52.1768V40.292H12.8232V17.3205Z" fill="#0B1940"/>
</svg>
