<svg width="55" height="50" viewBox="0 0 55 50" fill="none" xmlns="http://www.w3.org/2000/svg">
<circle cx="9" cy="41" r="9" fill="#FFE6BE"/>
<rect x="43.9434" y="3" width="16" height="16" rx="1" transform="rotate(48.2823 43.9434 3)" fill="#C0D7FF"/>
<path d="M24 6C22.9136 6 21.9401 6.59827 21.4593 7.56135L17.2552 15.9823C17.1726 16.1476 17.013 16.2621 16.8284 16.2887L7.42796 17.6389C6.35288 17.7933 5.47668 18.5238 5.14086 19.5452C4.80505 20.5666 5.07969 21.6668 5.85772 22.4165L12.66 28.9711C12.7935 29.0999 12.8546 29.2853 12.8231 29.4671L11.2173 38.7226C11.0337 39.7811 11.4655 40.8307 12.3444 41.4619C13.2233 42.0934 14.3667 42.1749 15.3282 41.6753L23.7363 37.3054C23.9014 37.2196 24.0986 37.2196 24.2638 37.3054L32.6719 41.6753C33.0902 41.8927 33.5427 42.0001 33.9931 42C34.5779 42 35.1591 41.8189 35.6556 41.4619C36.5345 40.8306 36.9665 39.7808 36.7828 38.7224L35.1769 29.4669C35.1454 29.2852 35.2064 29.0999 35.3399 28.9711L42.1422 22.4165C42.9202 21.6668 43.1949 20.5666 42.8593 19.5452C42.5235 18.5238 41.6471 17.7933 40.572 17.6389L31.1714 16.2887C30.9868 16.2622 30.8273 16.1476 30.7448 15.9821L26.5406 7.56135C26.0599 6.59827 25.0864 6 24 6ZM24.0003 8.2407C24.1061 8.2407 24.3676 8.27102 24.5084 8.5529L28.7123 16.974C29.1251 17.801 29.9226 18.3737 30.8455 18.5062L40.2462 19.8566C40.5608 19.9017 40.6709 20.1382 40.7036 20.2378C40.7363 20.3375 40.7879 20.5927 40.5602 20.812L33.7579 27.3669C33.0899 28.0104 32.7854 28.9371 32.943 29.8459L34.549 39.1015C34.6027 39.4113 34.4092 39.5879 34.3235 39.6493C34.2377 39.7107 34.008 39.8383 33.7268 39.6919L25.3186 35.3222C24.9059 35.1078 24.453 35.0003 24.0001 35.0003C23.5473 35.0003 23.0945 35.1077 22.6818 35.322L14.2737 39.6918C13.9923 39.838 13.7625 39.7106 13.6768 39.6492C13.5911 39.5877 13.3977 39.4111 13.4515 39.1014L15.0573 29.8459C15.2149 28.9371 14.9104 28.0105 14.2424 27.3669L7.44009 20.812C7.21244 20.5925 7.26388 20.3372 7.29669 20.2377C7.32933 20.138 7.43952 19.9016 7.75411 19.8564L17.1546 18.506C18.0775 18.3735 18.8751 17.8008 19.2879 16.9738L23.4921 8.55289C23.6328 8.2711 23.8943 8.2407 24.0003 8.2407Z" fill="#0B1940"/>
</svg>
