<svg width="61" height="51" viewBox="0 0 61 51" fill="none" xmlns="http://www.w3.org/2000/svg">
<circle cx="8" cy="43" r="8" fill="#FFE6BE"/>
<rect x="49.2627" width="16" height="16" rx="1" transform="rotate(44.7447 49.2627 0)" fill="#C0D7FF"/>
<path d="M21.2047 27.965L21.1368 27.9021L21.0689 27.9651L12.2053 36.183V13.8421C12.2053 11.7624 14.0477 10.0474 16.3158 10.0474H43.6842C45.9523 10.0474 47.7947 11.7624 47.7947 13.8421V33.0871L36.9942 23.0966L36.9263 23.0338L36.8584 23.0966L26.4 32.7706L21.2047 27.965ZM26.3321 35.7455L26.4 35.8083L26.4679 35.7455L36.9264 26.0714L47.7947 36.1054V39.1579C47.7947 41.2376 45.9523 42.9526 43.6842 42.9526H16.3158C14.0636 42.9526 12.231 41.2614 12.2055 39.2014L21.1368 30.9399L26.3321 35.7455ZM43.6842 7.9H16.3158C12.7733 7.9 9.9 10.547 9.9 13.8421V39.1579C9.9 42.453 12.7733 45.1 16.3158 45.1H43.6842C47.2267 45.1 50.1 42.453 50.1 39.1579V13.8421C50.1 10.547 47.2267 7.9 43.6842 7.9ZM26.9421 18.7105C26.9421 15.9607 24.532 13.7421 21.5789 13.7421C18.6259 13.7421 16.2158 15.9607 16.2158 18.7105C16.2158 21.4603 18.6259 23.6789 21.5789 23.6789C24.532 23.6789 26.9421 21.4603 26.9421 18.7105ZM18.5211 18.7105C18.5211 17.1566 19.8793 15.8895 21.5789 15.8895C23.2786 15.8895 24.6368 17.1566 24.6368 18.7105C24.6368 20.2644 23.2786 21.5316 21.5789 21.5316C19.8793 21.5316 18.5211 20.2644 18.5211 18.7105Z" fill="#0B1940" stroke="#0B1940" stroke-width="0.2"/>
</svg>
