<svg width="57" height="53" viewBox="0 0 57 53" fill="none" xmlns="http://www.w3.org/2000/svg">
<rect y="3.32654" width="16" height="16" rx="1" transform="rotate(-12 0 3.32654)" fill="#C0D7FF"/>
<circle cx="49" cy="45" r="8" transform="rotate(-180 49 45)" fill="#FFE6BE"/>
<path d="M42.2105 26.4118C38.6284 26.4118 35.7368 23.4953 35.7368 19.8824V11.1765H18.4737C16.1 11.1765 14.1579 13.1353 14.1579 15.5294V39.4706C14.1579 41.8647 16.1 43.8235 18.4737 43.8235H46.5263C48.9 43.8235 50.8421 41.8647 50.8421 39.4706V26.4118H42.2105ZM37.8947 19.8824C37.8947 22.2765 39.8368 24.2353 42.2105 24.2353H49.9574L37.8947 12.0688V19.8824ZM18.4737 9H37.8947L53 24.2353V39.4706C53 43.0835 50.1084 46 46.5263 46H18.4737C14.8916 46 12 43.0835 12 39.4706V15.5294C12 11.9165 14.8916 9 18.4737 9ZM18.4737 17.7059H31.4211V19.8824H18.4737V17.7059ZM18.4737 26.4118H31.4211V28.5882H18.4737V26.4118ZM18.4737 35.1176H46.5263V37.2941H18.4737V35.1176Z" fill="#0B1940"/>
</svg>
