<svg width="63" height="52" viewBox="0 0 63 52" fill="none" xmlns="http://www.w3.org/2000/svg">
<ellipse cx="8.01418" cy="11" rx="8.01418" ry="8" fill="#FFE6BE"/>
<rect width="16.0157" height="16.0127" rx="1" transform="matrix(0.743734 0.668476 -0.669785 0.742555 50.7246 29)" fill="#C0D7FF"/>
<path d="M12.0004 10C9.78112 10 8.00037 11.8666 8.00037 14.1094V34.875C8.00037 37.1177 9.78112 39 12.0004 39H47.0004C49.2198 39 51.0004 37.1177 51.0004 34.875V14.1094C51.0004 11.8666 49.2198 10 47.0004 10H12.0004ZM12.0004 12H47.0004C47.2889 12 47.5652 12.0752 47.8129 12.1875L30.8598 27.4687C30.0705 28.1806 28.9786 28.1807 28.1879 27.4687L11.2035 12.1719C11.4461 12.0651 11.7194 12 12.0004 12ZM10.0317 13.8125L22.0942 24.6719L10.2504 35.9062C10.0945 35.6033 10.0004 35.2554 10.0004 34.875V14.1094C10.0004 14.0068 10.0194 13.9102 10.0319 13.8125H10.0317ZM48.9692 13.8125C48.9817 13.9102 49.0002 14.0068 49.0002 14.1094V34.875C49.0002 35.2502 48.9022 35.5905 48.7502 35.8906L36.9533 24.6562L48.969 13.8125H48.9692ZM35.4535 26L47.0004 37H12.0004L23.5942 26.0156L26.8442 28.9531C28.36 30.3182 30.6724 30.3201 32.1879 28.9531L35.4535 26Z" fill="#0B1940"/>
</svg>
