<svg width="48" height="51" viewBox="0 0 48 51" fill="none" xmlns="http://www.w3.org/2000/svg">
<circle cx="33" cy="43" r="8" fill="#C0D7FF"/>
<rect y="3.32654" width="16" height="16" rx="1" transform="rotate(-12 0 3.32654)" fill="#FFE6BE"/>
<path d="M29 41C29 43.2 27.2 45 25 45H23C20.8 45 19 43.2 19 41H21C21 42.1 21.9 43 23 43H25C26.1 43 27 42.1 27 41H29ZM31 35C31 37.2 29.2 39 27 39H21C18.8 39 17 37.2 17 35V31C13.4 28.64 11 24.6 11 20C11 12.82 16.82 7 24 7C31.18 7 37 12.82 37 20C37 24.6 34.6 28.64 31 31V35ZM19 35C19 36.1 19.9 37 21 37H27C28.1 37 29 36.1 29 35V29.8C32.56 28 35 24.28 35 20C35 13.92 30.08 9 24 9C17.92 9 13 13.92 13 20C13 24.28 15.44 28 19 29.8V35ZM17.26 21.24L22 16.5L26 20.5L29.5 17L30.92 18.42L26 23.32L22 19.32L18.68 22.66L17.26 21.24Z" fill="black"/>
</svg>
