<svg width="48" height="53" viewBox="0 0 48 53" fill="none" xmlns="http://www.w3.org/2000/svg">
<circle cx="39" cy="45" r="8" fill="#C0D7FF"/>
<rect x="3" y="3.32654" width="16" height="16" rx="1" transform="rotate(-12 3 3.32654)" fill="#FFE6BE"/>
<path d="M33.7286 48.1857C35.114 48.1857 36.241 47.059 36.241 45.6733V11.3267C36.241 9.94103 35.114 8.81429 33.7286 8.81429H14.3267C12.9413 8.81429 11.8143 9.94103 11.8143 11.3267V45.6733C11.8143 47.059 12.9413 48.1857 14.3267 48.1857H33.7286ZM13.3675 14.8484H34.6878V40.3743H13.3675V14.8484ZM14.3267 10.3675H33.7286C34.2573 10.3675 34.6878 10.798 34.6878 11.3267V13.2952H13.3675V11.3267C13.3675 10.798 13.798 10.3675 14.3267 10.3675ZM13.3675 45.6733V41.9275H34.6878V45.6733C34.6878 46.202 34.2573 46.6325 33.7286 46.6325H14.3267C13.798 46.6325 13.3675 46.202 13.3675 45.6733Z" fill="#0B1940" stroke="#0B1940" stroke-width="0.371429"/>
<path d="M22.4832 44.7269H25.5717C25.8983 44.7269 26.1626 44.4623 26.1626 44.136C26.1626 43.8096 25.8983 43.545 25.5717 43.545H22.4832C22.1566 43.545 21.8923 43.8096 21.8923 44.136C21.8923 44.4623 22.1566 44.7269 22.4832 44.7269Z" fill="#0B1940"/>
</svg>
