<svg width="56" height="54" viewBox="0 0 56 54" fill="none" xmlns="http://www.w3.org/2000/svg">
<circle cx="14" cy="8" r="8" transform="rotate(-180 14 8)" fill="#C0D7FF"/>
<rect x="55.7759" y="45.9625" width="16" height="16" rx="1" transform="rotate(150.769 55.7759 45.9625)" fill="#FFE6BE"/>
<path d="M17.1646 10.7867L43.9268 8V35.8667C43.9268 40.072 40.6667 43.4667 36.628 43.4667C32.5894 43.4667 29.3293 40.072 29.3293 35.8667C29.3293 31.6613 32.5894 28.2667 36.628 28.2667C38.5014 28.2667 40.2045 29.0013 41.4939 30.192V18.2347L19.5976 20.768V38.4C19.5976 42.6053 16.3374 46 12.2988 46C8.26012 46 5 42.6053 5 38.4C5 34.1947 8.26012 30.8 12.2988 30.8C14.1721 30.8 15.8752 31.5347 17.1646 32.7253V10.7867ZM19.5976 13.0667V18.2093L41.4939 15.7013V10.7613L19.5976 13.0667ZM17.1646 38.4C17.1646 35.6133 14.975 33.3333 12.2988 33.3333C9.62256 33.3333 7.43293 35.6133 7.43293 38.4C7.43293 41.1867 9.62256 43.4667 12.2988 43.4667C14.975 43.4667 17.1646 41.1867 17.1646 38.4ZM41.4939 35.8667C41.4939 33.08 39.3043 30.8 36.628 30.8C33.9518 30.8 31.7622 33.08 31.7622 35.8667C31.7622 38.6533 33.9518 40.9333 36.628 40.9333C39.3043 40.9333 41.4939 38.6533 41.4939 35.8667Z" fill="#0B1940"/>
</svg>
