<svg width="59" height="51" viewBox="0 0 59 51" fill="none" xmlns="http://www.w3.org/2000/svg">
<circle cx="51" cy="43" r="8" fill="#C0D7FF"/>
<rect y="3.32654" width="16" height="16" rx="1" transform="rotate(-12 0 3.32654)" fill="#FFE6BE"/>
<path d="M43.2941 13.0588H48.8824C49.4996 13.0588 50 13.5855 50 14.2353V44.8235C50 45.4733 49.4996 46 48.8824 46H19.8235C19.2063 46 18.7059 45.4733 18.7059 44.8235V38.9412H13.1176C12.5004 38.9412 12 38.4145 12 37.7647V7.17647C12 6.52672 12.5004 6 13.1176 6H42.1765C42.7937 6 43.2941 6.52672 43.2941 7.17647V13.0588ZM43.2941 15.4118V37.7647C43.2941 38.4145 42.7937 38.9412 42.1765 38.9412H20.9412V43.6471H47.7647V15.4118H43.2941ZM41.0588 13.0588V8.35294H14.2353V36.5882H18.7059V14.2353C18.7059 13.5855 19.2063 13.0588 19.8235 13.0588H41.0588ZM41.0588 15.4118H20.9412V36.5882H41.0588V15.4118Z" fill="#0B1940"/>
</svg>
