<svg width="60" height="51" viewBox="0 0 60 51" fill="none" xmlns="http://www.w3.org/2000/svg">
<circle cx="50" cy="42" r="9" fill="#FFE6BE"/>
<rect y="4.1582" width="20" height="20" rx="1" transform="rotate(-12 0 4.1582)" fill="#C0D7FF"/>
<path d="M19.9412 12H42.1765C44.8941 12 47.1176 14.2235 47.1176 16.9412V23.1176L57 13.2353V37.9412L47.1176 28.0588V34.2353C47.1176 36.9529 44.8941 39.1765 42.1765 39.1765H19.9412C17.2235 39.1765 15 36.9529 15 34.2353V16.9412C15 14.2235 17.2235 12 19.9412 12ZM19.9412 14.4706C18.5824 14.4706 17.4706 15.5824 17.4706 16.9412V34.2353C17.4706 35.5941 18.5824 36.7059 19.9412 36.7059H42.1765C43.5353 36.7059 44.6471 35.5941 44.6471 34.2353V16.9412C44.6471 15.5824 43.5353 14.4706 42.1765 14.4706H19.9412ZM54.5294 19.1894L48.1306 25.5882L54.5294 31.9871V19.1894Z" fill="#0B1940"/>
</svg>
