<svg width="116" height="72" viewBox="0 0 116 72" fill="none" xmlns="http://www.w3.org/2000/svg">
<path fill-rule="evenodd" clip-rule="evenodd" d="M65.7214 9.75266C68.2633 11.4118 71.3462 15.8446 72.4682 19.1159C73.7391 22.8206 72.5451 26.4213 69.5342 29.0636C64.6466 33.3527 61.519 36.3764 59.2701 39.1079C57.5077 41.25 55.2613 43.9839 55.4574 49.5434C50.7659 43.8873 49.8872 35.2075 54.9684 29.5515C60.4343 23.4694 61.4445 22.1693 63.4725 19.5047C65.3317 17.0679 66.0143 13.4598 65.7214 9.75266Z" fill="#838383"/>
<path fill-rule="evenodd" clip-rule="evenodd" d="M44.6065 36.9608C31.6045 25.5521 35.1566 9.69073 54.1854 5.16883C56.2383 4.68098 57.0773 4.45067 58.095 3.99997C59.1723 6.24111 59.3162 7.9003 56.6305 9.75264C49.983 14.3365 39.915 20.4804 44.6065 36.9608Z" fill="#D3D6D6"/>
<path fill-rule="evenodd" clip-rule="evenodd" d="M17.9328 67.418C16.9375 67.8588 16.4336 67.9999 14.8896 67.9999C8.87513 67.9999 4 63.0125 4 56.8562C4 50.7023 8.87513 45.7148 14.8896 45.7148C15.9024 45.7148 16.93 45.856 17.985 46.2027L18.0148 51.7374C17.069 51.1902 16.1109 50.9277 14.8896 50.9277C11.6056 50.9277 8.94463 53.5824 8.94463 56.8562C8.94463 60.1324 11.6056 62.7871 14.8896 62.7871C16.2573 62.7871 17.0094 62.5221 17.8832 62.0194L17.9328 67.418Z" fill="#D3D6D6"/>
<path fill-rule="evenodd" clip-rule="evenodd" d="M88.3042 56.8562C88.3042 63.0125 83.4265 67.9999 77.4146 67.9999C71.3976 67.9999 66.5225 63.0125 66.5225 56.8562C66.5225 50.7023 71.3976 45.7148 77.4146 45.7148C83.4265 45.7148 88.3042 50.7023 88.3042 56.8562ZM77.4146 50.9277C74.1305 50.9277 71.4696 53.5824 71.4696 56.8562C71.4696 60.1324 74.1305 62.7871 77.4146 62.7871C80.6986 62.7871 83.3595 60.1324 83.3595 56.8562C83.3595 53.5824 80.6986 50.9277 77.4146 50.9277Z" fill="#D3D6D6"/>
<path fill-rule="evenodd" clip-rule="evenodd" d="M42.9435 67.683H37.624V54.2733C37.624 49.7787 41.2754 45.7941 45.7782 45.7941C50.2835 45.7941 53.9349 49.7787 53.9349 54.2733V67.7796H48.6154L48.6129 54.2733C48.6129 52.3219 47.3445 51.106 45.7782 51.1035C44.2144 51.1035 42.9435 52.468 42.946 54.2485L42.9435 67.683Z" fill="#D3D6D6"/>
<path fill-rule="evenodd" clip-rule="evenodd" d="M94.9997 67.683H89.6777V54.2733C89.6777 49.7787 93.3291 45.7941 97.8344 45.7941C102.34 45.7941 105.991 49.7787 105.991 54.2733V67.7796H100.669V54.2733C100.669 52.3714 99.4007 51.106 97.8344 51.1035C96.2706 51.1035 94.9997 52.468 94.9997 54.2485V67.683Z" fill="#D3D6D6"/>
<path fill-rule="evenodd" clip-rule="evenodd" d="M25.0065 61.9774V67.6582L19.6846 67.683V54.2733C19.6846 49.7787 23.336 45.7941 27.8412 45.7941C32.3465 45.7941 35.9979 49.7787 35.9979 54.2733V67.7796H30.676V61.9774H25.0065ZM30.676 56.9552V54.2733C30.676 52.3714 29.405 51.106 27.8412 51.1035C26.4065 51.1035 25.0065 52.468 25.0065 54.2485V56.9552H30.676Z" fill="#D3D6D6"/>
<path fill-rule="evenodd" clip-rule="evenodd" d="M62.7391 54.0282L64.4022 57.1014C67.2841 62.1731 64.3525 69.2927 55.3594 67.537V62.5148C59.0728 63.8793 61.0785 61.9279 59.465 58.8077C59.465 58.8077 58.3455 56.7325 57.4122 55.103C55.2477 51.324 57.9955 44.8358 65.7203 46.0815V51.2002C63.8139 49.8357 61.2249 51.2992 62.7391 54.0282Z" fill="#D3D6D6"/>
<path d="M112 48.7633C112 49.3651 111.755 49.9124 111.36 50.3086C110.963 50.7048 110.414 50.9475 109.808 50.9475C109.205 50.9475 108.657 50.7048 108.262 50.3086C108.26 50.3086 108.26 50.3086 108.26 50.3086C107.865 49.9124 107.619 49.3651 107.619 48.7633C107.619 48.1591 107.865 47.6118 108.26 47.2181C108.657 46.8219 109.205 46.5767 109.808 46.5767C110.414 46.5767 110.963 46.8219 111.36 47.2181C111.755 47.6118 112 48.1591 112 48.7633ZM111.194 50.1427C111.546 49.7911 111.767 49.3007 111.767 48.7633C111.767 48.2235 111.546 47.7356 111.194 47.3815C110.839 47.0299 110.35 46.8119 109.808 46.8119C109.27 46.8119 108.778 47.0299 108.426 47.3815C108.071 47.7356 107.852 48.2235 107.852 48.7633C107.852 49.3032 108.071 49.7911 108.426 50.1427C108.778 50.4968 109.27 50.7147 109.808 50.7147C110.35 50.7147 110.839 50.4968 111.194 50.1427Z" fill="#D3D6D6"/>
<path fill-rule="evenodd" clip-rule="evenodd" d="M109.235 47.9188H109.937C110.163 47.9188 110.367 47.9807 110.367 48.2952C110.367 48.5553 110.218 48.689 109.945 48.689H109.235V47.9188ZM108.803 50.0312H109.235V49.0159H109.87C110.267 49.0159 110.362 49.2164 110.362 49.6696C110.362 49.7885 110.362 49.9222 110.426 50.0312H110.89C110.798 49.9297 110.756 49.6696 110.756 49.3824C110.756 48.9936 110.538 48.8821 110.389 48.8598V48.8549C110.471 48.8277 110.798 48.7063 110.798 48.2333C110.798 47.8173 110.523 47.5672 109.982 47.5672H108.803V50.0312Z" fill="#D3D6D6"/>
</svg>
