<svg width="153" height="72" viewBox="0 0 153 72" fill="none" xmlns="http://www.w3.org/2000/svg">
<path d="M41.584 16.0264L22.792 28.0528L41.584 40.0792L22.792 52.1056L4 40.0142L22.792 27.9878L4 16.0264L22.792 4L41.584 16.0264ZM22.6948 55.9736L41.4868 43.9472L60.2788 55.9736L41.4868 68L22.6948 55.9736ZM41.584 40.0142L60.376 27.9878L41.584 16.0264L60.2788 4L79.0708 16.0264L60.2788 28.0528L79.0708 40.0792L60.2788 52.1056L41.584 40.0142Z" fill="#E5E5E5"/>
<path d="M93.8125 16.0263H109.008C118.696 16.0263 126.699 21.6495 126.699 34.4885V37.1863C126.699 50.1228 119.214 55.941 109.3 55.941H93.8125V16.0263ZM102.301 23.2747V48.6601H108.814C114.322 48.6601 118.015 45.0522 118.015 37.0238V34.911C118.015 26.8826 114.127 23.2747 108.522 23.2747H102.301ZM131.202 23.6647H138.006L139.108 31.1731C140.404 26.07 143.708 23.3397 149.702 23.3397H151.808V31.9532H148.309C141.408 31.9532 139.723 34.3585 139.723 41.1843V56.0385H131.332V23.6647H131.202ZM153.493 40.5017V39.5916C153.493 28.7678 160.395 22.8521 169.79 22.8521C179.381 22.8521 186.088 28.7678 186.088 39.5916V40.5017C186.088 51.1304 179.575 56.8511 169.79 56.8511C159.39 56.7536 153.493 51.1629 153.493 40.5017ZM177.502 40.4042V39.5916C177.502 33.5784 174.488 29.9705 169.693 29.9705C164.995 29.9705 161.885 33.2858 161.885 39.5916V40.4042C161.885 46.2224 164.898 49.5377 169.693 49.5377C174.488 49.4402 177.502 46.2224 177.502 40.4042ZM190.494 23.6647H197.493L198.302 29.7754C199.987 25.6799 203.584 22.8521 208.897 22.8521C217.095 22.8521 222.505 28.7678 222.505 39.7216V40.6317C222.505 51.2604 216.511 56.8836 208.897 56.8836C203.811 56.8836 200.311 54.5758 198.594 50.8704V67.2198H190.397L190.494 23.6647ZM213.984 40.4042V39.6891C213.984 33.2533 210.679 30.068 206.273 30.068C201.575 30.068 198.465 33.6759 198.465 39.6891V40.3067C198.465 46.0273 201.478 49.6353 206.176 49.6353C211.003 49.5377 213.984 46.4499 213.984 40.4042ZM234.915 50.0578L234.202 55.9735H227.009V12.8409H235.206V29.3854C237.02 25.1599 240.617 22.8521 245.704 22.8521C253.415 22.9496 259.117 28.2803 259.117 39.0065V40.0141C259.117 50.7404 253.706 56.8836 245.509 56.8836C240.099 56.7536 236.599 54.2508 234.915 50.0578ZM250.499 40.0141V39.2015C250.499 33.2858 247.291 29.9705 242.788 29.9705C238.187 29.9705 234.979 33.6759 234.979 39.299V40.0141C234.979 46.0273 238.09 49.5377 242.691 49.5377C247.615 49.5377 250.499 46.4499 250.499 40.0141ZM262.714 40.5017V39.5916C262.714 28.7678 269.615 22.8521 279.011 22.8521C288.601 22.8521 295.308 28.7678 295.308 39.5916V40.5017C295.308 51.1304 288.698 56.8511 279.011 56.8511C268.61 56.7536 262.714 51.1629 262.714 40.5017ZM286.787 40.4042V39.5916C286.787 33.5784 283.774 29.9705 278.979 29.9705C274.281 29.9705 271.17 33.2858 271.17 39.5916V40.4042C271.17 46.2224 274.183 49.5377 278.979 49.5377C283.806 49.4402 286.787 46.2224 286.787 40.4042ZM306.292 39.2015L294.984 23.6647H304.672L311.184 33.3834L317.794 23.6647H327.384L315.915 39.104L328 55.9735H318.507L311.119 45.2472L303.926 55.9735H294.012L306.292 39.2015Z" fill="#D3D6D6"/>
</svg>
