<svg width="324" height="64" viewBox="0 0 324 64" fill="none" xmlns="http://www.w3.org/2000/svg">
<path d="M37.584 12.0264L18.792 24.0528L37.584 36.0792L18.792 48.1056L0 36.0142L18.792 23.9878L0 12.0264L18.792 0L37.584 12.0264ZM18.6948 51.9736L37.4868 39.9472L56.2788 51.9736L37.4868 64L18.6948 51.9736ZM37.584 36.0142L56.376 23.9878L37.584 12.0264L56.2788 0L75.0708 12.0264L56.2788 24.0528L75.0708 36.0792L56.2788 48.1056L37.584 36.0142Z" fill="#E5E5E5"/>
<path d="M89.8125 12.0263H105.008C114.696 12.0263 122.699 17.6495 122.699 30.4885V33.1863C122.699 46.1228 115.214 51.941 105.3 51.941H89.8125V12.0263ZM98.3013 19.2747V44.6601H104.814C110.322 44.6601 114.015 41.0522 114.015 33.0238V30.911C114.015 22.8826 110.127 19.2747 104.522 19.2747H98.3013ZM127.202 19.6647H134.006L135.108 27.1731C136.404 22.07 139.708 19.3397 145.702 19.3397H147.808V27.9532H144.309C137.408 27.9532 135.723 30.3585 135.723 37.1843V52.0385H127.332V19.6647H127.202ZM149.493 36.5017V35.5916C149.493 24.7678 156.395 18.8521 165.79 18.8521C175.381 18.8521 182.088 24.7678 182.088 35.5916V36.5017C182.088 47.1304 175.575 52.8511 165.79 52.8511C155.39 52.7536 149.493 47.1629 149.493 36.5017ZM173.502 36.4042V35.5916C173.502 29.5784 170.488 25.9705 165.693 25.9705C160.995 25.9705 157.885 29.2858 157.885 35.5916V36.4042C157.885 42.2224 160.898 45.5377 165.693 45.5377C170.488 45.4402 173.502 42.2224 173.502 36.4042ZM186.494 19.6647H193.493L194.302 25.7754C195.987 21.6799 199.584 18.8521 204.897 18.8521C213.095 18.8521 218.505 24.7678 218.505 35.7216V36.6317C218.505 47.2604 212.511 52.8836 204.897 52.8836C199.811 52.8836 196.311 50.5758 194.594 46.8704V63.2198H186.397L186.494 19.6647ZM209.984 36.4042V35.6891C209.984 29.2533 206.679 26.068 202.273 26.068C197.575 26.068 194.465 29.6759 194.465 35.6891V36.3067C194.465 42.0273 197.478 45.6353 202.176 45.6353C207.003 45.5377 209.984 42.4499 209.984 36.4042ZM230.915 46.0578L230.202 51.9735H223.009V8.84094H231.206V25.3854C233.02 21.1599 236.617 18.8521 241.704 18.8521C249.415 18.9496 255.117 24.2803 255.117 35.0065V36.0141C255.117 46.7404 249.706 52.8836 241.509 52.8836C236.099 52.7536 232.599 50.2508 230.915 46.0578ZM246.499 36.0141V35.2015C246.499 29.2858 243.291 25.9705 238.788 25.9705C234.187 25.9705 230.979 29.6759 230.979 35.299V36.0141C230.979 42.0273 234.09 45.5377 238.691 45.5377C243.615 45.5377 246.499 42.4499 246.499 36.0141ZM258.714 36.5017V35.5916C258.714 24.7678 265.615 18.8521 275.011 18.8521C284.601 18.8521 291.308 24.7678 291.308 35.5916V36.5017C291.308 47.1304 284.698 52.8511 275.011 52.8511C264.61 52.7536 258.714 47.1629 258.714 36.5017ZM282.787 36.4042V35.5916C282.787 29.5784 279.774 25.9705 274.979 25.9705C270.281 25.9705 267.17 29.2858 267.17 35.5916V36.4042C267.17 42.2224 270.183 45.5377 274.979 45.5377C279.806 45.4402 282.787 42.2224 282.787 36.4042ZM302.292 35.2015L290.984 19.6647H300.672L307.184 29.3834L313.794 19.6647H323.384L311.915 35.104L324 51.9735H314.507L307.119 41.2472L299.926 51.9735H290.012L302.292 35.2015Z" fill="#D3D6D6"/>
</svg>
