<svg width="166" height="72" viewBox="0 0 166 72" fill="none" xmlns="http://www.w3.org/2000/svg">
<path d="M24.4306 17.9633C13.2864 17.9633 4 22.743 4 37.1629C4 48.5867 10.2445 55.7807 24.7184 55.7807C41.7549 55.7807 42.847 44.4355 42.847 44.4355H34.592C34.592 44.4355 32.8221 50.5444 24.2148 50.5444C17.2045 50.5444 12.1623 45.7569 12.1623 39.0465H43.7102V34.8357C43.7102 28.197 39.5415 17.9633 24.4306 17.9633ZM24.1429 23.345C30.816 23.345 35.3653 27.4778 35.3653 33.6721H12.3449C12.3449 27.0961 18.2829 23.345 24.1429 23.345Z" fill="#D3D6D6"/>
<path d="M43.7044 4.00006V48.5391C43.7044 51.0673 43.5259 54.6171 43.5259 54.6171H51.3994C51.3994 54.6171 51.682 52.0676 51.682 49.7375C51.682 49.7375 55.572 55.8898 66.1493 55.8898C77.2876 55.8898 84.8534 48.0723 84.8534 36.8721C84.8534 26.4526 77.9039 18.0725 66.1673 18.0725C55.1767 18.0725 51.7615 24.0723 51.7615 24.0723V4.00006H43.7044ZM64.135 23.5814C71.6988 23.5814 76.5085 29.2565 76.5085 36.8721C76.5085 45.0384 70.9534 50.3808 64.189 50.3808C56.1162 50.3808 51.7615 44.0087 51.7615 36.9448C51.7615 30.3626 55.6691 23.5814 64.135 23.5814Z" fill="#D3D6D6"/>
<path d="M104.421 17.9633C87.6553 17.9633 86.58 27.2437 86.58 28.7267H94.9249C94.9249 28.7267 95.3625 23.3087 103.845 23.3087C109.358 23.3087 113.629 25.8593 113.629 30.763V32.5084H103.845C90.8568 32.5084 83.9902 36.3497 83.9902 44.1446C83.9902 51.8158 90.3347 55.9897 98.9086 55.9897C110.593 55.9897 114.357 49.4626 114.357 49.4626C114.357 52.0587 114.555 54.617 114.555 54.617H121.974C121.974 54.617 121.686 51.446 121.686 49.4172V31.8812C121.686 20.3831 112.512 17.9633 104.421 17.9633ZM113.629 37.7447V40.0719C113.629 43.1072 111.776 50.6535 100.869 50.6535C94.896 50.6535 92.3351 47.64 92.3351 44.1446C92.3351 37.7856 100.959 37.7447 113.629 37.7447Z" fill="#D3D6D6"/>
<path d="M117.192 19.4194H126.58L140.054 46.7071L153.496 19.4194H162L137.515 68.0001H128.595L135.66 54.4576L117.192 19.4194Z" fill="#D3D6D6"/>
</svg>
