<svg width="123" height="72" viewBox="0 0 123 72" fill="none" xmlns="http://www.w3.org/2000/svg">
<path d="M56.6186 67.7774C52.9434 66.926 49.6943 64.1847 48.0413 60.5407C46.2373 56.5636 46.3596 49.4528 48.3054 45.1894C49.7519 42.0201 52.5217 39.5882 55.8142 38.5965C57.7459 38.0146 61.8442 37.9358 63.7912 38.4429C67.5161 39.4132 70.243 42.0385 71.4332 45.7999C71.7258 46.7246 71.9652 47.5248 71.9652 47.578C71.9652 47.6313 71.6337 47.6748 71.2285 47.6748C70.5494 47.6748 70.4595 47.5663 70.0774 46.2846C68.6879 41.6236 64.721 39.0984 59.2641 39.4015C56.2013 39.5715 54.4619 40.2562 52.465 42.0779C50.7222 43.6677 49.6524 45.4434 48.7974 48.1653C48.3291 49.6562 48.2181 50.5859 48.2114 53.0706C48.1999 57.3614 49.0087 60.0384 51.1543 62.8115C54.9654 67.7371 63.5893 68.0908 67.8938 63.498C69.3448 61.9498 70.6772 59.0976 70.8904 57.0835C71.0228 55.8318 71.0642 55.7685 71.7489 55.7685C72.3685 55.7685 72.4682 55.8634 72.4682 56.4527C72.4682 57.5632 71.7589 59.9482 70.9412 61.5871C69.42 64.6361 66.704 66.7751 63.2519 67.6431C61.6163 68.0543 58.1197 68.1251 56.6186 67.7774Z" fill="#D3D6D6"/>
<path d="M-0.468994 53.0706V38.6001H8.96257H18.3941V39.2133V39.8264H9.59134H0.788547V45.958V52.0896H8.96257H17.1366V52.7027V53.3159H8.96257H0.788547V59.6927V66.0695H9.59134H18.3941V66.8053V67.5411H8.96257H-0.468994V53.0706Z" fill="#D3D6D6"/>
<path d="M21.3286 67.3776C21.2363 67.2877 21.1609 60.7759 21.1609 52.9071V38.6001H22.0174C22.9874 38.6001 22.3753 37.8677 29.3505 47.3748C31.5552 50.3799 33.5854 53.205 33.8621 53.6528C34.1387 54.1007 36.1759 56.9292 38.3892 59.9383L42.4133 65.4095L42.4784 52.0048L42.5434 38.6001H43.17H43.7966V53.0706V67.5411H43.0644C42.3985 67.5411 41.9961 67.0801 38.622 62.4519C36.5815 59.6528 34.3079 56.566 33.5696 55.5923C32.8313 54.6186 32.2273 53.7537 32.2273 53.6704C32.2273 53.5871 30.3813 51.0175 28.1252 47.9603C25.8691 44.903 23.747 41.9602 23.4094 41.4206L22.7957 40.4396L22.7307 53.9903L22.6657 67.5411H22.081C21.7594 67.5411 21.4208 67.4675 21.3286 67.3776Z" fill="#D3D6D6"/>
<path d="M75.2346 53.0706V38.6001H84.5404H93.8462V39.2133V39.8264H85.1692H76.4922V45.958V52.0896H84.6662H92.8402V52.7027V53.3159H84.6662H76.4922V59.6927V66.0695H85.2949H94.0977V66.8053V67.5411H84.6662H75.2346V53.0706Z" fill="#D3D6D6"/>
<path d="M97.1187 38.5674V53.0532V67.5391H97.7474H98.3762V60.4264V53.3138H102.463C106.538 53.3142 106.551 53.3163 106.927 53.9193C107.135 54.252 109.568 57.452 112.335 61.0243C117.079 67.1499 117.412 67.5197 118.182 67.5314C118.632 67.5382 119 67.4923 119 67.4318C119 67.3712 116.556 64.1705 113.577 60.3191L108.161 53.3138H109.529C111.343 53.3138 114.106 52.4583 115.322 51.5203C116.814 50.3682 117.593 48.5108 117.601 46.0786C117.61 43.4534 117.041 41.8825 115.612 40.5985C113.736 38.912 112.888 38.764 104.475 38.6594L97.1187 38.5674ZM98.5019 39.947H104.915C112.122 39.9476 113.217 40.1378 114.646 41.6102C115.784 42.7827 116.015 43.3712 116.163 45.4654C116.281 47.1449 116.224 47.5201 115.652 48.7381C114.899 50.3411 113.445 51.4025 111.415 51.8269C109.55 52.217 98.6429 52.179 98.4862 51.7809C98.4188 51.6095 98.394 48.8779 98.4312 45.7107L98.5019 39.947Z" fill="#D3D6D6"/>
<path d="M74.0367 33.6941C69.7223 32.8085 67.1406 30.0463 66.2926 25.4085C65.7523 22.4535 65.7868 22.1675 66.6836 22.1675C67.403 22.1675 67.4383 22.216 67.4419 23.2098C67.4467 24.5739 68.0632 27.0901 68.6826 28.274C70.4159 31.5871 74.3457 33.1429 79.4312 32.5291C84.3102 31.9403 86.8546 29.7245 86.8546 26.0643C86.8546 24.9555 86.704 24.3736 86.1997 23.5345C85.0022 21.5419 83.7038 20.9443 77.0928 19.3433C70.3702 17.7153 68.2467 16.5062 67.3488 13.795C66.1912 10.2996 67.7513 6.54694 70.9722 5.07972C74.0533 3.67615 80.1053 3.63335 82.7917 4.99611C85.3582 6.29801 87.0366 8.77044 87.6636 12.173C87.8269 13.059 87.8069 13.0928 87.1175 13.0928C86.4424 13.0928 86.3836 13.0064 86.0791 11.5686C85.502 8.84394 84.1941 7.21654 81.6484 6.05531C80.2357 5.41091 79.9386 5.36836 76.9955 5.38874C73.633 5.41202 72.463 5.68123 70.6485 6.84921C68.1482 8.45861 67.6822 12.8225 69.7766 15.0148C70.798 16.0839 73.2013 17.0323 77.3357 17.9978C81.9264 19.0699 82.4561 19.2218 84.0377 19.9203C86.9842 21.2216 88.4477 23.5301 88.2609 26.5822C88.1388 28.5772 87.5354 29.82 85.9797 31.2803C84.1003 33.0445 81.9449 33.7472 78.1272 33.8405C76.4673 33.8811 74.6265 33.8152 74.0367 33.6941Z" fill="#D3D6D6"/>
<path d="M105.238 4.01636C103.028 4.01636 101.831 4.40741 100.483 5.56458C98.8127 6.99804 98.2983 8.1453 98.4313 10.1249C98.5222 11.4788 98.7062 12.0201 99.5866 13.459C100.164 14.4032 101.031 15.6823 101.512 16.3025L102.393 17.4368L100.42 18.7015C98.0378 20.2301 96.2197 21.945 95.5861 23.2695C94.9872 24.5215 94.9355 27.6736 95.4918 28.9719C96.5075 31.3426 98.6288 32.9043 102.023 33.7851C102.3 33.8569 103.432 33.8823 104.538 33.8388C107.149 33.7361 109.228 32.8439 111.36 30.9186C112.208 30.1533 113.001 29.5258 113.121 29.5237C113.241 29.5216 114.19 30.4093 115.227 31.5011C116.882 33.2423 117.178 33.4642 117.68 33.2793C118.243 33.0718 118.235 33.0441 117.176 31.8614C116.585 31.2005 115.621 30.1554 115.031 29.539C114.441 28.9226 114.011 28.2545 114.072 28.0521C114.133 27.8498 114.48 26.9766 114.85 26.113C115.22 25.2494 115.545 24.0354 115.565 23.4151C115.597 22.4482 115.53 22.2884 115.109 22.2884C114.709 22.2884 114.569 22.5586 114.339 23.76C114.184 24.5694 113.832 25.7074 113.553 26.2893L113.042 27.347L110.928 25.063C109.764 23.8066 108.743 22.7238 108.657 22.6563C107.981 22.1265 104.415 17.8579 104.483 17.6591C104.571 17.4026 105.258 16.9564 107.006 16.0266C108.395 15.2877 110.859 12.876 111.313 11.8111C111.86 10.5292 111.808 8.6453 111.187 7.35806C110.165 5.23677 107.998 4.01636 105.238 4.01636ZM105.151 5.24267C106.694 5.24267 107.081 5.34003 108.209 6.01678C109.694 6.90814 110.432 8.181 110.441 9.85668C110.452 11.9339 108.956 13.6863 105.442 15.7277C104.455 16.301 103.614 16.77 103.571 16.77C103.282 16.77 101.187 13.9066 100.483 12.5469C99.4671 10.5853 99.3817 9.24894 100.168 7.81793C101.147 6.03798 102.685 5.24267 105.151 5.24267ZM102.817 18.4102C102.994 18.3067 104.457 19.7469 106.582 22.1045C108.496 24.2289 110.515 26.4491 111.07 27.0327C111.624 27.6164 112.115 28.1942 112.162 28.3204C112.276 28.6278 110.319 30.5233 109.065 31.3172C108.512 31.6676 107.383 32.1283 106.558 32.3366C103.252 33.1719 100.22 32.4984 98.1405 30.4664C96.9847 29.3369 96.3406 27.8296 96.3013 26.1513C96.2358 23.3545 98.0545 21.1983 102.817 18.4102Z" fill="#838383"/>
<path d="M-0.474004 4.26123C-1.0076 4.26123 -1.25795 4.44809 -1.55863 5.066C-1.99928 5.97154 -2.52553 7.20553 -2.62754 7.57228C-2.66507 7.70717 -3.67592 9.91454 -4.8754 12.4775C-6.07488 15.0405 -7.37627 17.9101 -7.76774 18.8544C-8.15922 19.7986 -9.72283 23.2435 -11.2417 26.5035C-12.7606 29.7635 -14.0819 32.6607 -14.1733 32.9417C-14.3157 33.3791 -14.2312 33.4475 -13.6075 33.4475C-12.7958 33.4475 -13.0961 33.9679 -10.2592 27.6225L-8.69518 24.1275H-0.489723H7.70788L8.83966 26.6415C9.45929 28.0241 10.3577 30.0935 10.8439 31.2401C11.6833 33.2197 11.7767 33.3347 12.573 33.4092C13.6306 33.5082 13.7713 33.9508 10.3016 26.5035C8.78268 23.2435 7.22155 19.7986 6.8276 18.8544C6.43365 17.9101 5.13163 15.0405 3.93525 12.4775C2.73888 9.91454 1.73478 7.70717 1.70312 7.57228C1.67144 7.43738 1.32533 6.63721 0.932871 5.79412C0.30912 4.45417 0.130474 4.26123 -0.474004 4.26123ZM-0.458284 6.22333C-0.346675 6.22333 -0.0309792 6.80277 0.241223 7.51096C0.513426 8.21916 1.67092 10.8404 2.81133 13.336C3.95173 15.8315 5.07761 18.37 5.31855 18.977C5.55948 19.584 6.05061 20.7153 6.41104 21.4909L7.07125 22.9012H-0.497582C-6.4543 22.9012 -8.04277 22.8359 -7.94066 22.5946C-7.66896 21.9527 -6.08646 18.4135 -3.74361 13.2133C-2.40658 10.2456 -1.16348 7.45884 -0.984879 7.02044C-0.806276 6.58203 -0.569894 6.22333 -0.458284 6.22333Z" fill="#D3D6D6"/>
<path d="M16.259 4.50647L16.3219 18.977L16.3926 33.4475H17.0136H17.6423V26.3349V19.2222H22.1459H26.6495L32.1119 26.3349C37.4148 33.2434 37.5911 33.4475 38.4311 33.4475C39.0587 33.4475 39.2479 33.3634 39.107 33.1409C38.8481 32.7321 30.6478 22.1301 29.3846 20.5712L28.3864 19.3449L30.3671 19.1916C32.95 18.993 34.799 18.1926 36.1596 16.6853C37.4871 15.2146 37.8519 13.935 37.7158 11.1592C37.6227 9.25905 37.5062 8.80745 36.8591 7.78686C36.4485 7.13921 35.6645 6.30872 35.1143 5.93972C33.3092 4.72919 31.523 4.50652 23.4978 4.50647H16.259ZM17.6423 5.73278L23.7414 5.74045C28.1293 5.74351 30.3238 5.8417 31.5775 6.10068C35.0586 6.81981 36.3191 8.3807 36.3561 12.01C36.3743 13.7966 36.3059 14.1084 35.6252 15.1984C35.0333 16.146 34.5453 16.5604 33.3616 17.1375L31.8525 17.8733L24.7474 17.9499L17.6423 18.0342V11.8797V5.73278Z" fill="#D3D6D6"/>
<path d="M42.5388 18.8988V4.34814L43.2305 4.44702L43.9221 4.54591L43.8527 13.0325L43.7834 21.5191L44.3558 21.0512C44.6706 20.7938 45.8336 19.751 46.9402 18.7339C48.0469 17.7167 50.2505 15.7278 51.8371 14.3141C53.4238 12.9004 56.4975 10.1158 58.6675 8.12608C62.4207 4.68477 62.6631 4.50845 63.6401 4.50845H64.6672L63.0974 5.90711C62.2341 6.67638 61.2448 7.58781 60.8989 7.93252C60.5531 8.27723 58.374 10.2573 56.0565 12.3327C53.2887 14.8114 51.9179 16.1993 52.0615 16.3776C52.652 17.1108 64.3259 31.0251 65.1881 32.0234C65.7339 32.6555 66.1806 33.2349 66.1806 33.311C66.1806 33.3872 65.8006 33.4495 65.3361 33.4495C64.5915 33.4495 64.3251 33.2457 63.0838 31.7265C62.3096 30.7788 59.2219 27.0778 56.2222 23.502L50.7683 17.0005L48.98 18.6727C46.3821 21.102 44.8866 22.4316 44.3066 22.8277C43.8216 23.159 43.7964 23.4299 43.7964 28.3129V33.4495H43.1676H42.5388V18.8988Z" fill="#D3D6D6"/>
</svg>
