<svg width="193" height="72" viewBox="0 0 193 72" fill="none" xmlns="http://www.w3.org/2000/svg">
<path d="M166.673 65C179.004 65 189 55.1465 189 42.9916C189 30.8368 179.004 20.9833 166.673 20.9833C154.342 20.9833 144.346 30.8368 144.346 42.9916C144.346 55.1465 154.342 65 166.673 65Z" fill="#D3D6D6"/>
<path d="M166.673 55.9716C173.951 55.9716 179.841 50.1655 179.841 42.9916C179.841 35.8176 173.951 30.0115 166.673 30.0115C159.395 30.0115 153.505 35.8176 153.505 42.9916C153.505 50.1655 159.395 55.9716 166.673 55.9716Z" fill="white"/>
<path d="M119.336 65C131.667 65 141.663 55.1465 141.663 42.9916C141.663 30.8368 131.667 20.9833 119.336 20.9833C107.005 20.9833 97.0088 30.8368 97.0088 42.9916C97.0088 55.1465 107.005 65 119.336 65Z" fill="#D3D6D6"/>
<path d="M119.336 55.9716C126.614 55.9716 132.505 50.1655 132.505 42.9916C132.505 35.8176 126.614 30.0115 119.336 30.0115C112.059 30.0115 106.168 35.8176 106.168 42.9916C106.168 50.1655 112.059 55.9716 119.336 55.9716Z" fill="white"/>
<path d="M94.9422 42.8092V42.9916C94.9422 55.1509 84.9506 65 72.6152 65C60.2798 65 50.2881 55.1509 50.2881 42.9916C50.2881 30.8323 60.2798 20.9833 72.6152 20.9833C77.6727 20.9833 82.3293 22.6552 86.0916 25.4214V11.3774C86.0891 10.8019 86.2023 10.2316 86.4246 9.6994C86.6469 9.16723 86.9739 8.68371 87.3868 8.27676C87.7996 7.8698 88.2902 7.54746 88.83 7.32833C89.3699 7.1092 89.9485 6.99763 90.5323 7.00004C92.9686 7.00004 94.9731 8.97593 94.9731 11.3774V42.5964C94.9731 42.6572 94.9731 42.7484 94.9422 42.8092Z" fill="#D3D6D6"/>
<path d="M72.6148 55.9716C79.8873 55.9716 85.7829 50.1602 85.7829 42.9916C85.7829 35.8229 79.8873 30.0115 72.6148 30.0115C65.3423 30.0115 59.4468 35.8229 59.4468 42.9916C59.4468 50.1602 65.3423 55.9716 72.6148 55.9716Z" fill="white"/>
<path d="M26.3271 64.9392C38.658 64.9392 48.6542 55.0857 48.6542 42.9309C48.6542 30.776 38.658 20.9225 26.3271 20.9225C13.9962 20.9225 4 30.776 4 42.9309C4 55.0857 13.9962 64.9392 26.3271 64.9392Z" fill="#838383"/>
<path d="M26.1109 56.002C33.3834 56.002 39.279 50.1906 39.279 43.0219C39.279 35.8532 33.3834 30.0419 26.1109 30.0419C18.8384 30.0419 12.9429 35.8532 12.9429 43.0219C12.9429 50.1906 18.8384 56.002 26.1109 56.002Z" fill="white"/>
</svg>
