<svg width="289" height="72" viewBox="0 0 289 72" fill="none" xmlns="http://www.w3.org/2000/svg">
<path d="M49.2394 43.8046L30.7984 54.3835V32.0282C30.7984 31.4776 30.5782 30.9495 30.1864 30.5602C29.7945 30.1709 29.2631 29.9521 28.7089 29.9521C28.1547 29.9521 27.6233 30.1709 27.2314 30.5602C26.8395 30.9495 26.6194 31.4776 26.6194 32.0282V54.3835L8.17896 43.8052V20.2511L28.7089 8.47404L49.2401 20.2511V43.8046H49.2394ZM52.3743 17.2546L29.7542 4.27864C29.4365 4.09673 29.0762 4.00098 28.7095 4.00098C28.3428 4.00098 27.9825 4.09673 27.6648 4.27864L5.04474 17.2546C4.72713 17.4368 4.46338 17.6988 4.28 18.0144C4.09661 18.3299 4.00004 18.6879 4 19.0522V45.0035C4 45.7452 4.39847 46.4306 5.04474 46.8012L27.6641 59.7777C27.6891 59.7907 27.7158 59.7957 27.7395 59.8086C27.8516 59.8668 27.9692 59.9151 28.0925 59.9528C28.1348 59.9658 28.1753 59.9819 28.2189 59.9918C28.3764 60.0295 28.5395 60.0555 28.7089 60.0555C28.8789 60.0555 29.042 60.0295 29.1995 59.9918C29.2425 59.9819 29.2836 59.9658 29.3259 59.9528C29.4485 59.9157 29.5662 59.8668 29.6783 59.8086C29.7032 59.7957 29.73 59.7907 29.7542 59.7777L52.3737 46.8012C52.6913 46.6191 52.9552 46.3571 53.1386 46.0415C53.322 45.7259 53.4185 45.3679 53.4184 45.0035V19.0522C53.4184 18.3105 53.0199 17.6257 52.3743 17.2546Z" fill="#838383"/>
<path d="M10.2689 19.052L28.7094 29.6302L47.1504 19.052L28.7088 8.47378L10.2689 19.052ZM4.00049 45.0038V19.7739C4.00049 19.6471 4.00983 19.5221 4.02913 19.3984C3.95822 18.9808 4.01749 18.5516 4.19899 18.1684C4.38048 17.7852 4.67554 17.4662 5.04461 17.2543L27.6646 4.27837C28.3109 3.90721 29.1085 3.90721 29.7547 4.27837L52.3741 17.2537C52.6915 17.4361 52.955 17.6983 53.1382 18.0139C53.3213 18.3295 53.4178 18.6874 53.4178 19.0517C53.4178 19.416 53.3213 19.7739 53.1382 20.0895C52.955 20.405 52.6915 20.6672 52.3741 20.8497L29.7547 33.8244C29.4371 34.007 29.0767 34.1032 28.7097 34.1032C28.3427 34.1032 27.9822 34.007 27.6646 33.8244L8.17944 22.648V48.5714L5.15792 46.8467C4.51975 46.4761 4.11194 46.1068 4.00049 45.0038ZM94.5821 22.583C94.5821 15.1727 90.0171 11.2767 82.8814 11.2767H77.9951V33.8256H82.8814C90.0171 33.8256 94.5821 29.9284 94.5821 22.5824V22.583ZM101.718 22.5824C101.718 31.8454 93.0386 36.253 83.5245 36.253H77.9951V48.3264C77.9951 50.8169 78.6383 51.9669 81.0167 52.1587V53.5641H68.0938V52.1587C70.5375 51.9669 71.1153 50.8169 71.1153 48.3264V14.0215C71.1153 11.5309 70.5375 10.4447 68.0938 10.2535V8.84803H83.5245C93.0393 8.84803 101.718 13.255 101.718 22.5818V22.5824ZM108.402 35.1036H124.281C124.474 29.4174 122.096 24.051 116.76 24.1153C112.26 24.179 108.852 28.3948 108.402 35.1036ZM130.454 37.4024H108.337C108.337 37.5935 108.337 37.7847 108.402 37.9777C109.109 52.0943 123.575 53.4361 129.169 46.2176L130.068 46.984C127.882 51.2011 122.995 54.2026 117.531 54.2026C109.045 54.2026 101.715 48.0066 101.715 37.9777C101.715 28.268 108.337 22.7098 116.888 22.7098C126.211 22.7098 130.583 29.1619 130.454 37.0189V37.4024ZM159.061 38.4249C159.061 30.6954 155.974 25.0098 150.382 25.0098C144.724 25.0098 141.573 30.2476 141.573 38.4249C141.573 46.6017 144.723 51.8395 150.382 51.8395C155.974 51.8395 159.061 46.1545 159.061 38.4249ZM165.875 38.4249C165.875 48.134 159.704 54.2026 152.053 54.2026C147.038 54.2026 143.695 51.7745 141.573 48.645V62.8266C141.573 65.3177 142.216 66.4034 144.595 66.5958V68H131.8V66.5958C134.244 66.404 134.887 65.3177 134.887 62.8266V30.1838C134.887 27.6927 134.244 26.5427 131.801 26.3516V24.9461L140.545 22.7098H141.573V28.268C143.695 25.0735 147.038 22.7098 152.053 22.7098C159.704 22.7098 165.875 28.7784 165.875 38.4249ZM186.703 50.6258C185.289 52.6053 183.038 54.2026 179.824 54.2026C175.195 54.2026 171.595 51.7745 171.595 45.26V25.5851H166.837V23.2851C172.238 23.2851 175.259 19.6446 176.288 14.4699H178.281V23.2851H184.903V25.5851H178.281V45.26C178.281 48.0709 179.182 49.7943 181.046 50.3697C182.91 51.0081 184.582 50.4334 185.867 49.4758L186.703 50.6258ZM211.711 38.4256C211.711 30.1201 208.303 24.4988 202.516 24.4988C196.731 24.4988 193.323 30.1201 193.323 38.4249C193.323 46.7298 196.731 52.3498 202.516 52.3498C208.303 52.3498 211.711 46.7298 211.711 38.4249V38.4256ZM218.654 38.4249C218.654 48.3901 211.067 54.2032 202.516 54.2032C193.966 54.2032 186.38 48.3901 186.38 38.4249C186.38 28.4592 193.966 22.7104 202.516 22.7104C211.067 22.7104 218.654 28.4592 218.654 38.4249H218.654ZM254.976 52.1587V53.5641H242.182V52.1587C244.561 51.9669 245.203 50.8169 245.203 48.3264V34.0817C245.203 28.907 242.889 25.1379 237.874 25.1379C233.438 25.1379 230.353 28.7159 230.353 33.5064V48.3264C230.353 50.8169 230.996 51.9669 233.438 52.1587V53.5641H220.58V52.1587C223.023 51.9669 223.666 50.8169 223.666 48.3264V30.1845C223.666 27.6927 223.023 26.5427 220.58 26.3516V24.9461L229.131 22.7098H230.159V27.3741C232.603 24.1796 236.074 22.7098 240.06 22.7098C247.969 22.7098 251.955 28.0125 251.955 34.7195V48.3264C251.955 50.8169 252.598 51.9669 254.976 52.1587ZM262.944 35.1036H278.824C279.017 29.4174 276.639 24.051 271.303 24.1153C266.803 24.179 263.395 28.3948 262.944 35.1036ZM284.997 37.4024H262.88C262.88 37.5935 262.88 37.7847 262.944 37.9777C263.652 52.0943 278.117 53.4361 283.712 46.2176L284.611 46.984C282.425 51.2011 277.538 54.2026 272.074 54.2026C263.588 54.2026 256.258 48.0066 256.258 37.9777C256.258 28.268 262.88 22.7098 271.431 22.7098C280.754 22.7098 285.126 29.1619 284.997 37.0189V37.4024Z" fill="#D3D6D6"/>
</svg>
