<svg width="281" height="64" viewBox="0 0 281 64" fill="none" xmlns="http://www.w3.org/2000/svg">
<path d="M45.2394 39.8046L26.7984 50.3835V28.0282C26.7984 27.4776 26.5782 26.9495 26.1864 26.5602C25.7945 26.1709 25.2631 25.9521 24.7089 25.9521C24.1547 25.9521 23.6233 26.1709 23.2314 26.5602C22.8395 26.9495 22.6194 27.4776 22.6194 28.0282V50.3835L4.17896 39.8052V16.2511L24.7089 4.47404L45.2401 16.2511V39.8046H45.2394ZM48.3743 13.2546L25.7542 0.278638C25.4365 0.096729 25.0762 0.000976562 24.7095 0.000976563C24.3428 0.000976562 23.9825 0.096729 23.6648 0.278638L1.04474 13.2546C0.727133 13.4368 0.463385 13.6988 0.279997 14.0144C0.0966088 14.3299 4.16645e-05 14.6879 0 15.0522V41.0035C0 41.7452 0.39847 42.4306 1.04474 42.8012L23.6641 55.7777C23.6891 55.7907 23.7158 55.7957 23.7395 55.8086C23.8516 55.8668 23.9692 55.9151 24.0925 55.9528C24.1348 55.9658 24.1753 55.9819 24.2189 55.9918C24.3764 56.0295 24.5395 56.0555 24.7089 56.0555C24.8789 56.0555 25.042 56.0295 25.1995 55.9918C25.2425 55.9819 25.2836 55.9658 25.3259 55.9528C25.4485 55.9157 25.5662 55.8668 25.6783 55.8086C25.7032 55.7957 25.73 55.7907 25.7542 55.7777L48.3737 42.8012C48.6913 42.6191 48.9552 42.3571 49.1386 42.0415C49.322 41.7259 49.4185 41.3679 49.4184 41.0035V15.0522C49.4184 14.3105 49.0199 13.6257 48.3743 13.2546Z" fill="#838383"/>
<path d="M6.26892 15.052L24.7094 25.6302L43.1504 15.052L24.7088 4.47378L6.26892 15.052ZM0.00048965 41.0038V15.7739C0.00048965 15.6471 0.00982969 15.5221 0.0291306 15.3984C-0.0417768 14.9808 0.0174899 14.5516 0.198987 14.1684C0.380484 13.7852 0.675538 13.4662 1.04461 13.2543L23.6646 0.278374C24.3109 -0.0927913 25.1085 -0.0927913 25.7547 0.278374L48.3741 13.2537C48.6915 13.4361 48.955 13.6983 49.1382 14.0139C49.3213 14.3295 49.4178 14.6874 49.4178 15.0517C49.4178 15.416 49.3213 15.7739 49.1382 16.0895C48.955 16.405 48.6915 16.6672 48.3741 16.8497L25.7547 29.8244C25.4371 30.007 25.0767 30.1032 24.7097 30.1032C24.3427 30.1032 23.9822 30.007 23.6646 29.8244L4.17944 18.648V44.5714L1.15792 42.8467C0.519746 42.4761 0.111937 42.1068 0.00048965 41.0038ZM90.5821 18.583C90.5821 11.1727 86.0171 7.27669 78.8814 7.27669H73.9951V29.8256H78.8814C86.0171 29.8256 90.5821 25.9284 90.5821 18.5824V18.583ZM97.7178 18.5824C97.7178 27.8454 89.0386 32.253 79.5245 32.253H73.9951V44.3264C73.9951 46.8169 74.6383 47.9669 77.0167 48.1587V49.5641H64.0938V48.1587C66.5375 47.9669 67.1153 46.8169 67.1153 44.3264V10.0215C67.1153 7.53094 66.5375 6.44466 64.0938 6.25351V4.84803H79.5245C89.0393 4.84803 97.7178 9.255 97.7178 18.5818V18.5824ZM104.402 31.1036H120.281C120.474 25.4174 118.096 20.051 112.76 20.1153C108.26 20.179 104.852 24.3948 104.402 31.1036ZM126.454 33.4024H104.337C104.337 33.5935 104.337 33.7847 104.402 33.9777C105.109 48.0943 119.575 49.4361 125.169 42.2176L126.068 42.984C123.882 47.2011 118.995 50.2026 113.531 50.2026C105.045 50.2026 97.7153 44.0066 97.7153 33.9777C97.7153 24.268 104.337 18.7098 112.888 18.7098C122.211 18.7098 126.583 25.1619 126.454 33.0189V33.4024ZM155.061 34.4249C155.061 26.6954 151.974 21.0098 146.382 21.0098C140.724 21.0098 137.573 26.2476 137.573 34.4249C137.573 42.6017 140.723 47.8395 146.382 47.8395C151.974 47.8395 155.061 42.1545 155.061 34.4249ZM161.875 34.4249C161.875 44.134 155.704 50.2026 148.053 50.2026C143.038 50.2026 139.695 47.7745 137.573 44.645V58.8266C137.573 61.3177 138.216 62.4034 140.595 62.5958V64H127.8V62.5958C130.244 62.404 130.887 61.3177 130.887 58.8266V26.1838C130.887 23.6927 130.244 22.5427 127.801 22.3516V20.9461L136.545 18.7098H137.573V24.268C139.695 21.0735 143.038 18.7098 148.053 18.7098C155.704 18.7098 161.875 24.7784 161.875 34.4249ZM182.703 46.6258C181.289 48.6053 179.038 50.2026 175.824 50.2026C171.195 50.2026 167.595 47.7745 167.595 41.26V21.5851H162.837V19.2851C168.238 19.2851 171.259 15.6446 172.288 10.4699H174.281V19.2851H180.903V21.5851H174.281V41.26C174.281 44.0709 175.182 45.7943 177.046 46.3697C178.91 47.0081 180.582 46.4334 181.867 45.4758L182.703 46.6258ZM207.711 34.4256C207.711 26.1201 204.303 20.4988 198.516 20.4988C192.731 20.4988 189.323 26.1201 189.323 34.4249C189.323 42.7298 192.731 48.3498 198.516 48.3498C204.303 48.3498 207.711 42.7298 207.711 34.4249V34.4256ZM214.654 34.4249C214.654 44.3901 207.067 50.2032 198.516 50.2032C189.966 50.2032 182.38 44.3901 182.38 34.4249C182.38 24.4592 189.966 18.7104 198.516 18.7104C207.067 18.7104 214.654 24.4592 214.654 34.4249H214.654ZM250.976 48.1587V49.5641H238.182V48.1587C240.561 47.9669 241.203 46.8169 241.203 44.3264V30.0817C241.203 24.907 238.889 21.1379 233.874 21.1379C229.438 21.1379 226.353 24.7159 226.353 29.5064V44.3264C226.353 46.8169 226.996 47.9669 229.438 48.1587V49.5641H216.58V48.1587C219.023 47.9669 219.666 46.8169 219.666 44.3264V26.1845C219.666 23.6927 219.023 22.5427 216.58 22.3516V20.9461L225.131 18.7098H226.159V23.3741C228.603 20.1796 232.074 18.7098 236.06 18.7098C243.969 18.7098 247.955 24.0125 247.955 30.7195V44.3264C247.955 46.8169 248.598 47.9669 250.976 48.1587ZM258.944 31.1036H274.824C275.017 25.4174 272.639 20.051 267.303 20.1153C262.803 20.179 259.395 24.3948 258.944 31.1036ZM280.997 33.4024H258.88C258.88 33.5935 258.88 33.7847 258.944 33.9777C259.652 48.0943 274.117 49.4361 279.712 42.2176L280.611 42.984C278.425 47.2011 273.538 50.2026 268.074 50.2026C259.588 50.2026 252.258 44.0066 252.258 33.9777C252.258 24.268 258.88 18.7098 267.431 18.7098C276.754 18.7098 281.126 25.1619 280.997 33.0189V33.4024Z" fill="#D3D6D6"/>
</svg>
