<svg width="175" height="72" viewBox="0 0 175 72" fill="none" xmlns="http://www.w3.org/2000/svg">
<path d="M11.6077 67.6535C8.61728 66.8681 6.63908 65.361 5.38585 62.9132C4.63446 61.4456 4.00694 58.8966 4.0003 57.285C3.99613 56.274 4.02703 56.2299 4.68758 56.304C5.35078 56.3784 5.38663 56.454 5.55933 58.1422C5.9981 62.4314 7.73761 64.8916 11.2005 66.1206C13.1063 66.7971 17.4677 66.8541 19.6356 66.2309C21.2433 65.7688 22.9587 64.6028 23.7805 63.4136C25.1117 61.4872 25.009 58.4595 23.5577 56.8476C22.4775 55.6478 19.6974 54.451 16.1941 53.6776C7.53165 51.7653 5.33211 50.2629 5.05616 46.0697C4.79556 42.1099 6.78593 39.5178 10.9124 38.4429C12.5414 38.0186 17.3399 38.021 18.9802 38.4469C22.1138 39.2607 24.3031 41.6 25.2505 45.1469C25.7694 47.0895 25.7473 47.2305 24.9385 47.1392C24.3383 47.0714 24.2156 46.9065 23.9682 45.8353C23.3024 42.9534 21.8126 41.0294 19.4885 40.0504C16.9956 39.0002 12.0881 39.1581 9.60261 40.3686C7.22761 41.5253 5.96875 44.0239 6.50111 46.5245C7.11318 49.3997 9.04083 50.5635 15.9008 52.1997C21.2806 53.4828 23.0877 54.2521 24.5641 55.8877C25.7865 57.242 26.2481 58.833 26.0648 61.0603C25.7917 64.3781 23.3622 66.6657 19.0619 67.6542C17.0639 68.1134 13.3578 68.1131 11.6077 67.6535Z" fill="#D3D6D6"/>
<path d="M108.619 67.7774C104.943 66.926 101.694 64.1847 100.041 60.5407C98.2373 56.5636 98.3596 49.4528 100.305 45.1894C101.752 42.0201 104.522 39.5882 107.814 38.5965C109.746 38.0146 113.844 37.9358 115.791 38.4429C119.516 39.4132 122.243 42.0385 123.433 45.7999C123.726 46.7246 123.965 47.5248 123.965 47.578C123.965 47.6313 123.634 47.6748 123.229 47.6748C122.549 47.6748 122.46 47.5663 122.077 46.2846C120.688 41.6236 116.721 39.0984 111.264 39.4015C108.201 39.5715 106.462 40.2562 104.465 42.0779C102.722 43.6677 101.652 45.4434 100.797 48.1653C100.329 49.6562 100.218 50.5859 100.211 53.0706C100.2 57.3614 101.009 60.0384 103.154 62.8115C106.965 67.7371 115.589 68.0908 119.894 63.498C121.345 61.9498 122.677 59.0976 122.89 57.0835C123.023 55.8318 123.064 55.7685 123.749 55.7685C124.368 55.7685 124.468 55.8634 124.468 56.4527C124.468 57.5632 123.759 59.9482 122.941 61.5871C121.42 64.6361 118.704 66.7751 115.252 67.6431C113.616 68.0543 110.12 68.1251 108.619 67.7774Z" fill="#D3D6D6"/>
<path d="M28.8982 38.5981V53.084V67.5775L29.5898 67.4932L30.2815 67.4165L30.3444 60.7331L30.4151 54.0497L35.8775 54.042C38.884 54.0387 41.8416 53.9255 42.4482 53.7891C44.2599 53.3818 46.2488 52.297 47.1247 51.2368C48.4474 49.6358 48.8437 48.2745 48.7202 45.7797C48.5583 42.5083 47.6989 41.115 44.9476 39.6252C43.4383 38.8079 41.4525 38.5981 35.013 38.5981H28.8982ZM30.4072 39.7785L36.2548 39.8858C42.8087 40.0011 44.1586 40.2584 45.6156 41.6793C46.8899 42.9219 47.3212 44.0727 47.3212 46.2473C47.3212 47.8006 47.2038 48.389 46.7081 49.3284C46.0261 50.6209 44.4623 51.915 43.0377 52.3635C42.4649 52.5439 39.8299 52.6994 36.2548 52.7621L30.4072 52.8617V46.3239V39.7785Z" fill="#D3D6D6"/>
<path d="M51.531 53.0706V38.6001H60.9626H70.3941V39.2133V39.8264H61.5913H52.7885V45.958V52.0896H60.9626H69.1366V52.7027V53.3159H60.9626H52.7885V59.6927V66.0695H61.5913H70.3941V66.8053V67.5411H60.9626H51.531V53.0706Z" fill="#D3D6D6"/>
<path d="M73.3286 67.3776C73.2363 67.2877 73.1609 60.7759 73.1609 52.9071V38.6001H74.0174C74.9874 38.6001 74.3753 37.8677 81.3505 47.3748C83.5552 50.3799 85.5854 53.205 85.8621 53.6528C86.1387 54.1007 88.1759 56.9292 90.3892 59.9383L94.4133 65.4095L94.4784 52.0048L94.5434 38.6001H95.17H95.7966V53.0706V67.5411H95.0644C94.3985 67.5411 93.9961 67.0801 90.622 62.4519C88.5815 59.6528 86.3079 56.566 85.5696 55.5923C84.8313 54.6186 84.2273 53.7537 84.2273 53.6704C84.2273 53.5871 82.3813 51.0175 80.1252 47.9603C77.8691 44.903 75.747 41.9602 75.4094 41.4206L74.7957 40.4396L74.7307 53.9903L74.6657 67.5411H74.081C73.7594 67.5411 73.4208 67.4675 73.3286 67.3776Z" fill="#D3D6D6"/>
<path d="M127.235 53.0706V38.6001H136.54H145.846V39.2133V39.8264H137.169H128.492V45.958V52.0896H136.666H144.84V52.7027V53.3159H136.666H128.492V59.6927V66.0695H137.295H146.098V66.8053V67.5411H136.666H127.235V53.0706Z" fill="#D3D6D6"/>
<path d="M149.119 38.5674V53.0532V67.5391H149.747H150.376V60.4264V53.3138H154.463C158.538 53.3142 158.551 53.3163 158.927 53.9193C159.135 54.252 161.568 57.452 164.335 61.0243C169.079 67.1499 169.412 67.5197 170.182 67.5314C170.632 67.5382 171 67.4923 171 67.4318C171 67.3712 168.556 64.1705 165.577 60.3191L160.161 53.3138H161.529C163.343 53.3138 166.106 52.4583 167.322 51.5203C168.814 50.3682 169.593 48.5108 169.601 46.0786C169.61 43.4534 169.041 41.8825 167.612 40.5985C165.736 38.912 164.888 38.764 156.475 38.6594L149.119 38.5674ZM150.502 39.947H156.915C164.122 39.9476 165.217 40.1378 166.646 41.6102C167.784 42.7827 168.015 43.3712 168.163 45.4654C168.281 47.1449 168.224 47.5201 167.652 48.7381C166.899 50.3411 165.445 51.4025 163.415 51.8269C161.55 52.217 150.643 52.179 150.486 51.7809C150.419 51.6095 150.394 48.8779 150.431 45.7107L150.502 39.947Z" fill="#D3D6D6"/>
<path d="M126.037 33.6941C121.722 32.8085 119.141 30.0463 118.293 25.4085C117.752 22.4535 117.787 22.1675 118.684 22.1675C119.403 22.1675 119.438 22.216 119.442 23.2098C119.447 24.5739 120.063 27.0901 120.683 28.274C122.416 31.5871 126.346 33.1429 131.431 32.5291C136.31 31.9403 138.855 29.7245 138.855 26.0643C138.855 24.9555 138.704 24.3736 138.2 23.5345C137.002 21.5419 135.704 20.9443 129.093 19.3433C122.37 17.7153 120.247 16.5062 119.349 13.795C118.191 10.2996 119.751 6.54694 122.972 5.07972C126.053 3.67615 132.105 3.63335 134.792 4.99611C137.358 6.29801 139.037 8.77044 139.664 12.173C139.827 13.059 139.807 13.0928 139.118 13.0928C138.442 13.0928 138.384 13.0064 138.079 11.5686C137.502 8.84394 136.194 7.21654 133.648 6.05531C132.236 5.41091 131.939 5.36836 128.995 5.38874C125.633 5.41202 124.463 5.68123 122.649 6.84921C120.148 8.45861 119.682 12.8225 121.777 15.0148C122.798 16.0839 125.201 17.0323 129.336 17.9978C133.926 19.0699 134.456 19.2218 136.038 19.9203C138.984 21.2216 140.448 23.5301 140.261 26.5822C140.139 28.5772 139.535 29.82 137.98 31.2803C136.1 33.0445 133.945 33.7472 130.127 33.8405C128.467 33.8811 126.627 33.8152 126.037 33.6941Z" fill="#D3D6D6"/>
<path d="M157.238 4.01636C155.028 4.01636 153.831 4.40741 152.483 5.56458C150.813 6.99804 150.298 8.1453 150.431 10.1249C150.522 11.4788 150.706 12.0201 151.587 13.459C152.164 14.4032 153.031 15.6823 153.512 16.3025L154.393 17.4368L152.42 18.7015C150.038 20.2301 148.22 21.945 147.586 23.2695C146.987 24.5215 146.936 27.6736 147.492 28.9719C148.508 31.3426 150.629 32.9043 154.023 33.7851C154.3 33.8569 155.432 33.8823 156.538 33.8388C159.149 33.7361 161.228 32.8439 163.36 30.9186C164.208 30.1533 165.001 29.5258 165.121 29.5237C165.241 29.5216 166.19 30.4093 167.227 31.5011C168.882 33.2423 169.178 33.4642 169.68 33.2793C170.243 33.0718 170.235 33.0441 169.176 31.8614C168.585 31.2005 167.621 30.1554 167.031 29.539C166.441 28.9226 166.011 28.2545 166.072 28.0521C166.133 27.8498 166.48 26.9766 166.85 26.113C167.22 25.2494 167.545 24.0354 167.565 23.4151C167.597 22.4482 167.53 22.2884 167.109 22.2884C166.709 22.2884 166.569 22.5586 166.339 23.76C166.184 24.5694 165.832 25.7074 165.553 26.2893L165.042 27.347L162.928 25.063C161.764 23.8066 160.743 22.7238 160.657 22.6563C159.981 22.1265 156.415 17.8579 156.483 17.6591C156.571 17.4026 157.258 16.9564 159.006 16.0266C160.395 15.2877 162.859 12.876 163.313 11.8111C163.86 10.5292 163.808 8.6453 163.187 7.35806C162.165 5.23677 159.998 4.01636 157.238 4.01636ZM157.151 5.24267C158.694 5.24267 159.081 5.34003 160.209 6.01678C161.694 6.90814 162.432 8.181 162.441 9.85668C162.452 11.9339 160.956 13.6863 157.442 15.7277C156.455 16.301 155.614 16.77 155.571 16.77C155.282 16.77 153.187 13.9066 152.483 12.5469C151.467 10.5853 151.382 9.24894 152.168 7.81793C153.147 6.03798 154.685 5.24267 157.151 5.24267ZM154.817 18.4102C154.994 18.3067 156.457 19.7469 158.582 22.1045C160.496 24.2289 162.515 26.4491 163.07 27.0327C163.624 27.6164 164.115 28.1942 164.162 28.3204C164.276 28.6278 162.319 30.5233 161.065 31.3172C160.512 31.6676 159.383 32.1283 158.558 32.3366C155.252 33.1719 152.22 32.4984 150.14 30.4664C148.985 29.3369 148.341 27.8296 148.301 26.1513C148.236 23.3545 150.054 21.1983 154.817 18.4102Z" fill="#838383"/>
<path d="M5.25342 18.965V4.48035L6.27236 4.55576L7.29131 4.63118L8.42945 7.08381C10.0094 10.4886 13.172 17.2384 14.2902 19.5922C14.8029 20.6714 16.2821 23.7893 17.5774 26.5209C18.8727 29.2525 20.0175 31.4875 20.1213 31.4875C20.2251 31.4875 20.3885 31.2391 20.4845 30.9356C20.5804 30.6321 22.9477 25.5276 25.7451 19.5922C28.5425 13.6569 31.2728 7.83776 31.8125 6.66089C32.7917 4.52518 32.7954 4.52111 33.7367 4.51484L34.6799 4.50855V18.9791V33.4496H34.0533H33.4266L33.3616 20.0457L33.2966 6.64189L32.5421 8.37062C32.1271 9.32142 29.2976 15.3561 26.2544 21.7811L20.7212 33.4628L19.9792 33.3948C19.2834 33.3312 19.1294 33.098 17.5032 29.648C16.5495 27.6246 15.2379 24.8654 14.5887 23.5164C13.9394 22.1675 11.8846 17.836 10.0224 13.8909L6.63671 6.71792L6.57169 20.0837L6.50666 33.4496H5.88004H5.25342V18.965Z" fill="#D3D6D6"/>
<path d="M51.526 4.26123C50.9924 4.26123 50.742 4.44809 50.4414 5.066C50.0007 5.97154 49.4745 7.20553 49.3725 7.57228C49.3349 7.70717 48.3241 9.91454 47.1246 12.4775C45.9251 15.0405 44.6237 17.9101 44.2323 18.8544C43.8408 19.7986 42.2772 23.2435 40.7583 26.5035C39.2394 29.7635 37.9181 32.6607 37.8267 32.9417C37.6843 33.3791 37.7688 33.4475 38.3925 33.4475C39.2042 33.4475 38.9039 33.9679 41.7408 27.6225L43.3048 24.1275H51.5103H59.7079L60.8397 26.6415C61.4593 28.0241 62.3577 30.0935 62.8439 31.2401C63.6833 33.2197 63.7767 33.3347 64.573 33.4092C65.6306 33.5082 65.7713 33.9508 62.3016 26.5035C60.7827 23.2435 59.2215 19.7986 58.8276 18.8544C58.4337 17.9101 57.1316 15.0405 55.9353 12.4775C54.7389 9.91454 53.7348 7.70717 53.7031 7.57228C53.6714 7.43738 53.3253 6.63721 52.9329 5.79412C52.3091 4.45417 52.1305 4.26123 51.526 4.26123ZM51.5417 6.22333C51.6533 6.22333 51.969 6.80277 52.2412 7.51096C52.5134 8.21916 53.6709 10.8404 54.8113 13.336C55.9517 15.8315 57.0776 18.37 57.3185 18.977C57.5595 19.584 58.0506 20.7153 58.411 21.4909L59.0712 22.9012H51.5024C45.5457 22.9012 43.9572 22.8359 44.0593 22.5946C44.331 21.9527 45.9135 18.4135 48.2564 13.2133C49.5934 10.2456 50.8365 7.45884 51.0151 7.02044C51.1937 6.58203 51.4301 6.22333 51.5417 6.22333Z" fill="#D3D6D6"/>
<path d="M68.259 4.50647L68.3219 18.977L68.3926 33.4475H69.0136H69.6423V26.3349V19.2222H74.1459H78.6495L84.1119 26.3349C89.4148 33.2434 89.5911 33.4475 90.4311 33.4475C91.0587 33.4475 91.2479 33.3634 91.107 33.1409C90.8481 32.7321 82.6478 22.1301 81.3846 20.5712L80.3864 19.3449L82.3671 19.1916C84.95 18.993 86.799 18.1926 88.1596 16.6853C89.4871 15.2146 89.8519 13.935 89.7158 11.1592C89.6227 9.25905 89.5062 8.80745 88.8591 7.78686C88.4485 7.13921 87.6645 6.30872 87.1143 5.93972C85.3092 4.72919 83.523 4.50652 75.4978 4.50647H68.259ZM69.6423 5.73278L75.7414 5.74045C80.1293 5.74351 82.3238 5.8417 83.5775 6.10068C87.0586 6.81981 88.3191 8.3807 88.3561 12.01C88.3743 13.7966 88.3059 14.1084 87.6252 15.1984C87.0333 16.146 86.5453 16.5604 85.3616 17.1375L83.8525 17.8733L76.7474 17.9499L69.6423 18.0342V11.8797V5.73278Z" fill="#D3D6D6"/>
<path d="M94.5388 18.8988V4.34814L95.2305 4.44702L95.9221 4.54591L95.8527 13.0325L95.7834 21.5191L96.3558 21.0512C96.6706 20.7938 97.8336 19.751 98.9402 18.7339C100.047 17.7167 102.25 15.7278 103.837 14.3141C105.424 12.9004 108.497 10.1158 110.668 8.12608C114.421 4.68477 114.663 4.50845 115.64 4.50845H116.667L115.097 5.90711C114.234 6.67638 113.245 7.58781 112.899 7.93252C112.553 8.27723 110.374 10.2573 108.057 12.3327C105.289 14.8114 103.918 16.1993 104.061 16.3776C104.652 17.1108 116.326 31.0251 117.188 32.0234C117.734 32.6555 118.181 33.2349 118.181 33.311C118.181 33.3872 117.801 33.4495 117.336 33.4495C116.591 33.4495 116.325 33.2457 115.084 31.7265C114.31 30.7788 111.222 27.0778 108.222 23.502L102.768 17.0005L100.98 18.6727C98.3821 21.102 96.8866 22.4316 96.3066 22.8277C95.8216 23.159 95.7964 23.4299 95.7964 28.3129V33.4495H95.1676H94.5388V18.8988Z" fill="#D3D6D6"/>
</svg>
