<svg width="1425" height="563" viewBox="0 0 1425 563" fill="none" xmlns="http://www.w3.org/2000/svg">
<path d="M1071.5 146C1073.99 146 1076 143.985 1076 141.5C1076 139.015 1073.99 137 1071.5 137C1069.01 137 1067 139.015 1067 141.5C1067 143.985 1069.01 146 1071.5 146Z" fill="#FFCE57"/>
<path d="M1424.95 164C1410.02 164 1398 151.954 1398 137C1398 122.046 1410.02 110 1424.95 110C1439.87 110 1451.89 122.046 1451.89 137C1451.89 151.538 1439.87 164 1424.95 164ZM1424.95 117.892C1414.58 117.892 1406.29 126.2 1406.29 136.585C1406.29 146.969 1414.58 155.277 1424.95 155.277C1435.31 155.277 1443.6 146.969 1443.6 136.585C1443.6 126.615 1435.31 117.892 1424.95 117.892Z" fill="#FFCE57"/>
<path d="M1322.39 356.967C1321.67 356.548 1321.54 355.668 1321.89 355.069L1325.04 349.671C1325.46 348.951 1326.34 348.82 1326.94 349.17C1327.54 349.519 1327.79 350.468 1327.44 351.068L1324.29 356.466C1323.94 357.066 1322.99 357.316 1322.39 356.967Z" fill="#5AA5FE"/>
<path d="M1316.86 366.443C1316.14 366.024 1316.01 365.145 1316.36 364.545L1319.58 359.027C1320 358.307 1320.88 358.177 1321.48 358.526C1322.08 358.876 1322.33 359.825 1321.98 360.425L1318.83 365.823C1318.41 366.542 1317.46 366.793 1316.86 366.443Z" fill="#5AA5FE"/>
<path d="M1328.74 363.408L1323.83 360.543C1323.12 360.124 1322.99 359.245 1323.34 358.645C1323.76 357.925 1324.63 357.795 1325.23 358.144L1330.14 361.009C1330.86 361.428 1330.99 362.307 1330.64 362.907C1330.29 363.506 1329.46 363.827 1328.74 363.408Z" fill="#5AA5FE"/>
<path d="M1318.45 357.399L1313.54 354.535C1312.82 354.116 1312.69 353.237 1313.04 352.637C1313.46 351.917 1314.34 351.787 1314.94 352.136L1319.85 355C1320.56 355.419 1320.69 356.299 1320.34 356.898C1319.99 357.498 1319.16 357.818 1318.45 357.399Z" fill="#5AA5FE"/>
<path d="M11.5 257C5.16662 257 0 251.833 0 245.5C0 239.167 5.16662 234 11.5 234C17.8333 234 23 239.167 23 245.5C23 251.833 17.8333 257 11.5 257ZM11.5 238.111C7.4444 238.111 4.16667 241.389 4.16667 245.444C4.16667 249.5 7.4444 252.778 11.5 252.778C15.5555 252.778 18.8333 249.5 18.8333 245.444C18.8333 241.389 15.5555 238.111 11.5 238.111Z" fill="#FFCE57"/>
<path d="M524 563C526.209 563 528 561.209 528 559C528 556.791 526.209 555 524 555C521.791 555 520 556.791 520 559C520 561.209 521.791 563 524 563Z" fill="#0B1940"/>
<path d="M595.5 158C590.819 158 587 154.181 587 149.5C587 144.819 590.819 141 595.5 141C600.181 141 604 144.819 604 149.5C604 154.181 600.181 158 595.5 158ZM595.5 144.039C592.502 144.039 590.08 146.461 590.08 149.459C590.08 152.457 592.502 154.879 595.5 154.879C598.498 154.879 600.92 152.457 600.92 149.459C600.92 146.461 598.498 144.039 595.5 144.039Z" fill="#5AA5FE"/>
<path d="M234.378 120.175C235.39 121.486 235.139 123.368 233.828 124.379C232.516 125.39 230.633 125.139 229.622 123.828C228.61 122.517 228.861 120.635 230.172 119.624C231.484 118.613 233.367 118.854 234.378 120.175Z" fill="#121936" fill-opacity="0.6"/>
<path d="M66 380C66 381.65 64.66 383 63 383C61.35 383 60 381.66 60 380C60 378.34 61.34 377 63 377C64.66 377 66 378.35 66 380Z" fill="#121936"/>
<path d="M805 236.136C805 232.738 807.732 230 811.124 230C814.515 230 817.248 232.738 817.248 236.136C817.248 239.535 814.515 242.273 811.124 242.273C807.732 242.273 805 239.535 805 236.136ZM806.884 236.136C806.884 238.496 808.768 240.384 811.124 240.384C813.479 240.384 815.363 238.496 815.363 236.136C815.363 233.776 813.479 231.888 811.124 231.888C808.768 231.888 806.884 233.776 806.884 236.136Z" fill="#FFCE57"/>
</svg>
