<svg width="20" height="13" viewBox="0 0 20 13" fill="none" xmlns="http://www.w3.org/2000/svg">
<path fill-rule="evenodd" clip-rule="evenodd" d="M18.7502 0H1.25029C0.626542 0 0.131546 0.439641 0.0377964 1.00574L10.0002 7.21152L19.9626 1.00574C19.8689 0.439641 19.3739 0 18.7502 0ZM0 10.6269V2.39662L6.74245 6.59684L0 10.6269ZM20 10.627L13.2576 6.59695L20 2.39673V10.627ZM10.3427 8.41218L12.1115 7.31071L19.9589 12.0026C19.8627 12.5639 19.3702 13 18.7489 13H1.24905C0.627808 13 0.135312 12.5639 0.0390625 12.0026L7.8865 7.30953L9.65524 8.41218C9.76024 8.47718 9.87899 8.50908 9.99899 8.50908C10.119 8.50908 10.2377 8.47718 10.3427 8.41218Z" fill="#C0D7FF"/>
</svg>
