<svg width="1440" height="609" viewBox="0 0 1440 609" fill="none" xmlns="http://www.w3.org/2000/svg">
<mask id="mask0_1_881" style="mask-type:alpha" maskUnits="userSpaceOnUse" x="0" y="0" width="1440" height="609">
<rect width="1440" height="609" fill="url(#paint0_linear_1_881)"/>
</mask>
<g mask="url(#mask0_1_881)">
<g filter="url(#filter0_d_1_881)">
<path fill-rule="evenodd" clip-rule="evenodd" d="M1593.54 639.043L1618.97 525.244C1546.5 471.974 1421.6 336.616 1219.65 284.739C1060.07 243.748 919.89 297.843 760.314 256.851C546.081 201.82 397.183 80.3976 200.068 78.9746C0.85126 77.5363 -212.148 177.07 -358.643 87.9399L-368.594 358.471L-383.241 424.02L-303.453 444.515C-223.665 465.011 -64.0886 506.002 95.4873 546.994C255.063 587.985 414.639 628.976 574.215 669.968C733.791 710.959 893.367 751.951 1052.94 792.942C1212.52 833.933 1372.1 874.925 1451.88 895.42L1531.67 915.916L1593.54 639.043Z" fill="#DBEEFF" fill-opacity="0.02" shape-rendering="crispEdges"/>
</g>
</g>
<defs>
<filter id="filter0_d_1_881" x="-396.241" y="52.9591" width="2028.21" height="862.957" filterUnits="userSpaceOnUse" color-interpolation-filters="sRGB">
<feFlood flood-opacity="0" result="BackgroundImageFix"/>
<feColorMatrix in="SourceAlpha" type="matrix" values="0 0 0 0 0 0 0 0 0 0 0 0 0 0 0 0 0 0 127 0" result="hardAlpha"/>
<feOffset dy="-13"/>
<feGaussianBlur stdDeviation="6.5"/>
<feComposite in2="hardAlpha" operator="out"/>
<feColorMatrix type="matrix" values="0 0 0 0 0.0627451 0 0 0 0 0.309804 0 0 0 0 0.8 0 0 0 0.1 0"/>
<feBlend mode="normal" in2="BackgroundImageFix" result="effect1_dropShadow_1_881"/>
<feBlend mode="normal" in="SourceGraphic" in2="effect1_dropShadow_1_881" result="shape"/>
</filter>
<linearGradient id="paint0_linear_1_881" x1="-483" y1="81" x2="2185.66" y2="422.403" gradientUnits="userSpaceOnUse">
<stop offset="0.0045292" stop-color="#77B4E8"/>
<stop offset="0.464647" stop-color="#0759E4"/>
<stop offset="1" stop-color="#213595"/>
</linearGradient>
</defs>
</svg>
